<svg xmlns="http://www.w3.org/2000/svg" xmlns:xlink="http://www.w3.org/1999/xlink" viewBox="0 0 68.91 210.77"><defs><style>.cls-1{fill:#bc9d6c;}.cls-2{fill:none;}.cls-3{clip-path:url(#clip-path);}.cls-4{clip-path:url(#clip-path-2);}.cls-5{fill:#efede6;}.cls-6{fill:#e5e1d8;}.cls-7{fill:#89c1c6;}</style><clipPath id="clip-path"><path class="cls-1" d="M35.31,210.77S-19.89,99.36,30.29,3c0,0,50.19,66.25,36.14,202.75Z"/></clipPath><clipPath id="clip-path-2"><path class="cls-2" d="M29.31,207.77S-25.89,96.36,24.29,0c0,0,50.19,66.25,36.14,202.75Z"/></clipPath></defs><title>Asset 4</title><g id="Layer_2" data-name="Layer 2"><g id="OBJECTS"><path class="cls-1" d="M35.31,210.77S-19.89,99.36,30.29,3c0,0,50.19,66.25,36.14,202.75Z"/><g class="cls-3"><path class="cls-1" d="M35.31,210.77S-19.89,99.36,30.29,3c0,0,50.19,66.25,36.14,202.75Z"/><path class="cls-1" d="M30.29,3S80.48,69.25,66.43,205.75l-14.8,2.39S37.82,101.87,30.29,3Z"/><polygon class="cls-1" points="6 45.35 35.85 66.98 57.05 46.22 53.59 39.73 34.99 57.9 10.33 40.16 6 45.35"/><polygon class="cls-1" points="15.09 31.72 33.46 40.66 48.18 29.77 46.02 25.66 32.93 35.99 16.82 28.04 15.09 31.72"/></g><g class="cls-4"><path class="cls-5" d="M29.31,207.77S-25.89,96.36,24.29,0c0,0,50.19,66.25,36.14,202.75Z"/><path class="cls-6" d="M24.29,0S74.48,66.25,60.43,202.75l-14.8,2.39S31.82,98.87,24.29,0Z"/><polygon class="cls-7" points="0 42.35 29.85 63.98 51.05 43.22 47.59 36.73 28.99 54.9 4.33 37.16 0 42.35"/><polygon class="cls-7" points="9.09 28.72 27.46 37.66 42.18 26.77 40.02 22.66 26.93 32.99 10.81 25.04 9.09 28.72"/></g></g></g></svg>