<svg xmlns="http://www.w3.org/2000/svg" viewBox="0 0 111.82 118.87"><defs><style>.cls-1{fill:#bc9d6c;}.cls-2{opacity:0.5;}.cls-3{fill:#4f4f4e;}.cls-4{fill:#fff;}.cls-5{fill:#db5852;}.cls-6{fill:#606060;}</style></defs><title>Asset 2</title><g id="Layer_2" data-name="Layer 2"><g id="OBJECTS"><path class="cls-1" d="M94.93,46.41C78.76,45.06,64,50.27,49,53.77c-14.54,3.5-27.83.45-38.07,14.46l.54,4.31c2.15-2.78,7.09-5.84,8.44-6.91,4.58-4,14.28-5.93,19.93-6.47,11.05-1.08,20.66-3,31.7-4.13C82.27,53.68,92,47.76,102.74,54c3.23,2.16,4.85,4.31,4.31,8.35C106,68,98.25,70.11,93.13,71.73c-6.46,1.62-11.94,1.35-18.68.27-2.42-.27-3.5-1.62-5.11,0-1.08,1.08-1.35,4.58-1.08,5.66,12.39,2.69,28.28,1.61,38-7C118.36,60.42,108.94,47.76,94.93,46.41Z"/><path class="cls-1" d="M39.54,89.87c-5.68.54-10.33-.81-9.62-8.62.47-4,3.24-15.89,7-17.24,5-1.89,8.75,25.59,2.6,25.86"/><g class="cls-2"><path class="cls-1" d="M65.53,78.58c-9.22,5.58-18.44-6.13-27.66-5.85-9.55.28-26.34,13.38-28-2.51a20.08,20.08,0,0,1,7.9-18.12c6.25-4.47,15.47-4.19,23-4.74,9.22.27,16.47,2,21.73,6.69C68.49,59.35,76.72,72.17,65.53,78.58Z"/></g><path class="cls-1" d="M64.58,52.34c-5.75-6.11-13.65-8.27-23.71-8.63-8.26.72-18.32.36-25.14,6.11C9.26,55.57,6.39,64.55,7.11,73.17,8.9,93.64,27.22,76.76,37.64,76.4c10-.36,20.11,14.73,30.17,7.54C80,75.68,71,59.16,64.58,52.34ZM63,77.09c-8.3,5-16.6-5.51-24.89-5.26-8.6.25-23.7,12-25.19-2.26a18.1,18.1,0,0,1,7.11-16.31C25.68,49.24,34,49.5,40.79,49c8.3.25,14.82,1.76,19.56,6C65.68,59.78,73.09,71.32,63,77.09Z"/><path class="cls-1" d="M54.16,110.16s13.29-1.06,18.68-24.42S83.25,6,83.25,6l7.91.36S83.25,83.94,76.07,99s-16.16,17.42-22.36,17.28Z"/><path class="cls-1" d="M53.08,115.19s-15.26,5.21-18.49-8.08,5.56-11.49,6.1-2.15c0,0-.36-6.29,2.16-7s5.2,5,3.23,11.68h6.11Z"/><path class="cls-1" d="M56,112.68c-.26,4.16-.55,6.19-2.11,6.19s-2.92-.8-2.74-9.78c.08-4.17,1.17-5.3,2.74-5.3S56.31,106.75,56,112.68Z"/><polygon class="cls-1" points="82.03 18.32 89.81 19.03 89.54 21.32 81.82 20.54 82.03 18.32"/><polygon class="cls-1" points="81.39 24.57 89.07 25.3 88.8 27.59 81.19 26.81 81.39 24.57"/><path class="cls-1" d="M75.27,72.13a50.66,50.66,0,0,0,11,.67l-.72,5.92a56.29,56.29,0,0,1-11.32-.09Z"/><path class="cls-3" d="M87.93,40.41C71.76,39.06,57,44.27,42,47.77c-14.54,3.5-27.83.45-38.07,14.46l.54,4.31c2.15-2.78,7.09-5.84,8.44-6.91,4.58-4,14.28-5.93,19.93-6.47,11.05-1.08,20.66-3,31.7-4.13C75.27,47.68,85,41.76,95.74,48c3.23,2.16,4.85,4.31,4.31,8.35C99,62,91.25,64.11,86.13,65.73c-6.46,1.62-11.94,1.35-18.68.27-2.42-.27-3.5-1.62-5.11,0-1.08,1.08-1.35,4.58-1.08,5.66,12.39,2.69,28.28,1.61,38-7C111.36,54.42,101.94,41.76,87.93,40.41Z"/><path class="cls-3" d="M32.54,83.87c-5.68.54-10.33-.81-9.62-8.62.47-4,3.24-15.89,7-17.24,5-1.89,8.75,25.59,2.6,25.86"/><g class="cls-2"><path class="cls-4" d="M58.53,72.58c-9.22,5.58-18.44-6.13-27.66-5.85-9.55.28-26.34,13.38-28-2.51a20.08,20.08,0,0,1,7.9-18.12c6.25-4.47,15.47-4.19,23-4.74,9.22.27,16.47,2,21.73,6.69C61.49,53.35,69.72,66.17,58.53,72.58Z"/></g><path class="cls-5" d="M57.58,46.34c-5.75-6.11-13.65-8.27-23.71-8.63-8.26.72-18.32.36-25.14,6.11C2.26,49.57-.61,58.55.11,67.17,1.9,87.64,20.22,70.76,30.64,70.4c10-.36,20.11,14.73,30.17,7.54C73,69.68,64,53.16,57.58,46.34ZM56,71.09c-8.3,5-16.6-5.51-24.89-5.26-8.6.25-23.7,12-25.19-2.26a18.1,18.1,0,0,1,7.11-16.31C18.68,43.24,27,43.5,33.79,43c8.3.25,14.82,1.76,19.56,6C58.68,53.78,66.09,65.32,56,71.09Z"/><path class="cls-4" d="M47.16,104.16s13.29-1.06,18.68-24.42S76.25,0,76.25,0l7.91.36S76.25,77.94,69.07,93s-16.16,17.42-22.36,17.28Z"/><path class="cls-3" d="M46.08,109.19s-15.26,5.21-18.49-8.08,5.56-11.49,6.1-2.15c0,0-.36-6.29,2.16-7s5.2,5,3.23,11.68h6.11Z"/><path class="cls-6" d="M49,106.68c-.26,4.16-.55,6.19-2.11,6.19s-2.92-.8-2.74-9.78c.08-4.17,1.17-5.3,2.74-5.3S49.31,100.75,49,106.68Z"/><polygon class="cls-5" points="75.03 12.32 82.81 13.03 82.54 15.32 74.82 14.54 75.03 12.32"/><polygon class="cls-5" points="74.39 18.57 82.07 19.3 81.8 21.59 74.19 20.81 74.39 18.57"/><path class="cls-3" d="M68.27,66.13a50.66,50.66,0,0,0,11,.67l-.72,5.92a56.29,56.29,0,0,1-11.32-.09Z"/></g></g></svg>