<svg xmlns="http://www.w3.org/2000/svg" viewBox="0 0 67.22 90.92"><defs><style>.cls-1{opacity:0.8;}.cls-2,.cls-3{fill:#bc9d6c;}.cls-3,.cls-6{opacity:0.4;}.cls-4,.cls-6{fill:#fff;}.cls-5{fill:#ddb952;}</style></defs><title>Asset 1</title><g id="Layer_2" data-name="Layer 2"><g id="OBJECTS"><g class="cls-1"><path class="cls-2" d="M67.21,55.6c.31-9.35-6.39-10.11-13.75-7.08l4.6-11.21L17.33,24.51,3.5,80.33,36.08,90.92l6.57-16C53.66,81.23,67,65.7,67.21,55.6ZM44,71.5l7-17.15C75.63,44.93,52.71,80.37,44,71.5Z"/></g><polygon class="cls-2" points="19.4 30.57 8.23 77.8 33.82 85.4 51.45 41.87 19.4 30.57"/><path class="cls-3" d="M21.11,57.58c-3.35,9.75-7,18.67-8.33,18.21s-1.38-4.63,5-23.22c3.35-9.75,5.81-12.55,7.13-12.1S24.46,47.82,21.11,57.58Z"/><path class="cls-3" d="M29.88,60.59c-3.36,9.75-7,18.67-8.34,18.21s-1.38-4.63,5-23.22c3.35-9.75,5.8-12.55,7.12-12.1S33.23,50.83,29.88,60.59Z"/><path class="cls-3" d="M38,63.37C34.62,73.12,31,82,29.64,81.59s-1.38-4.63,5-23.22c3.35-9.76,5.8-12.56,7.12-12.1S41.32,53.62,38,63.37Z"/><path class="cls-2" d="M17.24,24.78C14,24,10.46,18.59,13.06,15.33s7.72.87,10,2.84c2.44-4.51,1.83-15.7,9.45-13.68,4.6,1.29,5.34,7.78,6,11.87,9-3.74,15.58-4.75,10.59,7.2,2.74.64,14.38-.4,15.32,3.78.68,3.2-4.22,5.38-6.79,5.09,3,.73,7.86,4.77,4.63,8.12-3.58,3.52-10.64-1.87-13.1-4.21-2,3.18-3,6.38-7.34,5.8s-5.2-3.87-6.14-8c-9,4.62-18.15,4.45-18.38-9.58"/><g class="cls-1"><path class="cls-4" d="M63.71,51.35C64,42,57.32,41.24,50,44.27l4.6-11.21L13.83,20.26,0,76.08,32.58,86.67l6.57-16C50.16,77,63.51,61.45,63.71,51.35ZM40.54,67.25l7-17.15C72.13,40.68,49.21,76.12,40.54,67.25Z"/></g><polygon class="cls-5" points="15.9 26.32 4.73 73.55 30.32 81.15 47.95 37.62 15.9 26.32"/><path class="cls-6" d="M17.61,53.33c-3.35,9.75-7,18.67-8.33,18.21s-1.38-4.63,5-23.22c3.35-9.75,5.81-12.55,7.13-12.1S21,43.57,17.61,53.33Z"/><path class="cls-6" d="M26.38,56.34C23,66.09,19.36,75,18,74.55s-1.38-4.63,5-23.22c3.35-9.75,5.8-12.55,7.12-12.1S29.73,46.58,26.38,56.34Z"/><path class="cls-6" d="M34.47,59.12c-3.35,9.75-7,18.67-8.33,18.22s-1.38-4.63,5-23.22C34.5,44.36,37,41.56,38.27,42S37.82,49.37,34.47,59.12Z"/><path class="cls-4" d="M13.74,20.53C10.46,19.7,7,14.34,9.56,11.08s7.72.87,10,2.84C22,9.41,21.4-1.78,29,.24c4.6,1.29,5.34,7.78,6,11.87,9-3.74,15.58-4.75,10.59,7.2C48.37,20,60,18.91,61,23.09c.68,3.2-4.22,5.38-6.79,5.09,3,.73,7.86,4.77,4.63,8.12-3.58,3.52-10.64-1.87-13.1-4.21-2,3.18-3,6.38-7.34,5.8s-5.2-3.87-6.14-8c-9,4.62-18.15,4.45-18.38-9.58"/></g></g></svg>