<svg xmlns="http://www.w3.org/2000/svg" viewBox="0 0 108.54 121.78"><defs><style>.cls-1{fill:#bc9d6c;}.cls-2{fill:#ef546b;}.cls-3{fill:#efede6;}</style></defs><title>Asset 5</title><g id="Layer_2" data-name="Layer 2"><g id="OBJECTS"><path class="cls-1" d="M38.7,91S70.2,97,82,94.28L81.2,99s-15.25.5-16.75,22.75l-8.25-1.25S61.45,97,38,97.53Z"/><polygon class="cls-1" points="38.7 91.03 31.7 82.03 28.95 85.78 35.45 91.28 27.95 93.03 28.2 97.03 39.45 93.28 38.7 91.03"/><polygon class="cls-1" points="81.95 94.28 90.45 83.28 93.95 86.03 85.2 94.53 92.7 96.53 91.45 99.78 80.7 96.78 81.95 94.28"/><path class="cls-2" d="M35.7,88S67.2,94,79,91.28L78.2,96s-15.25.5-16.75,22.75l-8.25-1.25S58.45,94,35,94.53Z"/><polygon class="cls-2" points="35.7 88.03 28.7 79.03 25.95 82.78 32.45 88.28 24.95 90.03 25.2 94.03 36.45 90.28 35.7 88.03"/><polygon class="cls-2" points="78.95 91.28 87.45 80.28 90.95 83.03 82.2 91.53 89.7 93.53 88.45 96.78 77.7 93.78 78.95 91.28"/><path class="cls-3" d="M63,96.07a1.55,1.55,0,0,1-3.09,0,1.38,1.38,0,0,1,1.33-1.54A1.74,1.74,0,0,1,63,96.07Z"/><path class="cls-3" d="M50.75,93.69a1.55,1.55,0,0,1-3.09,0A1.38,1.38,0,0,1,49,92.15,1.74,1.74,0,0,1,50.75,93.69Z"/><path class="cls-3" d="M59.37,110.4a1.4,1.4,0,1,1-2.79,0,1.24,1.24,0,0,1,1.2-1.39A1.56,1.56,0,0,1,59.37,110.4Z"/><path class="cls-3" d="M62.81,103.77a1.4,1.4,0,1,1-2.79,0,1.24,1.24,0,0,1,1.2-1.39A1.57,1.57,0,0,1,62.81,103.77Z"/><path class="cls-3" d="M42.81,92A1.4,1.4,0,1,1,40,92a1.24,1.24,0,0,1,1.2-1.39A1.57,1.57,0,0,1,42.81,92Z"/><path class="cls-3" d="M73.06,94.77a1.4,1.4,0,1,1-2.79,0,1.24,1.24,0,0,1,1.2-1.39A1.57,1.57,0,0,1,73.06,94.77Z"/><path class="cls-3" d="M56.62,99.11a1.84,1.84,0,0,1-3.67,0,1.64,1.64,0,0,1,1.59-1.84A2.07,2.07,0,0,1,56.62,99.11Z"/><path class="cls-1" d="M32,42.86c-1-5.5-9.5-32.5,2.25-32.75,11.25-.25,7.91,27.17,4.91,33.42a7.73,7.73,0,0,1-2-.42s2.25-9.23,2.25-13c0-2.5.84-16.58-3.66-16.58-7-.25-1.92,26.66-1.42,30.16-1,0-1.58-.58-2.33-.83"/><path class="cls-1" d="M72.62,7.28c-.83-2.34-2-4.84-4.83-4.17-3.84,1-4.46,8-4.67,11-.71,10.25,5,24.88,5,24.88s1.13,1.45,4.29,2.12a69.67,69.67,0,0,1-5.83-17.5c-1.71-8.87,0-13.83.83-14.33,2.17-1.17,4.07,6.48,4.84,17.66.33,4.84.75,12.3,1.5,13.3l1.66.2C75.45,29.44,76.29,17.78,72.62,7.28Z"/><path class="cls-1" d="M34.54,50.86c-6.75,1.75-10.25,7.25-17,8.75-4,1-18.5,3.75-13.5,10,4.25-3.75,12.5-5.5,17.75-7.25,6.5-2,8.5-6.75,14.5-9.5-.25-.75.5-1.25-.25-1.75"/><path class="cls-1" d="M73.29,45.11c5.5.75,9.5,2,15.25,1.5A15.54,15.54,0,0,1,99,49.36c2.25,1.5,9.5,4.75,9.5,4.75l-1.75,3.5s-8-3.5-11-5.5c-2.25-1.25-4.25-1-6.75-1-3.25,0-17.25-2.25-16.75-5.25"/><path class="cls-1" d="M32,41.78c.34,5.33,2.67,22.33,9,24.33,6.67,2,10.67-12,12-16.67,4.67,3.34,9,16.67,17.67,13.67,5-1.67,7-20.67,4.33-24.33C71.29,33.11,57.54,41.86,54,44.61,50,41.86,39,41.78,32,41.78"/><path class="cls-2" d="M29,39.86c-1-5.5-9.5-32.5,2.25-32.75,11.25-.25,7.91,27.17,4.91,33.42a7.73,7.73,0,0,1-2-.42s2.25-9.23,2.25-13c0-2.5.84-16.58-3.66-16.58-7-.25-1.92,26.66-1.42,30.16-1,0-1.58-.58-2.33-.83"/><path class="cls-2" d="M69.62,4.28c-.83-2.34-2-4.84-4.83-4.17-3.84,1-4.46,8-4.67,11-.71,10.25,5,24.88,5,24.88s1.13,1.45,4.29,2.12a69.67,69.67,0,0,1-5.83-17.5c-1.71-8.87,0-13.83.83-14.33,2.17-1.17,4.07,6.48,4.84,17.66.33,4.84.75,12.3,1.5,13.3l1.66.2C72.45,26.44,73.29,14.78,69.62,4.28Z"/><path class="cls-2" d="M31.54,47.86c-6.75,1.75-10.25,7.25-17,8.75-4,1-18.5,3.75-13.5,10,4.25-3.75,12.5-5.5,17.75-7.25,6.5-2,8.5-6.75,14.5-9.5-.25-.75.5-1.25-.25-1.75"/><path class="cls-2" d="M70.29,42.11c5.5.75,9.5,2,15.25,1.5A15.54,15.54,0,0,1,96,46.36c2.25,1.5,9.5,4.75,9.5,4.75l-1.75,3.5s-8-3.5-11-5.5c-2.25-1.25-4.25-1-6.75-1-3.25,0-17.25-2.25-16.75-5.25"/><path class="cls-2" d="M29,38.78c.34,5.33,2.67,22.33,9,24.33,6.67,2,10.67-12,12-16.67,4.67,3.34,9,16.67,17.67,13.67,5-1.67,7-20.67,4.33-24.33C68.29,30.11,54.54,38.86,51,41.61,47,38.86,36,38.78,29,38.78"/><path class="cls-3" d="M37,44.28a1.83,1.83,0,0,1-3.66,0,1.64,1.64,0,0,1,1.58-1.84A2.06,2.06,0,0,1,37,44.28Z"/><path class="cls-3" d="M37.33,52.28a1.55,1.55,0,0,1-3.09,0,1.38,1.38,0,0,1,1.34-1.54A1.73,1.73,0,0,1,37.33,52.28Z"/><path class="cls-3" d="M44.64,47a1.4,1.4,0,1,1-2.79,0,1.24,1.24,0,0,1,1.21-1.39A1.56,1.56,0,0,1,44.64,47Z"/><path class="cls-3" d="M43.2,56.94a1.83,1.83,0,1,1-3.66,0,1.63,1.63,0,0,1,1.58-1.83A2.06,2.06,0,0,1,43.2,56.94Z"/><path class="cls-3" d="M56.7,44.61a1.83,1.83,0,0,1-3.66,0,1.63,1.63,0,0,1,1.58-1.83A2.06,2.06,0,0,1,56.7,44.61Z"/><path class="cls-3" d="M61.85,50.19a1.48,1.48,0,0,1-3,0,1.32,1.32,0,0,1,1.28-1.48A1.68,1.68,0,0,1,61.85,50.19Z"/><path class="cls-3" d="M66.79,39.69a1.84,1.84,0,1,1-3.67,0,1.63,1.63,0,0,1,1.58-1.83A2.06,2.06,0,0,1,66.79,39.69Z"/><path class="cls-3" d="M67.12,55.53a1.84,1.84,0,0,1-3.67,0A1.64,1.64,0,0,1,65,53.69,2.06,2.06,0,0,1,67.12,55.53Z"/><path class="cls-3" d="M69.54,47.11a1.84,1.84,0,0,1-3.67,0,1.63,1.63,0,0,1,1.58-1.83A2.06,2.06,0,0,1,69.54,47.11Z"/></g></g></svg>