<?xml version="1.0" encoding="utf-8"?>
<!-- Generator: Adobe Illustrator 22.1.0, SVG Export Plug-In . SVG Version: 6.00 Build 0)  -->
<svg version="1.1" id="Layer_1" xmlns="http://www.w3.org/2000/svg" xmlns:xlink="http://www.w3.org/1999/xlink" x="0px" y="0px"
	 viewBox="0 0 123.5 99.8" style="enable-background:new 0 0 123.5 99.8;" xml:space="preserve">
<style type="text/css">
	.st0{fill:#BC9D6C;}
	.st1{fill:#4F4F4E;}
	.st2{fill:#EACE24;}
	.st3{fill:#DBBB1D;}
	.st4{fill:#D67D41;}
	.st5{fill:#EFEDE6;}
	.st6{fill:#EA9292;}
</style>
<title>Asset 6</title>
<g id="Layer_2_1_">
	<g id="OBJECTS">
		<path class="st0" d="M70.3,28.6c-4.5,5.1-6.4,7.5-6.5,14.9c-0.1,6.8,5.9,11.3,9.2,13.2c5.2,3,16,6.9,21.4,2.1
			c4.9-4.4-2.7-4.8-6.2-5c2-0.1,8.7,0.5,8.7-2.6c0-2.4-4.8-2.3-6.5-3.1c2,0.2,9.4-1,8.8-4.3c-0.5-2.2-7.4-3.2-9.1-3.8
			C82.3,37.4,76,34.1,70.3,28.6"/>
		<path class="st0" d="M52.1,18.5c0,0,0-0.3,0.2-0.8s0.3-1.3,0.5-2.2c0.3-1,0.7-2,1.1-3c0.3-0.6,0.6-1.1,1-1.6
			c0.2-0.3,0.5-0.5,0.8-0.8c0.2-0.1,0.4-0.2,0.6-0.3c0.2-0.1,0.5-0.1,0.7-0.1c0.4,0.1,0.9,0.3,1.2,0.6c0.3,0.3,0.5,0.5,0.7,0.9
			c0.2,0.3,0.3,0.6,0.4,0.9c0.1,0.3,0.2,0.6,0.3,0.9c0.2,0.5,0.3,1.1,0.4,1.6c0.1,0.5,0.2,1,0.3,1.5c0.2,0.9,0.2,1.7,0.3,2.2
			s0.1,0.8,0.1,0.8c0,0.1-0.1,0.2-0.2,0.2c0,0,0,0,0,0c-0.1,0-0.2-0.1-0.2-0.2l0,0c0,0-0.1-0.3-0.2-0.8s-0.3-1.2-0.6-2.1
			c-0.1-0.4-0.3-0.9-0.4-1.4s-0.3-1-0.5-1.5c-0.1-0.3-0.2-0.5-0.3-0.8c-0.1-0.2-0.2-0.5-0.4-0.7c-0.3-0.5-0.7-0.8-0.9-0.8
			s-0.6,0.2-1,0.6c-0.3,0.4-0.6,0.9-0.9,1.3c-0.5,1-1,1.9-1.3,2.8s-0.6,1.5-0.8,2s-0.3,0.8-0.3,0.8c0,0.1-0.2,0.2-0.3,0.1
			c0,0,0,0,0,0C52.2,18.6,52.1,18.6,52.1,18.5z"/>
		<path class="st0" d="M56.7,24.8c-0.1,1.1-1.6,1.8-3.5,1.7s-3.2-1.1-3.2-2.2s1.2-1.9,3-1.7S56.8,23.7,56.7,24.8z"/>
		<path class="st1" d="M105,33.2c0,0,15-10.6,6.3,0.7c0,0,16-11.1,2.4,5.4c-6.7,8.2-9,6.5-9,6.5L105,33.2z"/>
		<path class="st2" d="M43,10.4c0,0-26.1-7.5-30.4-8.4s-8,2.3-10,4.8C1.6,8,0.7,9.2,0,10.6c0,0,19.6,9.4,42,5.5L43,10.4z"/>
		<path class="st3" d="M42.5,13.1C22.5,8.5,0,10.6,0,10.6s19.6,9.4,42,5.5C42,16.1,43.2,13.3,42.5,13.1z"/>
		<polygon class="st4" points="60.1,64 60.4,75.7 46.7,88 55,93.3 62.6,77 63,65.1 		"/>
		<polygon class="st4" points="66.7,66 68.8,76.9 65.3,95.8 75.5,95.1 70.8,76.5 70.1,66.5 		"/>
		<path class="st5" d="M41.6,41.9c-2.7-8.5-3.7-28.4,5.3-37.7C57-6.4,63.3,5,64.1,17.7s16.1,28.9,34.5,17s8.3-0.2,8.3-0.2
			s12.8-8,2.5,4.1c0,0,12.5-9.1,2.3,7.4S57,90.6,41.6,41.9z"/>
		<path class="st1" d="M65.9,24.6c-4.5,5.1-6.4,7.5-6.5,14.9c-0.1,6.8,5.9,11.4,9.2,13.2c5.2,3,16,6.9,21.4,2.1
			c4.9-4.4-2.7-4.8-6.2-5c2-0.1,8.7,0.5,8.7-2.6c0-2.4-4.8-2.3-6.5-3.1c1.9,0.2,9.4-1,8.8-4.3c-0.5-2.2-7.4-3.2-9.1-3.8
			C77.9,33.5,71.6,30.1,65.9,24.6"/>
		<path class="st1" d="M47.7,14.5c0,0,0-0.3,0.2-0.8s0.3-1.3,0.5-2.2c0.3-1,0.7-2,1.2-3c0.3-0.6,0.6-1.1,1-1.6
			c0.2-0.3,0.5-0.5,0.8-0.8c0.2-0.1,0.4-0.2,0.6-0.3c0.2-0.1,0.5-0.1,0.7-0.1c0.4,0.1,0.8,0.3,1.2,0.6c0.3,0.3,0.5,0.5,0.6,0.9
			c0.2,0.3,0.3,0.6,0.4,0.9c0.1,0.3,0.2,0.6,0.3,0.9c0.2,0.5,0.3,1.1,0.5,1.6c0.1,0.5,0.2,1,0.3,1.5c0.2,0.9,0.2,1.7,0.3,2.2
			s0.1,0.8,0.1,0.8c0,0.1-0.1,0.2-0.2,0.2c0,0,0,0,0,0c-0.1,0-0.2-0.1-0.2-0.1l0,0c0,0-0.1-0.3-0.2-0.8s-0.3-1.2-0.6-2.1
			c-0.1-0.4-0.3-0.9-0.4-1.4s-0.3-1-0.5-1.5c-0.1-0.3-0.2-0.5-0.3-0.8c-0.1-0.3-0.2-0.5-0.4-0.7C53.1,7.4,52.7,7,52.5,7
			s-0.6,0.2-1,0.6c-0.3,0.4-0.6,0.9-0.9,1.4c-0.5,0.9-0.9,1.8-1.3,2.8c-0.3,0.8-0.7,1.5-0.8,2l-0.3,0.8c0,0.1-0.2,0.2-0.3,0.1
			c0,0,0,0,0,0C47.8,14.6,47.7,14.6,47.7,14.5z"/>
		<path class="st6" d="M52.3,20.8c-0.1,1.1-1.6,1.8-3.5,1.7s-3.2-1.1-3.2-2.2s1.1-1.9,3-1.7S52.4,19.7,52.3,20.8z"/>
	</g>
</g>
</svg>
