<svg xmlns="http://www.w3.org/2000/svg" xmlns:xlink="http://www.w3.org/1999/xlink" viewBox="0 0 137.6 89.05"><defs><style>.cls-1{fill:#4e4236;}.cls-2{fill:#9d724f;}.cls-3{fill:#513d24;}.cls-4{fill:#746450;}.cls-5{fill:#432812;}.cls-6{fill:#3c2918;}.cls-7{fill:#854f23;}.cls-8{fill:#94411f;}.cls-9{fill:#8c4825;}.cls-10{fill:#c4aa95;}.cls-11{fill:url(#New_Gradient_Swatch);}.cls-12{fill:#643b1a;}.cls-13{fill:#699400;}.cls-14{fill:#5a8033;}</style><linearGradient id="New_Gradient_Swatch" x1="70.82" y1="68.8" x2="70.82" y2="89.04" gradientUnits="userSpaceOnUse"><stop offset="0" stop-color="#47839a"/><stop offset="0.26" stop-color="#438198"/><stop offset="0.49" stop-color="#397992"/><stop offset="0.7" stop-color="#276d88"/><stop offset="0.91" stop-color="#0d5c7a"/><stop offset="1" stop-color="#005373"/></linearGradient></defs><title>Capilano</title><g id="Layer_2" data-name="Layer 2"><g id="Objects"><g id="Capilano"><path class="cls-1" d="M29.86,28.12c-3.74,0-5.32-1.5-5.4-1.57a.43.43,0,1,1,.6-.61s1.91,1.75,6.55,1.21a16.66,16.66,0,0,0,5.13-1.46c5.46-2.51,5.18-4.33,5.18-4.34a.44.44,0,0,1,.32-.51.42.42,0,0,1,.51.29c.07.25.51,2.51-5.65,5.34A17.7,17.7,0,0,1,31.71,28,15.47,15.47,0,0,1,29.86,28.12Z"/><path class="cls-1" d="M117.76,28.15l-.79,0a12.11,12.11,0,0,1-4.8-1.36c-5.46-2.85-4.77-5.52-4.74-5.63a.43.43,0,0,1,.53-.3.44.44,0,0,1,.3.53c0,.05-.43,2.17,4.3,4.64A11.39,11.39,0,0,0,117,27.27c4.12.27,5.9-1.81,6-1.89a.42.42,0,0,1,.6-.06.43.43,0,0,1,.06.6C123.58,26,121.79,28.15,117.76,28.15Z"/><path class="cls-2" d="M18,0a2.88,2.88,0,0,0-2.79,2.19A5.65,5.65,0,0,0,18,2.87a5.7,5.7,0,0,0,2.79-.68A2.89,2.89,0,0,0,18,0Z"/><path class="cls-3" d="M122.22,11.61l.11,0Z"/><path class="cls-3" d="M122.47,11.69l.11.05Z"/><path class="cls-3" d="M122.9,11.91l.26.17Z"/><path class="cls-3" d="M122.7,11.8l.11,0Z"/><path class="cls-3" d="M123.57,12.46l.12.15Z"/><path class="cls-3" d="M123.4,12.29l.13.13Z"/><path class="cls-3" d="M123.21,12.12l.14.12Z"/><path class="cls-3" d="M122,11.55l.11,0Z"/><path class="cls-3" d="M120.52,11.64l.11,0Z"/><path class="cls-3" d="M120.27,11.74l.11-.05Z"/><path class="cls-3" d="M120,11.85l.11,0Z"/><path class="cls-3" d="M121.7,11.51h0Z"/><path class="cls-3" d="M123.71,12.64a2.79,2.79,0,0,1,.5,1A2.79,2.79,0,0,0,123.71,12.64Z"/><path class="cls-3" d="M120.78,11.57l.11,0Z"/><path class="cls-3" d="M121.06,11.52h0Z"/><path class="cls-3" d="M120,11.91a.41.41,0,0,0-.11.07h0A.41.41,0,0,1,120,11.91Z"/><path class="cls-4" d="M122.07,11.57l.15,0Z"/><path class="cls-4" d="M120.38,11.69l.14,0Z"/><path class="cls-4" d="M122.33,11.64l.14,0Z"/><path class="cls-4" d="M122.58,11.74l.12.06Z"/><path class="cls-4" d="M121.15,11.51l.28,0Z"/><path class="cls-4" d="M120.89,11.55l.17,0Z"/><path class="cls-4" d="M120.63,11.61l.15,0Z"/><path class="cls-4" d="M122.81,11.85l.09.06Z"/><path class="cls-4" d="M121.79,11.52l.17,0Z"/><path class="cls-4" d="M121.43,11.49l.27,0Z"/><path class="cls-4" d="M120,11.91l.09-.06Z"/><path class="cls-4" d="M123.53,12.42l0,0Z"/><path class="cls-4" d="M123.69,12.61l0,0Z"/><polygon class="cls-4" points="124.21 13.68 124.21 13.68 124.21 13.68 124.21 13.68"/><path class="cls-4" d="M123.35,12.24l.05,0Z"/><path class="cls-4" d="M123.16,12.08l0,0Z"/><path class="cls-4" d="M120.15,11.8l.12-.06Z"/><path class="cls-5" d="M120.7,14.33c.23,0,.48,0,.73,0a5.64,5.64,0,0,0,2.78-.69h0a2.79,2.79,0,0,0-.5-1l0,0-.12-.15,0,0-.13-.13-.05,0-.14-.12,0,0-.26-.17-.09-.06-.11,0-.12-.06-.11-.05-.14,0-.11,0-.15,0-.11,0-.17,0h-.09l-.27,0-.28,0h-.09l-.17,0-.11,0-.15,0-.11,0-.14,0-.11.05-.12.06-.11,0-.09.06a.41.41,0,0,0-.11.07A16.94,16.94,0,0,1,120.7,14.33Z"/><path class="cls-4" d="M118.55,14.37a2.61,2.61,0,0,1,.09-.69h0a2.79,2.79,0,0,1,.5-1l0,0,.12-.15,0,0,.13-.13,0,0,.14-.12,0,0,.15-.1"/><path class="cls-4" d="M118.55,25.58a4.49,4.49,0,0,0,.69,1.07A3.4,3.4,0,0,0,118.55,25.58Z"/><path class="cls-4" d="M118.64,13.68a2.79,2.79,0,0,1,.5-1A2.79,2.79,0,0,0,118.64,13.68Z"/><path class="cls-6" d="M121.43,17c-.27-1-.51-1.91-.73-2.63a5.37,5.37,0,0,1-2.06-.65,2.61,2.61,0,0,0-.09.69V25.58c.28.28-.18,2.74,0,3.16C121.43,31.61,121.43,17,121.43,17Z"/><path class="cls-6" d="M119.24,26.65a4.49,4.49,0,0,1-.69-1.07v5.75C118.55,39.11,120.89,30.51,119.24,26.65Z"/><path class="cls-4" d="M119.5,12.24l.14-.12Z"/><path class="cls-4" d="M119.32,12.42l.13-.13Z"/><path class="cls-4" d="M119.16,12.61l.12-.15Z"/><path class="cls-4" d="M119.84,12h0l-.15.1Z"/><path class="cls-4" d="M119.45,12.29l0,0Z"/><path class="cls-4" d="M119.28,12.46l0,0Z"/><polygon class="cls-4" points="118.64 13.68 118.64 13.68 118.64 13.68 118.64 13.68"/><path class="cls-4" d="M119.14,12.64l0,0Z"/><path class="cls-4" d="M119.64,12.12l0,0Z"/><path class="cls-5" d="M119.69,12.08l0,0-.14.12,0,0-.13.13,0,0-.12.15,0,0a2.79,2.79,0,0,0-.5,1h0a5.37,5.37,0,0,0,2.06.65,16.94,16.94,0,0,0-.86-2.35Z"/><path class="cls-2" d="M120,12.43a3.39,3.39,0,0,1,2.31-.09,1.07,1.07,0,0,1,.51.3.39.39,0,0,1-.1.57,1.79,1.79,0,0,1-1.15.29,2.35,2.35,0,0,1-.59-.1c-.16-.07-.45-.17-.39-.45a1.07,1.07,0,0,1,1.12-.3.75.75,0,0,1,.28.11.19.19,0,0,1,0,.3.82.82,0,0,1-.59.12.47.47,0,0,1-.28-.11c-.11-.1.05-.22.13-.22a.48.48,0,0,1,.29,0,.25.25,0,0,1,.14.06c0,.05,0,.1-.06.11s.09-.07.05-.11a.25.25,0,0,0-.13-.05.66.66,0,0,0-.28,0c-.09,0-.19.11-.11.18a.57.57,0,0,0,.26.08A.68.68,0,0,0,122,13c.16-.14-.13-.26-.29-.29-.35-.06-.83,0-1,.26s.17.27.33.32a1.84,1.84,0,0,0,.57.09,1.69,1.69,0,0,0,1.08-.25.3.3,0,0,0,.1-.45,1.11,1.11,0,0,0-.48-.29A3.63,3.63,0,0,0,120,12.43Z"/><path class="cls-3" d="M26.54,9.35l.11,0Z"/><path class="cls-3" d="M26.79,9.43l.11.05Z"/><path class="cls-3" d="M27.22,9.65l.26.17Z"/><path class="cls-3" d="M27,9.54l.11.05Z"/><path class="cls-3" d="M27.89,10.2l.12.15Z"/><path class="cls-3" d="M27.72,10l.13.13Z"/><path class="cls-3" d="M27.53,9.86l.14.12Z"/><path class="cls-3" d="M26.29,9.29l.1,0Z"/><path class="cls-3" d="M24.84,9.38l.11,0Z"/><path class="cls-3" d="M24.59,9.48l.11-.05Z"/><path class="cls-3" d="M24.36,9.59l.11-.05Z"/><path class="cls-3" d="M26,9.25h0Z"/><path class="cls-3" d="M28,10.37a2.91,2.91,0,0,1,.5,1.05A2.75,2.75,0,0,0,28,10.37Z"/><path class="cls-3" d="M25.1,9.31l.11,0Z"/><path class="cls-3" d="M25.38,9.26h0Z"/><path class="cls-3" d="M24.27,9.65l-.11.06h0Z"/><path class="cls-4" d="M26.39,9.31l.15,0Z"/><path class="cls-4" d="M24.7,9.43l.14,0Z"/><path class="cls-4" d="M26.65,9.38l.14,0Z"/><path class="cls-4" d="M26.9,9.48l.12.06Z"/><path class="cls-7" d="M27.68,32.83a2.81,2.81,0,0,0-1.51.44,44.5,44.5,0,0,0,4.38,2.28A2.88,2.88,0,0,0,27.68,32.83Z"/><path class="cls-3" d="M36.3,37.64a2.87,2.87,0,0,0-5.11-1.8c1.51.67,3.2,1.33,5.1,2A1.09,1.09,0,0,0,36.3,37.64Z"/><path class="cls-8" d="M39.22,36.7a2.85,2.85,0,0,0-2.4,1.3c1.61.53,3.37,1,5.28,1.53A2.87,2.87,0,0,0,39.22,36.7Z"/><path class="cls-3" d="M50.27,44.09c-1.21-.2-2.38-.42-3.5-.65"/><path class="cls-3" d="M48.93,39.28a2.87,2.87,0,0,0-2.67,1.82c1.74.36,3.58.69,5.54,1A2.88,2.88,0,0,0,48.93,39.28Z"/><path class="cls-9" d="M54.67,40.56a2.87,2.87,0,0,0-2.2,1c1.53.22,3.13.43,4.8.61A2.88,2.88,0,0,0,54.67,40.56Z"/><path class="cls-3" d="M60.47,41.17a2.88,2.88,0,0,0-2.6,1.65c1.72.18,3.5.34,5.37.46A2.88,2.88,0,0,0,60.47,41.17Z"/><path class="cls-3" d="M116.25,38.1l-.71.37A3,3,0,0,0,116.25,38.1Z"/><path class="cls-3" d="M117.23,36.14A2.87,2.87,0,0,0,111.8,38l.06.19a2.73,2.73,0,0,1,.25.48A49.16,49.16,0,0,0,117.23,36.14Z"/><path class="cls-9" d="M111.46,38a2.87,2.87,0,0,0-5.19,2.26l0,.17c2-.61,3.74-1.26,5.35-1.93A3.26,3.26,0,0,1,111.46,38Z"/><path class="cls-3" d="M105.86,40.82a2.88,2.88,0,0,0-5.59,1.36c0,.08,0,.16.07.24,2-.45,3.83-1,5.54-1.47C105.87,40.91,105.87,40.86,105.86,40.82Z"/><path class="cls-8" d="M79.41,43.62a2.87,2.87,0,0,0-5.68,0h2C77,43.66,78.21,43.65,79.41,43.62Z"/><path class="cls-7" d="M83.65,41.17a2.87,2.87,0,0,0-2.84,2.44c2-.07,3.81-.18,5.61-.32A2.88,2.88,0,0,0,83.65,41.17Z"/><path class="cls-7" d="M85.49,45.63c-1.11.08-2.26.15-3.43.2"/><path class="cls-7" d="M89.44,40.56a2.88,2.88,0,0,0-2.77,2.1c1.86-.15,3.63-.33,5.32-.54A2.86,2.86,0,0,0,89.44,40.56Z"/><path class="cls-7" d="M95.28,39.72a2.86,2.86,0,0,0-2.87,2.87,4.38,4.38,0,0,0,0,.51q3-.39,5.67-.9A2.87,2.87,0,0,0,95.28,39.72Z"/><path class="cls-3" d="M116.25,38.1c8.63-4.54,10.92-9.36,10.92-9.36L127,25.86s-2.09,4.4-9.8,8.76a3,3,0,0,1,.16.45A2.9,2.9,0,0,1,116.25,38.1Z"/><path class="cls-3" d="M106.72,39l-.06,0a2.87,2.87,0,0,1-5.54,1.47q-1.44.33-3,.63a2.38,2.38,0,0,1,0,.39,2.87,2.87,0,0,1-5.7.51l-.46.06a2.76,2.76,0,0,1,.32,1.31,2.92,2.92,0,0,1-.48,1.6,83,83,0,0,0,17.59-4A2.88,2.88,0,0,1,106.72,39Z"/><path class="cls-3" d="M46.26,40.49c-1.46-.3-2.85-.62-4.16-1v0A2.87,2.87,0,0,1,40.73,42q2.79.77,6,1.43a2.82,2.82,0,0,1-.51-2.95Z"/><path class="cls-3" d="M31.19,35.84l-.64-.29c0,.05,0,.1,0,.16a2.86,2.86,0,0,1-1,2.18l1.11.53a3.33,3.33,0,0,1-.1-.78A2.83,2.83,0,0,1,31.19,35.84Z"/><path class="cls-3" d="M36.82,38l-.53-.18a2.87,2.87,0,0,1-1.44,2.32c.56.2,1.15.41,1.76.61a2.75,2.75,0,0,1-.26-1.18A2.82,2.82,0,0,1,36.82,38Z"/><path class="cls-3" d="M86.57,43.43a3.25,3.25,0,0,1,.1-.77l-.25,0a3.08,3.08,0,0,1,.1.75,2.84,2.84,0,0,1-1,2.2c.66,0,1.3-.09,1.94-.15A2.85,2.85,0,0,1,86.57,43.43Z"/><path class="cls-3" d="M52.47,41.59l-.67-.11v.07a2.87,2.87,0,0,1-1.53,2.54l1.69.27a2.84,2.84,0,0,1,.51-2.77Z"/><path class="cls-3" d="M73.09,43.48c0-.13,0-.26,0-.39-3.51,0-6.8-.16-9.88-.37a3.17,3.17,0,0,1,.1.76,2.87,2.87,0,0,1-.86,2.05c3.71.27,7.72.43,12.06.44A2.87,2.87,0,0,1,73.09,43.48Z"/><path class="cls-3" d="M80.77,43.43a3.13,3.13,0,0,1,0-.43l-2,.06a3,3,0,0,1,0,.42A2.88,2.88,0,0,1,77.41,46c1.6,0,3.15-.06,4.65-.13A2.88,2.88,0,0,1,80.77,43.43Z"/><path class="cls-3" d="M26.17,33.27a21.44,21.44,0,0,1-5.74-4.53l.14,2.87a18.74,18.74,0,0,0,4.28,3.61A2.86,2.86,0,0,1,26.17,33.27Z"/><path class="cls-3" d="M57.87,42.26l-.6-.06a3,3,0,0,1,.28,1.23,2.8,2.8,0,0,1-.49,1.6l1.07.12a2.84,2.84,0,0,1-.53-1.67A2.91,2.91,0,0,1,57.87,42.26Z"/><path class="cls-3" d="M115.28,38.55a2.89,2.89,0,0,1-3.09-1.22l.06.18a2.9,2.9,0,0,1-.86,2.82q2.27-.91,4.15-1.86Z"/><path class="cls-3" d="M30.56,35.71c0-.06,0-.11,0-.16a44.5,44.5,0,0,1-4.38-2.28,2.86,2.86,0,0,0-1.32,1.95,39.66,39.66,0,0,0,4.7,2.67A2.86,2.86,0,0,0,30.56,35.71Z"/><path class="cls-3" d="M36.29,37.82c-1.9-.65-3.59-1.31-5.1-2a2.83,2.83,0,0,0-.63,1.8,3.33,3.33,0,0,0,.1.78c1.26.57,2.65,1.15,4.19,1.72A2.87,2.87,0,0,0,36.29,37.82Z"/><path class="cls-3" d="M42.1,39.57v0c-1.91-.48-3.67-1-5.28-1.53a2.82,2.82,0,0,0-.47,1.57,2.75,2.75,0,0,0,.26,1.18c1.28.44,2.65.86,4.12,1.26A2.87,2.87,0,0,0,42.1,39.57Z"/><path class="cls-3" d="M51.8,41.55v-.07c-2-.3-3.8-.63-5.54-1a2.82,2.82,0,0,0,.51,2.95c1.12.23,2.29.45,3.5.65A2.87,2.87,0,0,0,51.8,41.55Z"/><path class="cls-3" d="M57.27,42.2c-1.67-.18-3.27-.39-4.8-.61A2.84,2.84,0,0,0,52,44.36c1.62.25,3.32.48,5.1.67a2.8,2.8,0,0,0,.49-1.6A3,3,0,0,0,57.27,42.2Z"/><path class="cls-3" d="M63.34,43.48a3.17,3.17,0,0,0-.1-.76c-1.87-.13-3.65-.28-5.37-.46a2.91,2.91,0,0,0-.27,1.22,2.84,2.84,0,0,0,.53,1.67c1.4.14,2.85.27,4.35.38A2.87,2.87,0,0,0,63.34,43.48Z"/><path class="cls-3" d="M112.19,37.33a2.89,2.89,0,0,0,3.09,1.22l.26-.08.71-.37a2.9,2.9,0,0,0,1.14-3,3,3,0,0,0-.16-.45,47.28,47.28,0,0,1-5.12,2.48A2.09,2.09,0,0,1,112.19,37.33Z"/><path class="cls-3" d="M112.25,37.51l-.06-.18-.12-.21c-1.62.67-3.4,1.32-5.35,1.92a2.88,2.88,0,0,0,2.7,2c.68-.25,1.34-.49,2-.74A2.9,2.9,0,0,0,112.25,37.51Z"/><path class="cls-3" d="M112.07,37.12l.12.21a2.09,2.09,0,0,0-.08-.23Z"/><path class="cls-3" d="M104.52,42.41a2.89,2.89,0,0,0,2.14-3.35c-1.71.53-3.55,1-5.54,1.47A2.88,2.88,0,0,0,104.52,42.41Z"/><path class="cls-3" d="M78.84,43.48a3,3,0,0,0,0-.42c-1.21,0-2.45,0-3.71,0h-2c0,.13,0,.26,0,.39A2.87,2.87,0,0,0,74.54,46h.7l2.17,0A2.88,2.88,0,0,0,78.84,43.48Z"/><path class="cls-3" d="M86.52,43.43a3.08,3.08,0,0,0-.1-.75c-1.8.14-3.66.25-5.61.32a3.13,3.13,0,0,0,0,.43,2.88,2.88,0,0,0,1.29,2.4c1.17,0,2.32-.12,3.43-.2A2.84,2.84,0,0,0,86.52,43.43Z"/><path class="cls-3" d="M92,42.12c-1.69.21-3.46.39-5.32.54a3.25,3.25,0,0,0-.1.77,2.85,2.85,0,0,0,.86,2c1.52-.13,3-.28,4.4-.45a2.92,2.92,0,0,0,.48-1.6A2.76,2.76,0,0,0,92,42.12Z"/><path class="cls-3" d="M95.28,44.42a2.86,2.86,0,0,0,2.87-2.87,2.38,2.38,0,0,0,0-.39c-1.78.33-3.67.64-5.67.9A2.89,2.89,0,0,0,95.28,44.42Z"/><path class="cls-4" d="M25.47,9.25l.28,0Z"/><path class="cls-4" d="M25.21,9.29l.17,0Z"/><path class="cls-4" d="M25,9.35l.15,0Z"/><path class="cls-4" d="M27.13,9.59l.09.06Z"/><path class="cls-4" d="M26.11,9.26l.18,0Z"/><path class="cls-4" d="M25.75,9.23l.27,0Z"/><path class="cls-4" d="M24.27,9.65l.09-.06Z"/><path class="cls-4" d="M27.85,10.16l0,0Z"/><path class="cls-4" d="M28,10.35l0,0Z"/><polygon class="cls-4" points="28.53 11.42 28.53 11.42 28.53 11.42 28.53 11.42"/><path class="cls-4" d="M27.67,10l0,0Z"/><path class="cls-4" d="M27.48,9.82l.05,0Z"/><path class="cls-4" d="M24.47,9.54l.12-.06Z"/><path class="cls-5" d="M25,12.06a5.71,5.71,0,0,0,.73,0,5.64,5.64,0,0,0,2.78-.69h0a2.91,2.91,0,0,0-.5-1.05l0,0-.12-.15,0,0L27.72,10l0,0-.14-.12-.05,0-.26-.17-.09-.06L27,9.54l-.12-.06-.11-.05-.14,0-.11,0-.15,0-.1,0-.18,0H26l-.27,0-.28,0h-.09l-.17,0-.11,0-.15,0-.11,0-.14,0-.11.05-.12.06-.11.05-.09.06-.11.07A17.2,17.2,0,0,1,25,12.06Z"/><path class="cls-4" d="M22.87,12.11a2.61,2.61,0,0,1,.09-.69h0a2.91,2.91,0,0,1,.5-1.05l0,0,.13-.15,0,0a1.59,1.59,0,0,1,.13-.13l.05,0L24,9.86a.1.1,0,0,0,.05,0l.15-.11"/><path class="cls-4" d="M23,11.42a2.91,2.91,0,0,1,.5-1.05A2.91,2.91,0,0,0,23,11.42Z"/><path class="cls-5" d="M25.75,14.7c-.27-1-.51-1.91-.73-2.64A5.2,5.2,0,0,1,23,11.42a2.61,2.61,0,0,0-.09.69V23.32c.28.28-.18,2.74,0,3.15C25.75,29.35,25.75,14.7,25.75,14.7Z"/><path class="cls-5" d="M23.56,24.38a4.2,4.2,0,0,1-.69-1.06v5.75C22.87,36.85,25.21,28.25,23.56,24.38Z"/><path class="cls-2" d="M18,5.21c-.27-1-.51-1.91-.73-2.64a5.42,5.42,0,0,1-2.06-.64,3.1,3.1,0,0,0-.08.69V13.83c.28.28-.18,2.74,0,3.15C18,19.86,18,5.21,18,5.21Z"/><path class="cls-2" d="M15.83,14.89a4.42,4.42,0,0,1-.68-1.06v5.75C15.15,27.36,17.49,18.76,15.83,14.89Z"/><path class="cls-4" d="M23.82,10,24,9.86Z"/><path class="cls-4" d="M23.64,10.16a1.59,1.59,0,0,1,.13-.13A1.59,1.59,0,0,0,23.64,10.16Z"/><path class="cls-4" d="M23.48,10.35l.13-.15Z"/><path class="cls-4" d="M24.16,9.72h0L24,9.82Z"/><path class="cls-4" d="M23.77,10l.05,0Z"/><path class="cls-4" d="M23.61,10.2l0,0Z"/><polygon class="cls-4" points="22.96 11.42 22.96 11.42 22.96 11.42 22.96 11.42"/><path class="cls-4" d="M23.46,10.37l0,0Z"/><path class="cls-4" d="M24,9.86l.05,0A.1.1,0,0,1,24,9.86Z"/><path class="cls-5" d="M24,9.82l-.05,0-.14.12-.05,0a1.59,1.59,0,0,0-.13.13l0,0-.13.15,0,0a2.91,2.91,0,0,0-.5,1.05h0a5.2,5.2,0,0,0,2.06.64,17.2,17.2,0,0,0-.86-2.34Z"/><path class="cls-2" d="M24.29,10.17a3.39,3.39,0,0,1,2.31-.1,1.17,1.17,0,0,1,.51.31A.39.39,0,0,1,27,11a1.86,1.86,0,0,1-1.15.29,2,2,0,0,1-.59-.11c-.16-.06-.45-.16-.39-.44a1.05,1.05,0,0,1,1.12-.3.75.75,0,0,1,.28.11c.1.05.15.23,0,.3a.8.8,0,0,1-.58.12.65.65,0,0,1-.29-.11c-.11-.1.05-.22.13-.22a.61.61,0,0,1,.3,0,.42.42,0,0,1,.13.07s0,.1-.06.11.09-.07.05-.11a.25.25,0,0,0-.13-.05.53.53,0,0,0-.28,0c-.09,0-.19.11-.11.17a.48.48,0,0,0,.26.09.72.72,0,0,0,.54-.12c.15-.14-.13-.27-.3-.29-.35-.06-.83,0-1,.26s.17.27.34.32a1.73,1.73,0,0,0,.56.09A1.69,1.69,0,0,0,27,10.88a.3.3,0,0,0,.1-.45,1.13,1.13,0,0,0-.47-.29A3.59,3.59,0,0,0,24.29,10.17Z"/><path class="cls-10" d="M131.48,1.83a3.39,3.39,0,0,1-2.31.1,1,1,0,0,1-.51-.31.38.38,0,0,1,.1-.56,1.86,1.86,0,0,1,1.15-.3,2,2,0,0,1,.59.11c.16.06.45.17.39.44a1.05,1.05,0,0,1-1.12.3.75.75,0,0,1-.28-.11.17.17,0,0,1,0-.29.76.76,0,0,1,.58-.13.65.65,0,0,1,.29.11c.11.11,0,.22-.13.23a.76.76,0,0,1-.3,0,.38.38,0,0,1-.13-.06c0-.05,0-.1.06-.12s-.09.07,0,.11a.26.26,0,0,0,.13.06.54.54,0,0,0,.28,0c.09,0,.19-.11.11-.17a.57.57,0,0,0-.26-.08.73.73,0,0,0-.53.11c-.16.15.12.27.29.29.35.07.83,0,1-.26s-.17-.27-.33-.32a2.19,2.19,0,0,0-.57-.09,1.76,1.76,0,0,0-1.08.26.29.29,0,0,0-.1.44,1,1,0,0,0,.48.29A3.56,3.56,0,0,0,131.48,1.83Z"/><path class="cls-10" d="M16.54,1.71a3.66,3.66,0,0,0,2.29,0,1.07,1.07,0,0,0,.47-.29A.3.3,0,0,0,19.21,1,1.79,1.79,0,0,0,18.12.74a2.13,2.13,0,0,0-.56.1c-.17.05-.39.16-.34.32s.67.32,1,.26c.16,0,.44-.15.29-.29A.7.7,0,0,0,18,1a.57.57,0,0,0-.27.08c-.08.07,0,.16.11.18a.7.7,0,0,0,.29,0,.25.25,0,0,0,.13-.06s0-.09-.05-.1.09.06.05.11a.2.2,0,0,1-.13.06.51.51,0,0,1-.3,0c-.08,0-.23-.12-.12-.22A.43.43,0,0,1,18,1a.79.79,0,0,1,.58.12.17.17,0,0,1,0,.29,1,1,0,0,1-.29.12,1.08,1.08,0,0,1-1.11-.3c-.06-.28.22-.39.39-.45a2.35,2.35,0,0,1,.59-.1,1.78,1.78,0,0,1,1.14.29.39.39,0,0,1,.11.57,1.1,1.1,0,0,1-.52.3A3.4,3.4,0,0,1,16.54,1.71Z"/><rect class="cls-1" x="14.12" y="9.66" width="7.73" height="1.32" rx="0.66" ry="0.66"/><path class="cls-11" d="M36.42,68.8s32.38,12.14,68.8,0V89H36.42Z"/><path class="cls-12" d="M124.21,13.68a5.64,5.64,0,0,1-2.78.69c-.25,0-.5,0-.73,0,.22.72.46,1.59.73,2.63,0,0,0,12-2.19,9.69,1.65,3.86-.69,12.46-.69,4.68V74.71a2.88,2.88,0,1,0,5.75,0V14.37A2.61,2.61,0,0,0,124.21,13.68Z"/><path class="cls-7" d="M130.32,0l.09,0Z"/><path class="cls-7" d="M129.68,0l.09,0Z"/><path class="cls-7" d="M131.52.42l.26.17Z"/><path class="cls-7" d="M131.09.2l.11,0Z"/><path class="cls-7" d="M131.32.3l.11.06Z"/><path class="cls-7" d="M130.84.12l.11,0Z"/><path class="cls-7" d="M129.14.15l.11,0Z"/><path class="cls-7" d="M129.4.08l.11,0Z"/><path class="cls-7" d="M127.78,1.12,127.9,1Z"/><path class="cls-7" d="M127.94.93l.13-.14Z"/><path class="cls-7" d="M127.26,2.19a2.83,2.83,0,0,1,.5-1A2.83,2.83,0,0,0,127.26,2.19Z"/><path class="cls-7" d="M128.31.59l.26-.17Z"/><path class="cls-7" d="M128.12.75l.14-.12Z"/><path class="cls-7" d="M128.66.36l.11-.06Z"/><path class="cls-7" d="M128.89.24l.11,0Z"/><path class="cls-7" d="M130.58.05l.11,0Z"/><path class="cls-7" d="M132.65,1.67a3.11,3.11,0,0,0-.32-.53,3.11,3.11,0,0,1,.32.53Z"/><path class="cls-7" d="M132,.79l.13.14Z"/><path class="cls-7" d="M132.89,2.46v11c-.22.28.14,2.73,0,3.15-2.25,2.87-2.25-11.77-2.25-11.77.15-.78.3-1.46.43-2a6.8,6.8,0,0,1-1,.08,5.65,5.65,0,0,1-2.79-.68,2.59,2.59,0,0,0-.09.68V63.22a2.88,2.88,0,0,0,5.75,0V2.87A2.83,2.83,0,0,0,132.89,2.46Z"/><path class="cls-7" d="M132.19,1l.12.15Z"/><path class="cls-7" d="M131.83.63l.14.12Z"/><path class="cls-2" d="M128.07.79l.05,0Z"/><path class="cls-2" d="M128.26.63l.05,0Z"/><path class="cls-2" d="M128.57.42l.09-.06Z"/><path class="cls-2" d="M131.2.24l.12.06Z"/><path class="cls-2" d="M129,.2l.14-.05Z"/><path class="cls-2" d="M132,.75l.05,0Z"/><path class="cls-2" d="M131.78.59l.05,0Z"/><polygon class="cls-2" points="127.26 2.19 127.26 2.19 127.26 2.19 127.26 2.19"/><path class="cls-2" d="M127.76,1.14l0,0Z"/><path class="cls-2" d="M127.9,1l0,0Z"/><path class="cls-2" d="M128.77.3l.12-.06Z"/><path class="cls-2" d="M130.05,0h0Z"/><path class="cls-2" d="M129.77,0h0Z"/><path class="cls-2" d="M131.43.36l.09.06Z"/><path class="cls-2" d="M132.15.93l0,0Z"/><path class="cls-2" d="M130.69.08l.15,0Z"/><path class="cls-2" d="M130.41,0l.17,0Z"/><path class="cls-2" d="M131,.15l.14.05Z"/><path class="cls-2" d="M129.25.12l.15,0Z"/><path class="cls-2" d="M129.51.05l.17,0Z"/><path class="cls-2" d="M132.31,1.12l0,0Z"/><path class="cls-2" d="M131.07,2.79c.05-.21.1-.4.14-.59a3.83,3.83,0,0,0,1.44-.53,3.11,3.11,0,0,0-.32-.53l0,0L132.19,1l0,0L132,.79l-.05,0-.14-.12-.05,0-.26-.17-.09-.06L131.32.3,131.2.24l-.11,0L131,.15l-.11,0-.15,0-.11,0-.17,0-.09,0h-.55l-.09,0-.17,0-.11,0-.15,0-.11,0L129,.2l-.11,0-.12.06-.11.06-.09.06-.26.17-.05,0-.14.12-.05,0-.13.14,0,0-.12.15,0,0a2.83,2.83,0,0,0-.5,1.05h0a5.65,5.65,0,0,0,2.79.68A6.8,6.8,0,0,0,131.07,2.79Z"/><path class="cls-2" d="M132.83,2.19a2.28,2.28,0,0,0-.18-.52h0A2.9,2.9,0,0,1,132.83,2.19Z"/><path class="cls-2" d="M131.07,2.79c-.13.59-.28,1.27-.43,2.05,0,0,0,14.64,2.25,11.77.14-.42-.22-2.87,0-3.15v-11l-.06-.27A5.45,5.45,0,0,1,131.07,2.79Z"/><polygon class="cls-2" points="132.83 2.19 132.83 2.19 132.83 2.19 132.83 2.19"/><path class="cls-2" d="M132.83,2.19a2.9,2.9,0,0,0-.18-.52,3.83,3.83,0,0,1-1.44.53c0,.19-.09.38-.14.59a5.45,5.45,0,0,0,1.76-.6Z"/><path class="cls-2" d="M132.35,15.15a5,5,0,0,0,.54-1.06v5.75C132.89,27.62,131.06,19,132.35,15.15Z"/><path class="cls-12" d="M28.53,11.42a5.64,5.64,0,0,1-2.78.69,5.71,5.71,0,0,1-.73,0c.22.73.46,1.6.73,2.64,0,0,0,12-2.19,9.68,1.65,3.87-.69,12.47-.69,4.69V72.45a2.88,2.88,0,0,0,5.75,0V12.11A2.61,2.61,0,0,0,28.53,11.42Z"/><path class="cls-7" d="M15.19,2.19a3.09,3.09,0,0,0-.09.68V63.22a2.88,2.88,0,0,0,5.75,0V2.87a3.08,3.08,0,0,0-.08-.68A5.7,5.7,0,0,1,18,2.87,5.65,5.65,0,0,1,15.19,2.19Z"/><polyline class="cls-13" points="93.08 81.89 91.98 80.94 90.87 81.89 89.76 80.94 88.65 81.89 87.54 80.94 86.44 81.89 85.33 80.94 84.22 81.89 83.11 80.94 82 81.89 80.9 80.94 79.79 81.89 78.68 80.94 77.57 81.89 76.46 80.94 75.36 81.89 74.25 80.94 73.14 81.89 72.03 80.94 70.92 81.89 69.82 80.94 68.71 81.89 67.6 80.94 66.49 81.89 65.38 80.94 64.28 81.89 63.17 80.94 62.06 81.89 60.95 80.94 59.84 81.89 58.74 80.94 57.63 81.89 56.52 80.94 55.41 81.89 54.3 80.94 53.2 81.89 52.09 80.94 50.98 81.89 49.87 80.94 48.76 81.89"/><rect class="cls-13" x="48.76" y="81.89" width="44.32" height="7.14"/><path class="cls-14" d="M0,60.71s29.19-1,44.52,12.59C48.56,76.89,56.66,89,56.66,89H0Z"/><path class="cls-14" d="M137.6,60.72s-29.19-1-44.52,12.59c-4,3.6-12.14,15.74-12.14,15.74H137.6Z"/><path class="cls-1" d="M68.31,32.21a58.16,58.16,0,0,1-14.7-1.73c-27-7-35.62-18.25-36-18.73a.43.43,0,0,1,.09-.6.42.42,0,0,1,.6.09c.09.11,8.88,11.46,35.51,18.41,11.12,2.91,23.06,1.52,33.37,0,27.93-4.14,42.4-18.32,42.54-18.46a.43.43,0,1,1,.61.61c-.15.14-14.8,14.51-43,18.69A128.88,128.88,0,0,1,68.31,32.21Z"/><path class="cls-1" d="M73.07,26.29A107.62,107.62,0,0,1,56.39,25c-15.63-2.44-25.32-7.46-30.7-11.25-5.87-4.13-8-7.64-8.08-7.78a.43.43,0,0,1,.15-.59.43.43,0,0,1,.59.15c.08.14,8.67,14,38.17,18.63a110.06,110.06,0,0,0,33.41,0c20.45-3.08,30.16-7.95,34.71-11.49,4.88-3.8,5-6.89,5-6.93a.42.42,0,0,1,.43-.42h0a.42.42,0,0,1,.42.43C130.47,6.28,130,19,90.05,25A114.7,114.7,0,0,1,73.07,26.29Z"/><rect class="cls-1" x="14.12" y="6.41" width="7.73" height="1.32" rx="0.66" ry="0.66"/><rect class="cls-1" x="14.12" y="4.47" width="7.73" height="1.32" rx="0.66" ry="0.66"/><rect class="cls-1" x="126.18" y="6.41" width="7.73" height="1.32" rx="0.66" ry="0.66"/><rect class="cls-1" x="126.18" y="4.47" width="7.73" height="1.32" rx="0.66" ry="0.66"/><rect class="cls-1" x="14.12" y="9.66" width="7.73" height="1.93" rx="0.66" ry="0.66"/><rect class="cls-1" x="126.18" y="11.59" width="7.73" height="1.93" rx="0.66" ry="0.66"/><rect class="cls-1" x="106.24" y="19.92" width="0.71" height="1.93" rx="0.36" ry="0.36" transform="translate(213.2 41.78) rotate(-180)"/><rect class="cls-1" x="105.27" y="20.35" width="0.71" height="1.93" rx="0.36" ry="0.36" transform="translate(211.26 42.63) rotate(180)"/><circle class="cls-1" cx="107.8" cy="20.28" r="0.97"/><rect class="cls-1" x="42.39" y="20.21" width="0.71" height="1.93" rx="0.36" ry="0.36"/><rect class="cls-1" x="43.36" y="20.64" width="0.71" height="1.93" rx="0.36" ry="0.36"/><circle class="cls-1" cx="41.54" cy="20.75" r="0.97"/></g></g></g></svg>