<svg xmlns="http://www.w3.org/2000/svg" xmlns:xlink="http://www.w3.org/1999/xlink" viewBox="0 0 39.56 112.71"><defs><style>.cls-1{stroke:#000;stroke-linecap:round;stroke-width:2.08px;fill:url(#linear-gradient);}.cls-1,.cls-10,.cls-11,.cls-12,.cls-13,.cls-14,.cls-15,.cls-16,.cls-17,.cls-18,.cls-6,.cls-7,.cls-8,.cls-9{stroke-miterlimit:10;}.cls-2{fill:url(#linear-gradient-2);}.cls-3{fill:url(#linear-gradient-3);}.cls-4{fill:#e30701;}.cls-5{fill:#aa0501;}.cls-10,.cls-11,.cls-12,.cls-13,.cls-14,.cls-15,.cls-16,.cls-17,.cls-18,.cls-6,.cls-7,.cls-8,.cls-9{fill:none;}.cls-10,.cls-11,.cls-6,.cls-7,.cls-8,.cls-9{stroke-width:0.92px;}.cls-6{stroke:url(#linear-gradient-4);}.cls-7{stroke:url(#linear-gradient-5);}.cls-8{stroke:url(#linear-gradient-6);}.cls-9{stroke:url(#linear-gradient-7);}.cls-10{stroke:url(#linear-gradient-8);}.cls-11{stroke:url(#linear-gradient-9);}.cls-12,.cls-13,.cls-14,.cls-15,.cls-16,.cls-17,.cls-18{stroke-width:1.84px;}.cls-12{stroke:url(#linear-gradient-10);}.cls-13{stroke:url(#linear-gradient-11);}.cls-14{stroke:url(#linear-gradient-12);}.cls-15{stroke:url(#linear-gradient-13);}.cls-16{stroke:url(#linear-gradient-14);}.cls-17{stroke:url(#linear-gradient-15);}.cls-18{stroke:url(#radial-gradient);}.cls-19{fill:url(#linear-gradient-16);}.cls-20{fill:url(#linear-gradient-17);}.cls-21{fill:url(#linear-gradient-18);}.cls-22{fill:url(#linear-gradient-19);}.cls-23{fill:url(#linear-gradient-20);}.cls-24{fill:url(#linear-gradient-21);}.cls-25{fill:url(#linear-gradient-22);}.cls-26{fill:url(#linear-gradient-23);}</style><linearGradient id="linear-gradient" x1="10.05" y1="69.54" x2="59.11" y2="20.48" gradientTransform="translate(-7.37 -1.29) rotate(9.21)" gradientUnits="userSpaceOnUse"><stop offset="0.02" stop-color="#630100"/><stop offset="0.16" stop-color="#870300"/><stop offset="0.31" stop-color="#a80401"/><stop offset="0.47" stop-color="#c20501"/><stop offset="0.64" stop-color="#d40601"/><stop offset="0.81" stop-color="#df0701"/><stop offset="1" stop-color="#e30701"/></linearGradient><linearGradient id="linear-gradient-2" x1="33.9" y1="77.71" x2="33.9" y2="67.57" gradientTransform="translate(-7.37 -1.29) rotate(9.21)" gradientUnits="userSpaceOnUse"><stop offset="0.02" stop-color="#fae498"/><stop offset="0.51" stop-color="#ffc90f"/><stop offset="1" stop-color="#bc712e"/></linearGradient><linearGradient id="linear-gradient-3" x1="32.43" y1="84.48" x2="35.36" y2="81.55" xlink:href="#linear-gradient"/><linearGradient id="linear-gradient-4" x1="17.3" y1="18.69" x2="50.5" y2="18.69" gradientTransform="translate(-7.37 -1.29) rotate(9.21)" gradientUnits="userSpaceOnUse"><stop offset="0" stop-color="#bc712e"/><stop offset="0.26" stop-color="#ffc90f"/><stop offset="0.49" stop-color="#fae498"/><stop offset="0.73" stop-color="#ffc90f"/><stop offset="1" stop-color="#bc712e"/></linearGradient><linearGradient id="linear-gradient-5" x1="17.3" y1="26.99" x2="50.5" y2="26.99" xlink:href="#linear-gradient-4"/><linearGradient id="linear-gradient-6" x1="17.3" y1="35.29" x2="50.5" y2="35.29" xlink:href="#linear-gradient-4"/><linearGradient id="linear-gradient-7" x1="17.3" y1="43.59" x2="50.5" y2="43.59" xlink:href="#linear-gradient-4"/><linearGradient id="linear-gradient-8" x1="17.3" y1="51.89" x2="50.5" y2="51.89" xlink:href="#linear-gradient-4"/><linearGradient id="linear-gradient-9" x1="17.3" y1="60.19" x2="50.5" y2="60.19" xlink:href="#linear-gradient-4"/><linearGradient id="linear-gradient-10" x1="32.01" y1="32.01" x2="36.22" y2="37.03" gradientTransform="translate(-7.37 -1.29) rotate(9.21)" gradientUnits="userSpaceOnUse"><stop offset="0" stop-color="#ffc90f"/><stop offset="0.98" stop-color="#fae498"/></linearGradient><linearGradient id="linear-gradient-11" x1="1999.96" y1="-198.26" x2="1998.27" y2="-191.94" gradientTransform="matrix(0.63, -0.77, 0.77, 0.63, -1096.52, 1712.09)" xlink:href="#linear-gradient-10"/><linearGradient id="linear-gradient-12" x1="3178.84" y1="1388.99" x2="3182.11" y2="1394.67" gradientTransform="translate(-157.26 3512.02) rotate(-110.79)" xlink:href="#linear-gradient-10"/><linearGradient id="linear-gradient-13" x1="2396.83" y1="3205.11" x2="2396.83" y2="3211.66" gradientTransform="translate(1871.15 3598.56) rotate(-170.79)" xlink:href="#linear-gradient-10"/><linearGradient id="linear-gradient-14" x1="432.68" y1="3434.84" x2="430.98" y2="3441.17" gradientTransform="matrix(-0.63, 0.77, -0.77, -0.63, 2960.3, 1885.18)" xlink:href="#linear-gradient-10"/><linearGradient id="linear-gradient-15" x1="-747.89" y1="1848.24" x2="-751.17" y2="1853.91" gradientTransform="translate(2021.04 85.25) rotate(69.21)" xlink:href="#linear-gradient-10"/><radialGradient id="radial-gradient" cx="33.9" cy="39.44" r="3.27" gradientTransform="translate(-7.37 -1.29) rotate(9.21)" gradientUnits="userSpaceOnUse"><stop offset="0" stop-color="#ffc90f"/><stop offset="0.21" stop-color="#ffca12"/><stop offset="0.38" stop-color="#ffcc1c"/><stop offset="0.54" stop-color="#fecf2d"/><stop offset="0.68" stop-color="#fdd344"/><stop offset="0.82" stop-color="#fcd962"/><stop offset="0.95" stop-color="#fbe187"/><stop offset="1" stop-color="#fae498"/></radialGradient><linearGradient id="linear-gradient-16" x1="32.65" y1="108.74" x2="35.15" y2="106.24" gradientTransform="translate(-7.37 -1.29) rotate(9.21)" gradientUnits="userSpaceOnUse"><stop offset="0.02" stop-color="#fae498"/><stop offset="0.43" stop-color="#fae496"/><stop offset="0.58" stop-color="#fae28f"/><stop offset="0.69" stop-color="#fbe084"/><stop offset="0.77" stop-color="#fbdd73"/><stop offset="0.85" stop-color="#fcd85d"/><stop offset="0.91" stop-color="#fdd341"/><stop offset="0.97" stop-color="#fecd22"/><stop offset="1" stop-color="#ffc90f"/></linearGradient><linearGradient id="linear-gradient-17" x1="32.06" y1="108.03" x2="34.56" y2="105.53" xlink:href="#linear-gradient-16"/><linearGradient id="linear-gradient-18" x1="31.48" y1="107.32" x2="33.98" y2="104.82" xlink:href="#linear-gradient-16"/><linearGradient id="linear-gradient-19" x1="30.9" y1="106.61" x2="33.4" y2="104.11" xlink:href="#linear-gradient-16"/><linearGradient id="linear-gradient-20" x1="2339.01" y1="108.03" x2="2341.51" y2="105.53" gradientTransform="matrix(-0.99, -0.16, -0.16, 0.99, 2336.91, 378.86)" xlink:href="#linear-gradient-16"/><linearGradient id="linear-gradient-21" x1="2338.42" y1="107.32" x2="2340.92" y2="104.82" gradientTransform="matrix(-0.99, -0.16, -0.16, 0.99, 2336.91, 378.86)" xlink:href="#linear-gradient-16"/><linearGradient id="linear-gradient-22" x1="2337.84" y1="106.61" x2="2340.34" y2="104.11" gradientTransform="matrix(-0.99, -0.16, -0.16, 0.99, 2336.91, 378.86)" xlink:href="#linear-gradient-16"/><linearGradient id="linear-gradient-23" x1="29.32" y1="103.78" x2="38.48" y2="94.62" xlink:href="#linear-gradient-2"/></defs><title>Chinatown</title><g id="Layer_2" data-name="Layer 2"><g id="Objects"><g id="Chinatown"><line class="cls-1" x1="27.99" y1="1.04" x2="11.15" y2="96.32"/><path class="cls-2" d="M22.36,79.36c-.26.22-1.59-1.1-1.95-.92s0,2-.34,2.12-1.3-1.56-1.78-1.48-.72,2-1.2,2S16,79.23,15.48,79.2s-1.28,1.74-1.82,1.65-.7-2-1.21-2.14S10.82,80.15,10.33,80s-.11-2-.51-2.25S8,78.8,7.66,78.55s.59-1.88.34-2.12-1.95.55-2.13.26,2.39-1.33,3.68-2.46,1.81-3.58,2.3-3.6,1.05,1.82,1.61,1.85,1.27-1.74,1.82-1.65.7,2,1.21,2.14,1.62-1.44,2.11-1.25.25,2.79,1,4.15S22.62,79.14,22.36,79.36Z"/><rect x="16.13" y="10.24" width="16.6" height="8.3" rx="1.12" ry="1.12" transform="translate(2.62 -3.73) rotate(9.21)"/><rect x="6.91" y="67.14" width="16.6" height="8.3" rx="1.12" ry="1.12" transform="translate(11.61 -1.51) rotate(9.21)"/><circle class="cls-3" cx="12.81" cy="86.08" r="2.08"/><path class="cls-4" d="M20.32,56.17a19.52,19.52,0,0,0,13.23,5.71l5.71-35.25a9.73,9.73,0,0,0-8-11.14l-13.61-2.2a9.72,9.72,0,0,0-4.63.38c1.11,1.49,1.55,4,.94,7.83C13.94,21.5,10,46.08,20.32,56.17Z"/><path class="cls-5" d="M6.49,21.31.3,59.5a9.74,9.74,0,0,0,8,11.14l13.61,2.21a9.73,9.73,0,0,0,11.13-8l.48-2.94a19.52,19.52,0,0,1-13.23-5.71C10,46.08,13.94,21.5,13.94,21.5c.61-3.78.17-6.34-.94-7.83A9.76,9.76,0,0,0,6.49,21.31Z"/><line class="cls-6" x1="6.72" y1="19.93" x2="39.49" y2="25.24"/><line class="cls-7" x1="5.39" y1="28.12" x2="38.16" y2="33.43"/><line class="cls-8" x1="4.06" y1="36.31" x2="36.83" y2="41.63"/><line class="cls-9" x1="2.73" y1="44.51" x2="35.5" y2="49.82"/><line class="cls-10" x1="1.4" y1="52.7" x2="34.18" y2="58.01"/><line class="cls-11" x1="0.07" y1="60.89" x2="32.85" y2="66.21"/><circle class="cls-12" cx="20.78" cy="38.25" r="2.35"/><circle class="cls-13" cx="16.11" cy="39.79" r="2.35"/><circle class="cls-14" cx="15.11" cy="44.61" r="2.35"/><circle class="cls-15" cx="18.78" cy="47.89" r="2.35"/><circle class="cls-16" cx="23.46" cy="46.34" r="2.35"/><circle class="cls-17" cx="24.45" cy="41.52" r="2.35"/><circle class="cls-18" cx="19.78" cy="43.07" r="2.35"/><path class="cls-19" d="M8.49,112.71h0c-.05,0,.24-2.48.24-2.48l.3-1.85a1.68,1.68,0,0,1,.11-.42c0-.11.1-.17.15-.17h0s.07.09.08.2a2.32,2.32,0,0,1,0,.44l-.3,1.85S8.53,112.72,8.49,112.71Z"/><path class="cls-20" d="M8,111.92H8s.24-2.49.24-2.49l.29-1.84a1.87,1.87,0,0,1,.12-.43c.05-.1.1-.17.14-.16h0s.08.08.09.2a1.8,1.8,0,0,1,0,.44l-.3,1.84S8.07,111.92,8,111.92Z"/><path class="cls-21" d="M7.56,111.12h0s.24-2.48.24-2.48l.3-1.85a1.77,1.77,0,0,1,.12-.42c0-.11.1-.17.14-.16h0c.05,0,.07.08.08.19a1.42,1.42,0,0,1,0,.45l-.3,1.84S7.61,111.13,7.56,111.12Z"/><path class="cls-22" d="M7.1,110.33h0s.24-2.49.24-2.49l.3-1.84a1.87,1.87,0,0,1,.12-.43c0-.1.1-.16.14-.16h0s.07.08.08.2a1.71,1.71,0,0,1,0,.44l-.3,1.85S7.15,110.34,7.1,110.33Z"/><path class="cls-23" d="M9.34,112.13h0s.56-2.43.56-2.43l.3-1.85a2.32,2.32,0,0,0,0-.44c0-.11,0-.19-.08-.2h0c-.05,0-.1.06-.14.16a1.87,1.87,0,0,0-.12.43l-.3,1.84S9.3,112.12,9.34,112.13Z"/><path class="cls-24" d="M10,111.52h0s.56-2.43.56-2.43l.3-1.84a2.42,2.42,0,0,0,0-.45c0-.11,0-.19-.08-.19h0c-.05,0-.1,0-.15.16a1.81,1.81,0,0,0-.11.42l-.3,1.85S10,111.51,10,111.52Z"/><path class="cls-25" d="M10.72,110.91h0s.56-2.43.56-2.43l.3-1.84a2.35,2.35,0,0,0,0-.44c0-.12,0-.19-.08-.2h0s-.1,0-.15.16a1.91,1.91,0,0,0-.11.43l-.3,1.84S10.67,110.91,10.72,110.91Z"/><path class="cls-26" d="M8.89,110.25h0a2,2,0,0,1-1.35-.83,2.11,2.11,0,0,1-.37-1.55l1-6.14,1-6.15A2.12,2.12,0,0,1,10,94.23a2.07,2.07,0,0,1,1.54-.37h0a2.09,2.09,0,0,1,1.72,2.39l-1,6.14-1,6.15a2.06,2.06,0,0,1-.84,1.34A2,2,0,0,1,8.89,110.25Z"/></g></g></g></svg>