<svg xmlns="http://www.w3.org/2000/svg" viewBox="0 0 78.21 73.45"><defs><style>.cls-1{fill:#fff;}.cls-2{fill:#d2e4de;}.cls-3{fill:#d7f2e9;}</style></defs><title>concha</title><g id="Layer_2" data-name="Layer 2"><g id="OBJECTS"><path class="cls-1" d="M65.26,68.37a62.75,62.75,0,0,0-27,3.92,12.85,12.85,0,0,1-4.52,1.16A3.81,3.81,0,0,1,30,71.1c-.68-2.23,1.58-4.47,1.22-6.78-.28-1.73-1.91-2.87-3.4-3.8C20.45,55.85,12.3,51.18,5.75,45.36a16.82,16.82,0,0,1-4.19-5.59c-.75-1.65-1.79-4.22-1.51-6a7.86,7.86,0,0,0,.24-2.59c-.07-.41-.23-.81-.28-1.22a2.28,2.28,0,0,1,1.16-2.21A2.11,2.11,0,0,0,2,27.18a1.45,1.45,0,0,0,.1-1c-.18-1.18-.26-2.61.69-3.33.29-.21.67-.36.82-.68a1.63,1.63,0,0,0,0-1c-.17-.91,0-2.5,1-3,.37-.19.84-.16,1.16-.43.6-.5.23-1.64.86-2.11.36-.27.89-.16,1.3-.36.91-.45.69-2,1.61-2.46.52-.24,1.15,0,1.7-.14,1.37-.46.81-3.14,2.22-3.45.33-.07.67,0,1-.05,1.06-.25,1.12-2,2.16-2.32.66-.2,1.4.31,2.06.09s.95-1.23,1.65-1.51c.5-.2,1.08,0,1.6-.1C23.21,5,23.57,2.69,25,2.79c.43,0,.84.32,1.27.25.73-.12.95-1.16,1.64-1.42.95-.36,1.81,1,2.83.87S32.12,1,33.09.87,35,2,36,1.76c.87-.19,1.26-1.39,2.14-1.53S40,1.43,41,1.22c.81-.16,1.28-1.31,2.1-1.21.62.07.94.81,1.52,1,.81.28,1.62-.58,2.47-.5,1.07.1,1.63,1.57,2.7,1.62a9.73,9.73,0,0,0,1.38-.3c1.48-.16,2.43,1.51,3.92,1.44.92,0,1.36-.57,2.31-.28s1.4,1.22,2.28,1.46,1.56-.28,2.32-.1c1,.24,1.42,1.5,2.38,1.85.65.25,1.39,0,2,.22,1.78.56,1.87,3.76,3.73,3.86a9.48,9.48,0,0,1,1.06,0c.9.16,1.19,1.27,1.28,2.17s.32,2,1.2,2.24c.45.12.95-.06,1.38.1s.79.79,1,1.32a33.23,33.23,0,0,1,1.85,5.67,39.78,39.78,0,0,1,.32,6.45C77.64,36.5,73.32,44,69.2,51c-1.82,3.1-5.82,7.73-3.24,11.47.71,1,3.66,3.08,3.34,4.5S66.47,68.46,65.26,68.37Z"/><path class="cls-2" d="M38.07,5.43c4.5,3.51,6.1,11.23,6.74,16.46.66,5.46,1.7,11.08,1.94,16.6.08,2,.27,4.62.4,6.65.36,5.63.57,10.94.57,16.77a72.63,72.63,0,0,0-7-23.36C37,31,31.62,25.17,26.27,18.71c-2.48-3-5.3-7.52-3.08-11.39a6.6,6.6,0,0,1,3.4-2.7,17.2,17.2,0,0,1,5.94-1A8.74,8.74,0,0,1,38.07,5.43Z"/><path class="cls-2" d="M37.38,37.47C33.37,30,26.8,19.31,18.53,16c-2.59-1-5.94-1-7.73,1.09-1.53,1.81-1.36,4.6-.24,6.69a17.8,17.8,0,0,0,4.86,5.12c6.78,5.49,14.52,10.6,20.21,17.22a58.4,58.4,0,0,1,10,16.43,22.3,22.3,0,0,0-.74-5c-.5-2.26-1.22-4.48-1.88-6.7A71.64,71.64,0,0,0,37.38,37.47Z"/><path class="cls-2" d="M23.83,39.84a69.84,69.84,0,0,0-7.44-6.74C13,30.49,7.16,27.63,4.13,32.26a5.7,5.7,0,0,0-.56,4.57c1,3.52,4.25,5.81,7.3,7.8C18.93,49.87,25.22,53,33.27,58.2c1.4.91,5.73,3.28,8.2,4.57C40.4,53.64,29.81,46,23.83,39.84Z"/><path class="cls-2" d="M57.66,13.42c.63,3.33.33,7,.17,10.13-.44,8.74-2.88,17.05-4.6,25.58a74.52,74.52,0,0,1-3.5,11.61,60.94,60.94,0,0,0,.34-18.09c-1.4-10.81-2.82-21.36-5.22-32-.38-1.67-.38-2.88.74-4.23,3.07-3.72,8.07-1,10.26,2.31A12.18,12.18,0,0,1,57.66,13.42Z"/><path class="cls-2" d="M68.43,38.08c-.43,1.26-.91,2.5-1.42,3.71-1.65,3.91-3,5.64-5.41,9.13-1.21,1.76-2.26,3.26-3.56,4.95-1,1.32-3.29,3.76-3.81,5.31,5.63-16.67,7.22-32.85,6.42-50.42a2.63,2.63,0,0,1,.59-2.24c2.74-2.29,7.39,8.24,8,10C71.51,25,70.58,31.78,68.43,38.08Z"/><path class="cls-2" d="M73.34,30c-2.12,1.42-2.61,6.85-3.23,9.12A52.35,52.35,0,0,1,58.84,60c3.55-1.39,4.88-1.68,6.59-3.67a53.68,53.68,0,0,0,7.31-11c2.19-4.41,4.36-7.8,3.58-12.81C76,30.75,75.57,28.48,73.34,30Z"/><circle class="cls-3" cx="30.9" cy="9.79" r="2.26"/><circle class="cls-3" cx="15.38" cy="21.11" r="2.26"/><circle class="cls-3" cx="9.68" cy="35.86" r="2.26"/><circle class="cls-3" cx="51.33" cy="11.31" r="2.26"/><circle class="cls-3" cx="66.46" cy="21.11" r="2.26"/></g></g></svg>