<svg xmlns="http://www.w3.org/2000/svg" viewBox="0 0 68.27 87.75"><defs><style>.cls-1{fill:#df5342;}.cls-2{fill:#eb7d66;}.cls-3{fill:#f79c8d;}</style></defs><title>coral</title><g id="Layer_2" data-name="Layer 2"><g id="OBJECTS"><path class="cls-1" d="M.3,67.79A127.31,127.31,0,0,1,2.78,53.65c.69-3.18,1.62-6.36,1.55-9.59-.06-2.5-.85-5.52.58-7.79,1-1.58,2.9-2.29,4.7-2.81C20.5,30.33,32.4,31.67,42.87,35.7c8.06,3.1,22.95,10.91,17.63,21.83-1.81,3.71-7.48,6.45-11,8.24C36,72.64,20.36,72,9.48,83.82A21.26,21.26,0,0,1,6.12,87.1C1.56,90.26.49,81,.23,78.37A53.38,53.38,0,0,1,.3,67.79Z"/><path class="cls-2" d="M47.84,55.34a46.67,46.67,0,0,0,8.48,2.91c3.2.61,5,.62,5.35-2.92,2.18-20.87-30.53-25.4-45.21-23.92-2.37.24-4.71.7-7,1.16a9.15,9.15,0,0,0-4.2,1.59,3.26,3.26,0,0,0-.93,4.09,4.37,4.37,0,0,0,1.34,1.19C18.27,47.76,33.8,49.8,47.84,55.34Z"/><path class="cls-1" d="M37.91,43.56l-3.7-.4c-3-.32-6.36-1.4-8.35-3.85C23.54,36.44,24,32,24.23,28.53c.21-4,2-7.61,6.27-8.13,2.75-.33,5.5.5,8.16,1.33,9.64,3,19,6.71,28.4,10.2a.71.71,0,0,1,.43.3.74.74,0,0,1-.09.61c-1.72,3.44-5.05,5.72-8.25,7.85C53.15,44.69,45.08,44.29,37.91,43.56Z"/><path class="cls-2" d="M66.41,33.43a5.66,5.66,0,0,1-1.93.24,110.25,110.25,0,0,1-19.6-2c-6.23-1.23-12.57-2.37-17.34-6.91-4-3.82,5-5.76,7.14-6.28a43.07,43.07,0,0,1,15.67-1c7.22.92,15.88,5.48,17.21,13.4a2.73,2.73,0,0,1-.12,1.7A1.87,1.87,0,0,1,66.41,33.43Z"/><path class="cls-1" d="M48.11,25.47a18.46,18.46,0,0,1-4.81-1.64c-3.82-2-4.24-4.94-4-8.9.15-2.66,1.32-5.09,4.22-5.44a13.47,13.47,0,0,1,5.48.89c5.38,1.67,10.65,3.67,15.93,5.64.87.32,3,.66,3.08,1.63.05.66-1.85,2.25-2.28,2.7a18.6,18.6,0,0,1-5.6,4.34,14.3,14.3,0,0,1-3.9,1A24.84,24.84,0,0,1,48.11,25.47Z"/><path class="cls-2" d="M67.45,18.2a3.69,3.69,0,0,1-1.29.16A72.84,72.84,0,0,1,53.07,17c-4.16-.82-8.39-1.58-11.58-4.62-2.68-2.54,3.36-3.84,4.77-4.19a28.8,28.8,0,0,1,10.46-.65c4.83.61,10.61,3.66,11.5,9a1.74,1.74,0,0,1-.08,1.13A1.21,1.21,0,0,1,67.45,18.2Z"/><path class="cls-1" d="M57,12.28l-1.34-.15a4.42,4.42,0,0,1-3-1.38c-.84-1-.66-2.63-.59-3.86.08-1.43.71-2.73,2.26-2.92a7.15,7.15,0,0,1,3,.48c3.47,1.07,6.83,2.4,10.23,3.65a.27.27,0,0,1,.15.1c0,.07,0,.15,0,.22a8,8,0,0,1-3,2.82C62.53,12.68,59.62,12.54,57,12.28Z"/><path class="cls-2" d="M67.23,8.64a2,2,0,0,1-.69.09,39.45,39.45,0,0,1-7-.73c-2.23-.44-4.5-.85-6.21-2.47-1.44-1.37,1.8-2.07,2.56-2.25a15.37,15.37,0,0,1,5.61-.35c2.59.32,5.69,2,6.17,4.8a1,1,0,0,1,0,.61A.68.68,0,0,1,67.23,8.64Z"/><path class="cls-1" d="M62.06,4.93l-.61.17A2,2,0,0,1,59.92,5,2.61,2.61,0,0,1,59,3.45a1.27,1.27,0,0,1,.48-1.65,3.45,3.45,0,0,1,1.35-.3c1.69-.13,3.37-.13,5-.18a.15.15,0,0,1,.09,0,.18.18,0,0,1,0,.1,3.76,3.76,0,0,1-.8,1.73A5.43,5.43,0,0,1,62.06,4.93Z"/><path class="cls-2" d="M65.84,1.61a1,1,0,0,1-.29.16,18.08,18.08,0,0,1-3.16.89,5.4,5.4,0,0,1-3.11,0c-.86-.35.42-1.2.72-1.41A7.17,7.17,0,0,1,62.37.13c1.17-.3,2.8-.13,3.49,1a.43.43,0,0,1,.08.27A.24.24,0,0,1,65.84,1.61Z"/><circle class="cls-3" cx="8.81" cy="35.79" r="1.5"/><circle class="cls-3" cx="50.55" cy="52.44" r="1.5"/><path class="cls-3" d="M16.7,40.6a1.28,1.28,0,1,1-1.28-1.29A1.28,1.28,0,0,1,16.7,40.6Z"/><path class="cls-3" d="M34.11,47.1a1.28,1.28,0,1,1-1.28-1.29A1.29,1.29,0,0,1,34.11,47.1Z"/><path class="cls-3" d="M42.61,49.81a1.28,1.28,0,0,1-2.56,0,1.28,1.28,0,0,1,2.56,0Z"/><path class="cls-3" d="M60.77,53.94a1.28,1.28,0,0,1-2.56,0,1.28,1.28,0,0,1,2.56,0Z"/><path class="cls-3" d="M24.74,43.26a1.39,1.39,0,1,1-1.38-1.38A1.38,1.38,0,0,1,24.74,43.26Z"/><circle class="cls-3" cx="58.99" cy="30.69" r="1.26"/><path class="cls-3" d="M31.89,21.84a1.08,1.08,0,1,1-1.08-1.08A1.08,1.08,0,0,1,31.89,21.84Z"/><path class="cls-3" d="M43,28.53a1.08,1.08,0,1,1-1.08-1.08A1.08,1.08,0,0,1,43,28.53Z"/><path class="cls-3" d="M51.21,29.61a1.08,1.08,0,1,1-1.08-1.08A1.08,1.08,0,0,1,51.21,29.61Z"/><path class="cls-3" d="M66.55,29.61a1.08,1.08,0,1,1-1.08-1.08A1.08,1.08,0,0,1,66.55,29.61Z"/><path class="cls-3" d="M35.91,25.93a1.17,1.17,0,1,1-1.17-1.17A1.17,1.17,0,0,1,35.91,25.93Z"/><circle class="cls-3" cx="59.88" cy="16.15" r="1.04"/><path class="cls-3" d="M48.18,13.33a.89.89,0,1,1-.89-.89A.89.89,0,0,1,48.18,13.33Z"/><path class="cls-3" d="M54.09,15.49a.9.9,0,1,1-.89-.9A.89.89,0,0,1,54.09,15.49Z"/><path class="cls-3" d="M66.88,16.15a.89.89,0,1,1-.89-.89A.89.89,0,0,1,66.88,16.15Z"/><path class="cls-3" d="M44.29,10.68a1,1,0,1,1-1-1A1,1,0,0,1,44.29,10.68Z"/></g></g></svg>