<svg xmlns="http://www.w3.org/2000/svg" viewBox="0 0 108.15 216.05"><defs><style>.cls-1{fill:#372126;}.cls-2{fill:#402a23;}.cls-3{fill:#303a31;}.cls-4{fill:#4c584c;}.cls-5{fill:#353630;}.cls-6{fill:#2e3935;}.cls-7{fill:#4e594b;}.cls-8{fill:#949865;}.cls-9{fill:#4b5344;}.cls-10{fill:#969d69;}.cls-11{fill:#485543;}.cls-12{fill:#465143;}.cls-13{fill:#2e3931;}.cls-14{fill:#959869;}.cls-15{fill:#272d26;}.cls-16{fill:#49534a;}.cls-17{fill:#4b5645;}.cls-18{fill:#919467;}.cls-19{fill:#929381;}.cls-20{fill:#6e6f57;}.cls-21{fill:#70724f;}.cls-22{fill:#929a6b;}</style></defs><title>English Bay</title><g id="Layer_2" data-name="Layer 2"><g id="Objects"><g id="English_Bay" data-name="English Bay"><path class="cls-1" d="M61.9,62.79l.5-.37S57.41,56.43,61.9,62.79Z"/><path class="cls-1" d="M59.78,62.79l.5-.37S55.28,56.43,59.78,62.79Z"/><path class="cls-1" d="M74.16,214.15s-5.34-29.9-4.27-47c0,0-4.27-97.19-9.61-104.67l-.5-.69-1.41,1.05c5.24,9.77,9.4,104.31,9.4,104.31-1.07,17.09,4.27,47,4.27,47A21,21,0,0,1,65.82,216C67.62,216.2,70.28,215.87,74.16,214.15Z"/><path class="cls-2" d="M67.77,167.16s-4.16-94.54-9.4-104.31L56,64.63s10.68,85.44,5.34,114.28c0,0-1.06,27.76,1.07,35.24,0,0,.76,1.52,3.41,1.84A21,21,0,0,0,72,214.15S66.7,184.25,67.77,167.16Z"/><path class="cls-3" d="M90.56,73.56c10.82,6.27,17.57,16.87,13.49,30.83.84-6.71,2.38-13.75-5.11-21.48a29,29,0,0,0-7-7.55Q91.31,74.43,90.56,73.56Z"/><path class="cls-3" d="M67.45,68.9a20.4,20.4,0,0,0-3.87-.49,5.62,5.62,0,0,1,.83-.38c.91.15,2.07.37,3.54.71Z"/><path class="cls-3" d="M96.77,80.88c.8.68,1.52,1.36,2.17,2,3.5,5.61,4.72,12.51,2.38,20.51.72-5.77,2-11.78-2.45-18.26A15.33,15.33,0,0,0,96.77,80.88Z"/><path class="cls-3" d="M92.79,76.56c-.26-.41-.53-.81-.82-1.2a29,29,0,0,1,7,7.55c-.65-.67-1.37-1.35-2.17-2A22.82,22.82,0,0,0,92.79,76.56Z"/><path class="cls-3" d="M79.51,72.1l.34.12.81.31A108.8,108.8,0,0,0,67.45,68.9l.5-.16C70.67,69.38,74.43,70.41,79.51,72.1Z"/><path class="cls-3" d="M99.5,102.77c.54-4.31,1.37-8.75-.09-13.42a13.11,13.11,0,0,0-.25-3A25.24,25.24,0,0,1,99.5,102.77Z"/><path class="cls-3" d="M99.23,88.77A19.12,19.12,0,0,0,96,83.15C98.59,85.64,99.26,87,99.23,88.77Z"/><path class="cls-3" d="M64.41,68a15.76,15.76,0,0,0-2.65-.27,3.6,3.6,0,0,1,.47-.23c.6.07,1.42.19,2.49.4Z"/><path class="cls-3" d="M64.41,68l.31-.1c.94.18,2.08.42,3.43.76l-.2,0"/><path class="cls-3" d="M79.85,72.22l-.34-.12c-5.08-1.69-8.84-2.72-11.56-3.36l.2,0c2.61.64,6,1.61,10.45,3.08C79,71.91,79.43,72.06,79.85,72.22Z"/><path class="cls-3" d="M96,83.15c-.14-.14-.29-.29-.45-.43s0-.11,0-.17Z"/><path class="cls-3" d="M92.13,79.18c.66.56,1.27,1.12,1.83,1.67.12.23.24.46.35.69-.64-.58-1.36-1.21-2.17-1.9-.09-.23-.19-.46-.29-.69A3.11,3.11,0,0,1,92.13,79.18Z"/><path class="cls-3" d="M86.34,75.13l.65.61A37.82,37.82,0,0,0,81.68,73l.59.19A37.37,37.37,0,0,1,86.34,75.13Z"/><path class="cls-3" d="M98.29,84.35l.58.81c.11.39.21.78.29,1.17Q98.77,85.32,98.29,84.35Z"/><path class="cls-3" d="M98.46,94.19c.31-2.49.74-4.08.77-5.42.06.19.13.38.18.58A15.54,15.54,0,0,1,98.46,94.19Z"/><path class="cls-3" d="M77.37,68.09l.06,0c-8.69-2.82-13.71-1.24-15.2-.6"/><path class="cls-3" d="M81.21,72.71l1.06.43L81.68,73q-.51-.23-1-.42Z"/><path class="cls-3" d="M95.25,79.65c.49.37,1,.75,1.43,1.15l.09.08a15.33,15.33,0,0,1,2.1,4.28l-.58-.81A25.16,25.16,0,0,0,95.25,79.65Z"/><path class="cls-3" d="M81.21,72.71l-.55-.18-.81-.31C80.31,72.37,80.76,72.54,81.21,72.71Z"/><path class="cls-3" d="M92.79,76.56a22.82,22.82,0,0,1,4,4.32l-.09-.08c-.47-.4-.94-.78-1.43-1.15a27.37,27.37,0,0,0-1.84-2.06C93.21,77.24,93,76.9,92.79,76.56Z"/><path class="cls-3" d="M94.89,80.65a28.34,28.34,0,0,1,3.4,3.7q.48,1,.87,2a13.11,13.11,0,0,1,.25,3c0-.2-.12-.39-.18-.58,0-1.77-.64-3.13-3.19-5.62l-.49-.6C95.35,81.91,95.13,81.27,94.89,80.65Z"/><path class="cls-3" d="M91.31,77.78c.47.33.94.68,1.4,1a19.55,19.55,0,0,1,1.25,2c-.56-.55-1.17-1.11-1.83-1.67a3.11,3.11,0,0,0-.28-.23Q91.6,78.35,91.31,77.78Z"/><path class="cls-3" d="M77.43,68.13l.33.2c-6.81-1.91-11.13-1-13-.4-1.07-.21-1.89-.33-2.49-.4"/><path class="cls-3" d="M85.6,74.46l.74.67a37.37,37.37,0,0,0-4.07-2l1.12.36C84.13,73.8,84.87,74.12,85.6,74.46Z"/><path class="cls-3" d="M83.39,73.5l-1.12-.36-1.06-.43.12,0C82,73,82.71,73.23,83.39,73.5Z"/><path class="cls-3" d="M94,78.75c.41.29.81.59,1.21.9a25.16,25.16,0,0,1,3,4.7,28.34,28.34,0,0,0-3.4-3.7C94.63,80,94.35,79.37,94,78.75Z"/><path class="cls-3" d="M83.39,73.5l.66.22,1.2.43c.12.1.24.2.35.31C84.87,74.12,84.13,73.8,83.39,73.5Z"/><path class="cls-3" d="M91.28,77a22.43,22.43,0,0,1,1.43,1.84c-.46-.36-.93-.71-1.4-1-.19-.38-.39-.76-.6-1.13Z"/><path class="cls-3" d="M68.15,68.69c-1.35-.34-2.49-.58-3.43-.76,1.91-.65,6.23-1.51,13,.4l.77.48A21.87,21.87,0,0,0,68.15,68.69Z"/><path class="cls-3" d="M90.2,75.81q.57.59,1.08,1.17l-.57-.33Z"/><path class="cls-3" d="M82.48,71.74c1,.9,2,1.69,2.77,2.41l-1.2-.43-.66-.22c-.68-.27-1.37-.52-2.06-.75l-.12,0c-.45-.17-.9-.34-1.36-.49s-.83-.31-1.25-.45c-4.42-1.47-7.84-2.44-10.45-3.08a21.87,21.87,0,0,1,10.38.12A37.72,37.72,0,0,1,82.48,71.74Z"/><path class="cls-3" d="M93.41,77.59a27.37,27.37,0,0,1,1.84,2.06c-.4-.31-.8-.61-1.21-.9C93.84,78.36,93.63,78,93.41,77.59Z"/><path class="cls-3" d="M95.31,97.28c.62-5,1.65-10.21-1-15.74.47.42.89.81,1.28,1.18A25.7,25.7,0,0,1,95.31,97.28Z"/><path class="cls-3" d="M87.83,72.59c-.23-.28-.48-.55-.73-.82,1.19.55,2.35,1.15,3.46,1.79q.75.87,1.41,1.8A36.39,36.39,0,0,0,87.83,72.59Z"/><path class="cls-3" d="M87.83,72.59A36.39,36.39,0,0,1,92,75.36c.29.39.56.79.82,1.2a36.12,36.12,0,0,0-4.22-3.07C88.33,73.18,88.09,72.88,87.83,72.59Z"/><path class="cls-3" d="M94,80.85c.58.57,1.1,1.14,1.59,1.7,0,.06,0,.11,0,.17-.39-.37-.81-.76-1.28-1.18C94.2,81.31,94.08,81.08,94,80.85Z"/><path class="cls-3" d="M88.68,73.63a.76.76,0,0,0-.11-.14,36.12,36.12,0,0,1,4.22,3.07c.22.34.42.68.62,1A32.64,32.64,0,0,0,88.68,73.63Z"/><path class="cls-3" d="M94,79.83l.94.82c.24.62.46,1.26.66,1.9-.49-.56-1-1.13-1.59-1.7a19.55,19.55,0,0,0-1.25-2C93.13,79.15,93.54,79.48,94,79.83Z"/><path class="cls-3" d="M92.71,78.82A22.43,22.43,0,0,0,91.28,77q1.41.83,2.76,1.77c.31.62.59,1.26.85,1.9L94,79.83C93.54,79.48,93.13,79.15,92.71,78.82Z"/><path class="cls-3" d="M88.68,73.63a32.64,32.64,0,0,1,4.73,4c.22.38.43.77.63,1.16q-1.35-.94-2.76-1.77-.51-.58-1.08-1.17A25,25,0,0,0,88.68,73.63Z"/><path class="cls-3" d="M91.22,78.85l.92.79a25.1,25.1,0,0,1,.44,16.67c.72-5.76,2-11.78-2.45-18.26a.56.56,0,0,1,0-.12C90.47,78.23,90.85,78.53,91.22,78.85Z"/><path class="cls-3" d="M90.09,77.93c0-.17-.11-.33-.16-.49.65.48,1.3,1,1.92,1.51.1.23.2.46.29.69l-.92-.79C90.85,78.53,90.47,78.23,90.09,77.93Z"/><path class="cls-3" d="M91.31,77.78q.28.57.54,1.17c-.62-.53-1.27-1-1.92-1.51-.1-.26-.2-.53-.31-.79C90.2,77,90.76,77.39,91.31,77.78Z"/><path class="cls-3" d="M89.28,75.9c.48.24,1,.49,1.43.75.21.37.41.75.6,1.13-.55-.39-1.11-.77-1.69-1.13C89.52,76.4,89.4,76.15,89.28,75.9Z"/><path class="cls-3" d="M90.2,75.81l.51.84c-.47-.26-.95-.51-1.43-.75A15.38,15.38,0,0,0,88,73.77C88.83,74.46,89.55,75.13,90.2,75.81Z"/><path class="cls-3" d="M86,71.27l.14.06,1,.44c.25.27.5.54.73.82l-1.3-.73C86.35,71.66,86.17,71.46,86,71.27Z"/><path class="cls-3" d="M87.25,72.68l-.06,0c-.21-.27-.43-.53-.66-.79l1.3.73c.26.29.5.59.74.9C88.14,73.21,87.7,73,87.25,72.68Z"/><path class="cls-3" d="M87.19,72.65l.06,0-.06,0Z"/><path class="cls-3" d="M88.57,73.49a.76.76,0,0,1,.11.14c-.47-.32-.94-.64-1.43-.95C87.7,73,88.14,73.21,88.57,73.49Z"/><path class="cls-3" d="M88,73.77c-.26-.37-.54-.75-.84-1.12l.06,0c.49.31,1,.63,1.43.95a25,25,0,0,1,1.52,2.18C89.55,75.13,88.83,74.46,88,73.77Z"/><path class="cls-3" d="M90.76,95.66c.54-4.31,1.37-8.75-.09-13.42a13.11,13.11,0,0,0-.25-3A25.24,25.24,0,0,1,90.76,95.66Z"/><path class="cls-3" d="M90.49,81.66A19.25,19.25,0,0,0,87.3,76C89.85,78.53,90.52,79.89,90.49,81.66Z"/><path class="cls-3" d="M87.3,76l-.31-.3.14.09Z"/><path class="cls-3" d="M90,77.84l.15.21c.11.39.21.78.29,1.17-.21-.53-.43-1-.67-1.56Z"/><path class="cls-3" d="M89.72,87.09c.31-2.5.74-4.08.77-5.43.06.2.13.39.18.58A15.65,15.65,0,0,1,89.72,87.09Z"/><path class="cls-3" d="M78.19,68.39l.09,0h0Z"/><path class="cls-3" d="M86.73,75.36c.14.15.27.31.4.47L87,75.74l-.65-.61Z"/><path class="cls-3" d="M78.19,68.39l-.76-.26-.06,0Z"/><path class="cls-3" d="M89.55,77.25l.43.59-.23-.18C89.68,77.52,89.62,77.38,89.55,77.25Z"/><path class="cls-3" d="M86.18,74.74c.19.2.37.41.55.62l-.39-.23-.74-.67Z"/><path class="cls-3" d="M78.48,68.54l-.72-.21-.33-.2.76.26.09,0Z"/><path class="cls-3" d="M86.18,74.74l-.58-.28c-.11-.11-.23-.21-.35-.31l.58.21Z"/><path class="cls-3" d="M79.16,69l-.63-.15-.77-.48.72.21Z"/><path class="cls-3" d="M85.83,74.36l-.58-.21c-.8-.72-1.72-1.51-2.77-2.41a37.72,37.72,0,0,0-4-2.93l.63.15a36.49,36.49,0,0,1,4.23,3.11A32.2,32.2,0,0,1,85.83,74.36Z"/><path class="cls-3" d="M90.09,77.93a.56.56,0,0,0,0,.12L90,77.84Z"/><path class="cls-3" d="M89.49,77.13l.44.31c0,.16.11.32.16.49L90,77.84l-.43-.59Z"/><path class="cls-3" d="M89.06,76.31l.56.34c.11.26.21.53.31.79l-.44-.31C89.35,76.85,89.21,76.58,89.06,76.31Z"/><path class="cls-3" d="M89.28,75.9c.12.25.24.5.34.75l-.56-.34c-.14-.25-.27-.49-.42-.73Z"/><path class="cls-3" d="M87.94,73.69l.09.08a15.38,15.38,0,0,1,1.25,2.13l-.64-.32a25.18,25.18,0,0,0-2.13-3C87,72.91,87.47,73.29,87.94,73.69Z"/><path class="cls-3" d="M85.47,71.32l-.41-.44.92.39c.19.19.37.39.55.59Z"/><path class="cls-3" d="M85.47,71.32l1.06.54c.23.26.45.52.66.79-.39-.24-.78-.48-1.18-.71C85.84,71.73,85.65,71.52,85.47,71.32Z"/><path class="cls-3" d="M86.09,72a.6.6,0,0,1-.08-.08c.4.23.79.47,1.18.71h0Z"/><path class="cls-3" d="M86.51,72.54,86.09,72l1.1.63c.3.37.58.75.84,1.12l-.09-.08C87.47,73.29,87,72.91,86.51,72.54Z"/><path class="cls-3" d="M89.75,77.66c.24.51.46,1,.67,1.56a13.11,13.11,0,0,1,.25,3c0-.19-.12-.38-.18-.58,0-1.77-.64-3.13-3.19-5.62l-.17-.21C88,76.4,88.9,77,89.75,77.66Z"/><path class="cls-3" d="M79.54,68.87l.55.19.13.08Z"/><path class="cls-3" d="M79.54,68.87l-.45-.14-.81-.31h0Z"/><path class="cls-3" d="M80.49,69.3h0l-1.39-.57.45.14.68.27Z"/><path class="cls-3" d="M80.48,69.3h0Z"/><path class="cls-3" d="M89.55,77.25c.07.13.13.27.2.41C88.9,77,88,76.4,87.13,75.83c-.13-.16-.26-.32-.4-.47.92.53,1.82,1.11,2.7,1.72Z"/><path class="cls-3" d="M78.28,68.42l.81.31-.61-.19Z"/><path class="cls-3" d="M88.55,76c.31.36.6.72.88,1.07-.88-.61-1.78-1.19-2.7-1.72-.18-.21-.36-.42-.55-.62C87,75.13,87.77,75.55,88.55,76Z"/><path class="cls-3" d="M87.83,75.2q.38.4.72.81c-.78-.46-1.57-.88-2.37-1.27l-.35-.38C86.5,74.62,87.17,74.9,87.83,75.2Z"/><path class="cls-3" d="M79.16,69l-.68-.42.61.19,1.39.57C80,69.17,79.59,69.06,79.16,69Z"/><path class="cls-3" d="M80.5,69.31a37.35,37.35,0,0,1,4.71,3.41,31.63,31.63,0,0,1,2.62,2.48c-.66-.3-1.33-.58-2-.84a32.2,32.2,0,0,0-2.44-2.29A36.49,36.49,0,0,0,79.16,69c.43.1.87.21,1.32.34Z"/><path class="cls-3" d="M81.81,69.7l1,.34.4.24C82.75,70.08,82.28,69.88,81.81,69.7Z"/><path class="cls-3" d="M81.81,69.7l-.89-.27-.7-.29-.13-.08C80.65,69.26,81.23,69.47,81.81,69.7Z"/><path class="cls-3" d="M81.58,69.71l-.66-.28.89.27c.47.18.94.38,1.41.58l1.33.85C83.58,70.62,82.59,70.15,81.58,69.71Z"/><path class="cls-3" d="M80.22,69.14l.7.29-.43-.13Z"/><path class="cls-3" d="M84.55,71.13l.5.34Q83,70.38,80.67,69.38l-.17-.07h0l.43.13.66.28C82.59,70.15,83.58,70.62,84.55,71.13Z"/><path class="cls-3" d="M89.55,77.25l-.12-.17.06,0Z"/><path class="cls-3" d="M89.49,77.13l-.06,0c-.28-.35-.57-.71-.88-1.07l.51.3C89.21,76.58,89.35,76.85,89.49,77.13Z"/><path class="cls-3" d="M88.64,75.58c.15.24.28.48.42.73l-.51-.3q-.35-.41-.72-.81Z"/><path class="cls-3" d="M85.05,71.47c.49.34,1,.7,1.46,1.07a25.18,25.18,0,0,1,2.13,3l-.81-.38a31.63,31.63,0,0,0-2.62-2.48,37.35,37.35,0,0,0-4.71-3.41l.17.07Q83,70.37,85.05,71.47Z"/><path class="cls-3" d="M83.39,70.36l-.17-.08-.4-.24c.72.25,1.47.53,2.24.84l.41.44C84.79,71,84.1,70.66,83.39,70.36Z"/><path class="cls-3" d="M84.55,71.13l-1.33-.85.17.08c.71.3,1.4.62,2.08,1,.18.2.37.41.54.62C85.53,71.66,85,71.39,84.55,71.13Z"/><path class="cls-3" d="M84.55,71.13c.49.26,1,.53,1.46.81a.6.6,0,0,0,.08.08l-1-.55Z"/><path class="cls-3" d="M85.05,71.47l1,.55.42.52C86,72.17,85.54,71.81,85.05,71.47Z"/><path class="cls-3" d="M87,74.71c.09.22.48,1,.58,1.23.63,1.43,2.08,2.79,1.62,9.81-1,2.73-2.21,3.31-2.21,3.31a8.36,8.36,0,0,0-.38-10.39c-3.19-5.17-2.67-4-2.67-4a13.77,13.77,0,0,1,2.72,7.6,5.94,5.94,0,0,1-3.19,5.47l-.11.05s4.67-4.48-.65-12.53c2.92,6.17-.2,9.15-.2,9.15s3.19-6-4-11.69S84.65,69,87,74.71Z"/><path class="cls-4" d="M47.31,61.91S61.67,80.76,59,85.73a19.89,19.89,0,0,0,2.26-12.68s2.5,11.34-.19,15.47c5.25-10.9,3.18-13.69,3.18-13.69S65,88.33,62.2,91.37c6.41-7.09,4.14-13.75,4.14-13.75s2.47,10.52-1.1,16.5c6.36-8.06,4.05-15.68,4.05-15.68s2.56,12.44-2,17.51c5.54-5.12,4.09-14.71,4.09-14.71s1.64,13.45-2,17.5c7.47-5.21,5-16.68,5-16.68s2.56,12.44-.09,17.4C80.48,89.48,77.15,81,77.15,81s4.63,15.23,2.9,19.19c2.69-4,1.2-14.56,1.2-14.56s6.46,13.2,5.64,16.15c2.7-4-3.81-18.18-3.81-18.18S91.18,91,91.37,94.8c2.66-5-17.85-28.17-31.49-30.39.33-.31,8.56,2.62,8.68,2.22C76.28,38.62,47.31,61.91,47.31,61.91Z"/><path class="cls-5" d="M47.31,49.25s-17.38-1.94-24.14,4.82c0,0,8.69-4.82,23.18-3.86l1,1.93S33.8,51.18,26.07,56c0,0,13.52-4.82,21.24-2.89,0,0-12.55,0-14.48,2.89,0,0,5.79-2.89,16.42,1,2.89,2.9-2.9-1-10.63,0,0,0,9.66,1.93,11.59,4.83C53.11,61.8,56,55,55,55,55,53.11,54.07,52.14,47.31,49.25Z"/><path class="cls-6" d="M42.49,34.76s-10.63-9.65-12.56-8.69A28.6,28.6,0,0,1,45.38,33.8,53.24,53.24,0,0,0,33.8,22.21s5.79,2.9,6.75,3.86c0,0-1.93-7.72-7.72-9.65,0,0,5.79,0,10.62,6.75,0,0-2.9-7.72-4.83-10.62,0,0,6.76,8.69,8.69,14.49,0,0,1-3.87-5.79-16.42,0,0,3.86,2.9,4.83,6.76,0,0-1-5.79,0-8.69a34.28,34.28,0,0,1,1,5.79s0-6.76,1.94-8.69c0,0-1,8.69,0,10.63,0,0,2.89-13.52,8.69-16.42a54.64,54.64,0,0,0-5.8,19.31s1.93-9.65,7.73-11.59c0,0-6.76,12.56-6.76,18.35,0,0,1-6.76,3.86-9.65,0,0,1,9.65-1.93,13.51,0,0,1-4.82,3.86-5.79,0,0-1.93,7.72-3.86,9.66,0,0,4.83-4.83,4.83-5.8,0,0-1.93,4.83-2.9,6.76S47.31,49.25,42.49,34.76Z"/><path class="cls-7" d="M68.56,55s11.58-5.79,19.31-5.79a59.24,59.24,0,0,1,14.48,1.93s-9.65-1.93-11.58,0c0,0,13.51-1,17.38,5.79,0,0-5.8-4.83-12.56-3.86a22.83,22.83,0,0,1,12.56,9.65S94.63,57.94,92.7,54.07c0,0,6.76,9.66,11.58,9.66,0,0-7.72,1-12.55-4.83,0,0,4.83,7.73,8.69,7.73,0,0-7.72,0-15.45-10.63,0,0,6.76,12.56,10.62,13.52C95.59,69.52,85,67.59,85,57c0,0,4.94,11.58,2.9,14.48,0,0-5.79-11.58-4.83-13.51s1.93,11.58-1,13.51c0,0,1.93-11.58,0-13.51,0,0,1,10.62-1,12.55,0,0,1-10.62-1-12.55S63.73,63.73,68.56,55Z"/><path class="cls-8" d="M47.31,64.69S55,54.07,64.69,55c9.66-1,10.63,0,10.63,0S70.49,56,70.49,57a27.28,27.28,0,0,1,11.59,1s-9.66-1-9.66,1c4.83-1,11.59,1,13.52,1.93-7.73-1-10.62,0-10.62,0s6.76-1.93,11.58,1.93c-5.79-1.93-9.65-1-9.65-1s7.72-1,11.58,2.89c-5.79-1.93-9.65-1-9.65-1s6.76-1.93,12.55,4.83c-6.76-3.87-11.59-2.9-11.59-2.9s6.76,0,10.63,4.83a17.34,17.34,0,0,0-9.66-2.9c8.69,2.9,7.72,8.69,7.72,8.69l-8.69-7.72s-1,1.93-1,7.72c0,0-2.76-1.24-.9-7.86,0,0-3,1.1-3,5.93-1.94-4.83,1-7.72,1-7.72s-3.86,1-3.86,6.75c-1-1.93-1-5.79,1-8.69-2.89,1.94-2.89,6.76-2.89,6.76s-2.9-3.86,1-8.69c-3.86,6.76-3.86,8.69-3.86,8.69s-1.93-4.82,2.9-9.65c-5.8,4.83-5.8,8.69-5.8,8.69s-1-4.83,3.87-9.66c-2.9,1.93-5.8,4.83-6.76,8.69-1-3.86,2.89-9.65,5.79-10.62-3.86,1-8.69,6.76-9.65,9.66,1-3.87,2.89-8.69,7.72-10.62-3.86-1-13.52,9.65-13.52,11.58A19.49,19.49,0,0,1,62.76,57C55,59.87,47.31,68.56,47.31,70.49c0,0,5.8-13.52,13.52-14.49C60.83,56,57,55,47.31,64.69Z"/><path class="cls-9" d="M55,67.72s-9.66-1.93-28,33.79C38.62,89,36.69,89,38.62,87c0,0-10.62,14.48-10.62,20.28,4.83-6.76,3.86-8.69,9.66-13.52,0,0-6.76,8.69-6.76,17.38,2.9-7.73,5.79-10.62,5.79-10.62s-4.83,5.79-2.89,11.58a15.4,15.4,0,0,1,2.89-7.72s-1,7.72,1.93,11.59v-8.69c2.9,9.65,11.59,15.45,11.59,15.45a25.26,25.26,0,0,1-8.69-17.38C46.35,118.89,52.14,117,52.14,117s-7.72-5.79-8.69-13.52c4.83,9.66,7.73,10.63,7.73,10.63a48.11,48.11,0,0,0-7.73-15.45c6.76,9.65,6.76,10.62,6.76,10.62s0-4.83-3.86-11.59c6.76,9.66,11.59,7.73,11.59,7.73S43.45,98.62,44.42,88C49.25,97.65,50.21,99.58,57,99.58A16.74,16.74,0,0,1,47.31,88c2.9,5.8,4.83,7.73,11.59,9.66,0,0-11.59-4.83-12.55-15.45,1,4.83,3.86,9.66,10.62,12.55,0,0-8.69-7.72-7.72-13.51,3.86,8.69,8.69,10.62,8.69,10.62s-6.76-5.8-5.8-13.52C56,88,58.9,88,59.87,89,57,85.1,55,81.24,55,73.51c0,0,2.9,5.79,2.9,9.66C60.83,71.58,57,67.72,55,67.72Z"/><path class="cls-10" d="M47.31,61.91a29,29,0,0,0-28,10.62c-4.83,5.79-3.86,6.76-3.86,6.76s2.9-5.8,6.76-6.76c-4.83,3.86-4.83,7.72-4.83,7.72s1.93-5.79,5.79-6.76A29.34,29.34,0,0,0,16.42,87s3.86-9.65,7.72-10.62c0,0-3.86,9.66-1,16.41,0-9.65,2.9-14.48,2.9-14.48s1,16.42-1,17.38C29,93.77,28,74.46,28,74.46S30.9,87,29,90.87c3.86-4.82,1-14.48,1-14.48S32.83,87,31.86,89.91c2.9-7.73,1-10.62-1-15.45,0,1,3.86,11.59,2.9,13.52,0,0,4.82-6.76-1-19.32,4.83,11.59,4.83,14.49,4.83,14.49s1-8.69-2.9-16.42c3.86,8.69,4.83,9.66,3.86,13.52,0,0,4.83-5.79-2.89-15.45,2.89,4.83,5.79,7.73,5.79,12.56,2.9-6.76-3.86-13.52-3.86-13.52s6.76,5.79,6.76,8.69c0-7.73-3.87-8.69-3.87-8.69s7.73,3.86,7.73,6.76c1.93-3.87-5.79-7.73-5.79-7.73s7.72,2.9,8.69,6.76C54.07,66.73,47.31,61.91,47.31,61.91Z"/><path class="cls-11" d="M23.07,57.69C10.77,60,.85,67.67,0,82.18c1.47-6.6,2.38-13.75,12-18.51a29.33,29.33,0,0,1,9.11-4.77C21.76,58.47,22.41,58.07,23.07,57.69Z"/><path class="cls-11" d="M46.4,61.07a20.38,20.38,0,0,1,3.81.84,5,5,0,0,0-.66-.63c-.9-.17-2.07-.35-3.56-.52Z"/><path class="cls-11" d="M14.76,62.49c-1,.38-1.89.77-2.73,1.18C6.85,67.78,3.39,73.87,2.9,82.18,4.16,76.51,5,70.43,11.35,65.82A15,15,0,0,1,14.76,62.49Z"/><path class="cls-11" d="M20,59.76c.38-.3.78-.58,1.18-.86A29.33,29.33,0,0,0,12,63.67c.84-.41,1.75-.8,2.73-1.18A23,23,0,0,1,20,59.76Z"/><path class="cls-11" d="M34,60h-.36l-.87,0a110.46,110.46,0,0,1,13.66,1L46,60.76C43.21,60.44,39.32,60.14,34,60Z"/><path class="cls-11" d="M4.83,82.18c.94-4.23,1.65-8.7,4.59-12.61a13,13,0,0,1,1.26-2.75A25.16,25.16,0,0,0,4.83,82.18Z"/><path class="cls-11" d="M9.79,69.1a19.05,19.05,0,0,1,4.9-4.23C11.44,66.36,10.36,67.41,9.79,69.1Z"/><path class="cls-11" d="M49.55,61.28a14.48,14.48,0,0,1,2.59.63,3.59,3.59,0,0,0-.36-.37c-.59-.14-1.4-.3-2.48-.47A2.76,2.76,0,0,1,49.55,61.28Z"/><path class="cls-11" d="M49.55,61.28a2.76,2.76,0,0,0-.25-.21c-.95-.14-2.1-.3-3.49-.44l.18.13"/><path class="cls-11" d="M33.61,60H34c5.35.11,9.24.41,12,.73l-.18-.13c-2.67-.27-6.22-.5-10.87-.6Z"/><path class="cls-11" d="M14.69,64.87l.56-.25.1-.14Z"/><path class="cls-11" d="M19.7,62.45q-1.21.45-2.28,1c-.2.17-.38.35-.56.53.8-.33,1.68-.68,2.68-1.06.16-.19.33-.38.5-.56Z"/><path class="cls-11" d="M26.51,60.59l-.81.35a37.26,37.26,0,0,1,5.94-.84l-.62,0A38,38,0,0,0,26.51,60.59Z"/><path class="cls-11" d="M12.16,65.25c-.28.19-.55.37-.81.57s-.46.66-.67,1C11.15,66.27,11.65,65.75,12.16,65.25Z"/><path class="cls-11" d="M8.69,74.46c.55-2.46.68-4.09,1.1-5.36l-.37.47A15.73,15.73,0,0,0,8.69,74.46Z"/><path class="cls-11" d="M37.34,57l-.08,0c9.13.27,13.33,3.45,14.52,4.55"/><path class="cls-11" d="M32.16,60l-1.14,0,.62,0,1.1-.06Z"/><path class="cls-11" d="M16.61,61.84c-.58.19-1.16.39-1.73.61l-.12,0a15,15,0,0,0-3.41,3.33c.26-.2.53-.38.81-.57A25.5,25.5,0,0,1,16.61,61.84Z"/><path class="cls-11" d="M32.16,60h.58l.87,0Z"/><path class="cls-11" d="M20,59.76a23,23,0,0,0-5.2,2.73l.12,0c.57-.22,1.15-.42,1.73-.61A26.91,26.91,0,0,1,19,60.52C19.33,60.26,19.64,60,20,59.76Z"/><path class="cls-11" d="M16.61,62.91a27.09,27.09,0,0,0-4.45,2.34c-.51.5-1,1-1.48,1.57a13,13,0,0,0-1.26,2.75l.37-.47c.57-1.69,1.65-2.74,4.9-4.23l.66-.39C15.75,63.93,16.17,63.41,16.61,62.91Z"/><path class="cls-11" d="M21,61.41c-.56.15-1.12.32-1.67.5a20.94,20.94,0,0,0-1.86,1.5q1.06-.51,2.28-1l.34-.13C20.34,62,20.64,61.7,21,61.41Z"/><path class="cls-11" d="M37.26,57l-.37.07c7,.49,10.83,2.76,12.41,4,1.08.17,1.89.33,2.48.47"/><path class="cls-11" d="M27.44,60.2l-.93.39A38,38,0,0,1,31,60.08l-1.17,0C29,60.07,28.24,60.12,27.44,60.2Z"/><path class="cls-11" d="M29.85,60l1.17,0,1.14,0H32C31.31,60,30.58,60,29.85,60Z"/><path class="cls-11" d="M18.05,61.41c-.48.13-1,.27-1.44.43a25.5,25.5,0,0,0-4.45,3.41,27.09,27.09,0,0,1,4.45-2.34C17.07,62.39,17.55,61.88,18.05,61.41Z"/><path class="cls-11" d="M29.85,60h-2l-.43.18C28.24,60.12,29,60.07,29.85,60Z"/><path class="cls-11" d="M21.25,60.67a21.51,21.51,0,0,0-2,1.24c.55-.18,1.11-.35,1.67-.5.31-.3.62-.58.94-.86Z"/><path class="cls-11" d="M45.81,60.63c1.39.14,2.54.3,3.49.44-1.58-1.25-5.36-3.52-12.41-4l-.89.2A21.88,21.88,0,0,1,45.81,60.63Z"/><path class="cls-11" d="M22.66,59.92q-.75.36-1.41.75l.64-.12C22.14,60.33,22.4,60.13,22.66,59.92Z"/><path class="cls-11" d="M31.29,58.69c-1.29.49-2.42.93-3.42,1.33h2c.73,0,1.46,0,2.19,0h2.9c4.65.1,8.2.33,10.87.6A21.88,21.88,0,0,0,36,57.26,37,37,0,0,0,31.29,58.69Z"/><path class="cls-11" d="M19,60.52a26.91,26.91,0,0,0-2.42,1.32c.48-.16,1-.3,1.44-.43C18.37,61.1,18.7,60.81,19,60.52Z"/><path class="cls-11" d="M10.62,78.43c1.1-4.93,1.88-10.18,6.24-14.49-.58.23-1.12.46-1.61.68A25.73,25.73,0,0,0,10.62,78.43Z"/><path class="cls-11" d="M26,57.69l1-.53c-1.31.12-2.6.3-3.86.53-.66.38-1.31.78-1.93,1.21A37.48,37.48,0,0,1,26,57.69Z"/><path class="cls-11" d="M26,57.69a37.48,37.48,0,0,0-4.83,1.21c-.4.28-.8.56-1.18.86a36.8,36.8,0,0,1,5-1.48C25.3,58.08,25.63,57.88,26,57.69Z"/><path class="cls-11" d="M17.42,63.41c-.74.34-1.43.7-2.07,1.07l-.1.14c.49-.22,1-.45,1.61-.68C17,63.76,17.22,63.58,17.42,63.41Z"/><path class="cls-11" d="M24.82,58.38l.15-.1a36.8,36.8,0,0,0-5,1.48c-.32.25-.63.5-.93.76A33.29,33.29,0,0,1,24.82,58.38Z"/><path class="cls-11" d="M17.77,62.45l-1.16.46c-.44.5-.86,1-1.26,1.57.64-.37,1.33-.73,2.07-1.07a20.94,20.94,0,0,1,1.86-1.5C18.77,62.08,18.27,62.26,17.77,62.45Z"/><path class="cls-11" d="M19.28,61.91a21.51,21.51,0,0,1,2-1.24c-1.08.2-2.14.44-3.2.74-.5.47-1,1-1.44,1.5l1.16-.46C18.27,62.26,18.77,62.08,19.28,61.91Z"/><path class="cls-11" d="M24.82,58.38A33.29,33.29,0,0,0,19,60.52c-.33.29-.66.58-1,.89,1.06-.3,2.12-.54,3.2-.74q.66-.39,1.41-.75A25.56,25.56,0,0,1,24.82,58.38Z"/><path class="cls-11" d="M20.67,62.45l-1.13.43a25.1,25.1,0,0,0-6,15.55c1.26-5.67,2.11-11.75,8.45-16.37l.08-.1C21.59,62.11,21.13,62.27,20.67,62.45Z"/><path class="cls-11" d="M22.05,62l.31-.41c-.78.23-1.55.49-2.32.77-.17.18-.34.37-.5.56l1.13-.43C21.13,62.27,21.59,62.11,22.05,62Z"/><path class="cls-11" d="M21,61.41c-.31.29-.61.6-.91.91.77-.28,1.54-.54,2.32-.77.18-.22.36-.43.55-.64C22.25,61.06,21.6,61.22,21,61.41Z"/><path class="cls-11" d="M23.49,60.32c-.53.06-1.07.14-1.6.23-.32.28-.63.56-.94.86.65-.19,1.3-.35,2-.5C23.1,60.71,23.29,60.51,23.49,60.32Z"/><path class="cls-11" d="M22.66,59.92c-.26.21-.52.41-.77.63.53-.09,1.07-.17,1.6-.23a16.14,16.14,0,0,1,1.89-1.58C24.4,59.11,23.5,59.51,22.66,59.92Z"/><path class="cls-11" d="M28.16,57.07H28l-1.07.08-1,.53,1.47-.25Z"/><path class="cls-11" d="M26.48,58h.07c.29-.18.59-.35.89-.52L26,57.69c-.34.19-.67.39-1,.59Z"/><path class="cls-11" d="M26.55,58h0Z"/><path class="cls-11" d="M25,58.28l-.15.1c.55-.15,1.1-.28,1.66-.41Z"/><path class="cls-11" d="M25.38,58.74q.56-.41,1.17-.78h-.07c-.56.13-1.11.26-1.66.41a25.56,25.56,0,0,0-2.16,1.54C23.5,59.51,24.4,59.11,25.38,58.74Z"/><path class="cls-11" d="M15.45,78.43c.94-4.24,1.65-8.7,4.6-12.61a12.94,12.94,0,0,1,1.25-2.75A25.2,25.2,0,0,0,15.45,78.43Z"/><path class="cls-11" d="M20.42,65.34a18.8,18.8,0,0,1,4.89-4.22C22.06,62.61,21,63.66,20.42,65.34Z"/><path class="cls-11" d="M25.31,61.12l.39-.18-.16,0Z"/><path class="cls-11" d="M22.17,61.91l-.2.15c-.24.33-.46.66-.67,1,.37-.43.76-.85,1.16-1.25Z"/><path class="cls-11" d="M19.31,70.7c.55-2.45.68-4.09,1.11-5.36-.13.16-.26.32-.37.48A15.66,15.66,0,0,0,19.31,70.7Z"/><path class="cls-11" d="M36.46,57h0Z"/><path class="cls-11" d="M26.08,60.67l-.54.31.16,0,.81-.35Z"/><path class="cls-11" d="M36.46,57l.8,0,.08,0Z"/><path class="cls-11" d="M22.79,61.5l-.62.41.29-.09A3.34,3.34,0,0,1,22.79,61.5Z"/><path class="cls-11" d="M26.8,60.27c-.25.13-.49.26-.72.4l.43-.08.93-.39Z"/><path class="cls-11" d="M36.14,57l.75,0,.37-.07-.8,0h-.1Z"/><path class="cls-11" d="M26.8,60.27l.64-.07.43-.18h-.61Z"/><path class="cls-11" d="M35.36,57.19l.64.07.89-.2-.75,0Z"/><path class="cls-11" d="M27.26,60h.61c1-.4,2.13-.84,3.42-1.33A37,37,0,0,1,36,57.26l-.64-.07a36.78,36.78,0,0,0-5,1.5A31.73,31.73,0,0,0,27.26,60Z"/><path class="cls-11" d="M22.05,62l-.08.1.2-.15Z"/><path class="cls-11" d="M22.88,61.41l-.52.14-.31.41.12-.05.62-.41Z"/><path class="cls-11" d="M23.56,60.78l-.65.13c-.19.21-.37.42-.55.64l.52-.14C23.1,61.19,23.33,61,23.56,60.78Z"/><path class="cls-11" d="M23.49,60.32c-.2.19-.39.39-.58.59l.65-.13c.21-.19.42-.37.64-.54Z"/><path class="cls-11" d="M25.5,58.69l-.12.05a16.14,16.14,0,0,0-1.89,1.58l.71-.08a25.17,25.17,0,0,1,3-2.16C26.65,58.27,26.07,58.47,25.5,58.69Z"/><path class="cls-11" d="M28.62,57.29c.18-.09.35-.19.53-.27l-1,0-.72.37Z"/><path class="cls-11" d="M28.62,57.29l-1.18.15c-.3.17-.6.34-.89.52l1.35-.27Z"/><path class="cls-11" d="M27.8,57.74l.1-.05L26.55,58h0Z"/><path class="cls-11" d="M27.23,58.08l.57-.34L26.55,58q-.61.38-1.17.78l.12-.05C26.07,58.47,26.65,58.27,27.23,58.08Z"/><path class="cls-11" d="M22.46,61.82c-.4.4-.79.82-1.16,1.25a12.94,12.94,0,0,0-1.25,2.75c.11-.16.24-.32.37-.48.56-1.68,1.64-2.73,4.89-4.22l.23-.14C24.5,61.21,23.47,61.49,22.46,61.82Z"/><path class="cls-11" d="M35,57h-.59l-.15,0Z"/><path class="cls-11" d="M35,57h.47l.86,0H35Z"/><path class="cls-11" d="M34,57.06h0c.51,0,1-.06,1.5-.08H35l-.74,0Z"/><path class="cls-11" d="M34,57.07h0Z"/><path class="cls-11" d="M22.79,61.5a3.34,3.34,0,0,0-.33.32c1-.33,2-.61,3.08-.84l.54-.31c-1,.19-2.09.43-3.12.71Z"/><path class="cls-11" d="M36.36,57l-.86,0,.64,0Z"/><path class="cls-11" d="M24.14,60.67c-.41.23-.81.47-1.18.71,1-.28,2.07-.52,3.12-.71.23-.14.47-.27.72-.4C25.91,60.37,25,60.5,24.14,60.67Z"/><path class="cls-11" d="M25.09,60.15c-.32.17-.64.34-.95.52.89-.17,1.77-.3,2.66-.4l.46-.24C26.54,60.05,25.81,60.09,25.09,60.15Z"/><path class="cls-11" d="M35.36,57.19l.78-.17-.64,0c-.49,0-1,0-1.5.08C34.47,57.1,34.92,57.14,35.36,57.19Z"/><path class="cls-11" d="M34,57.07a36.43,36.43,0,0,0-5.59,1.62,34.26,34.26,0,0,0-3.3,1.46c.72-.06,1.45-.1,2.17-.12a31.73,31.73,0,0,1,3.07-1.34,36.78,36.78,0,0,1,5-1.5c-.44,0-.89-.09-1.36-.12Z"/><path class="cls-11" d="M32.61,57l-1.07,0-.46.1C31.6,57,32.11,57,32.61,57Z"/><path class="cls-11" d="M32.61,57l.93,0,.75,0,.15,0C33.85,57,33.24,57,32.61,57Z"/><path class="cls-11" d="M32.83,57.08l.71,0-.93,0c-.5,0-1,0-1.53.08s-1,.22-1.53.35C30.63,57.26,31.73,57.15,32.83,57.08Z"/><path class="cls-11" d="M34.29,57l-.75,0,.45,0Z"/><path class="cls-11" d="M29.55,57.42l-.58.15c1.55-.22,3.16-.38,4.83-.49H34l-.45,0-.71,0C31.73,57.15,30.63,57.26,29.55,57.42Z"/><path class="cls-11" d="M22.79,61.5l.17-.12-.08,0Z"/><path class="cls-11" d="M22.88,61.41l.08,0c.37-.24.77-.48,1.18-.71l-.58.11C23.33,61,23.1,61.19,22.88,61.41Z"/><path class="cls-11" d="M24.2,60.24c-.22.17-.43.35-.64.54l.58-.11c.31-.18.63-.35.95-.52Z"/><path class="cls-11" d="M29,57.57q-.88.24-1.74.51a25.17,25.17,0,0,0-3,2.16l.89-.09a34.26,34.26,0,0,1,3.3-1.46A36.43,36.43,0,0,1,34,57.07H33.8C32.13,57.19,30.52,57.35,29,57.57Z"/><path class="cls-11" d="M30.9,57.08h.18l.46-.1c-.76,0-1.56,0-2.39.05-.18.08-.35.18-.53.27C29.38,57.2,30.13,57.13,30.9,57.08Z"/><path class="cls-11" d="M29.55,57.42c.51-.13,1-.25,1.53-.35H30.9c-.77.05-1.52.12-2.28.21l-.72.4Z"/><path class="cls-11" d="M29.55,57.42l-1.65.27-.1.05L29,57.57Z"/><path class="cls-11" d="M29,57.57l-1.17.17-.57.34Q28.09,57.81,29,57.57Z"/><path class="cls-11" d="M26.07,60c-.16.18-.8.8-1,1-1.08,1.13-2.9,1.93-4.83,8.69,0,2.9,1,3.86,1,3.86a8.36,8.36,0,0,1,3.87-9.65C29.85,60,29,60.94,29,60.94a13.77,13.77,0,0,0-5.12,6.25A5.93,5.93,0,0,0,25,73.41l.09.08s-2.9-5.79,4.82-11.58C25.11,66.73,27,70.6,27,70.6s-1-6.76,7.72-9.66S30.17,55.38,26.07,60Z"/><path class="cls-12" d="M22.21,38.66s-5.79-1-7.73-1c0,0,7.73-1,8.69,0,0,0-13.51-1.93-14.48,0,0,0,2.9-2.9,13.52-1,0,0-3.86-2.9-16.42-1.93,0,0,8.69-2.9,17.38-1,0,0-14.48-4.82-15.45-2.89,0,0,1.94-1,9.66,0A20.48,20.48,0,0,0,2.9,27.08s8.69-4.83,22.21,3.86c0,0-10.63-7.73-17.39-7.73A34.12,34.12,0,0,1,29,30s-5.8-5.79-7.73-6.76c0,0,6.76,1.93,14.49,10.62,0,0-3.87-6.75-4.83-5.79,0,0,3.86,1,11.59,8.69a14,14,0,0,0-1.94-2.9,12.81,12.81,0,0,1,7.73,5.8C51.18,44.46,55,53.15,55,53.15l-1,5.79S32.83,42.52,22.21,38.66Z"/><path class="cls-13" d="M54.07,56c-2.14-2.28-4.27-4.55-6.44-6.8S43.3,44.71,41,42.57s-4.52-4.29-6.93-6.25a37.21,37.21,0,0,0-3.76-2.74,10.32,10.32,0,0,0-4.28-1.72,9.89,9.89,0,0,1,4.46,1.4,37.11,37.11,0,0,1,3.93,2.6A80.26,80.26,0,0,1,41.56,42c2.23,2.2,4.41,4.45,6.49,6.78S52.17,53.52,54.07,56Z"/><path class="cls-14" d="M54.07,57.94s-29-28-39.59-16.42c0,0,4.83-1.93,5.8-1,0,0-13.52,5.8-14.49,12.56,0,0,6.76-9.66,15.45-11.59,0,0-8.69,6.76-7.72,14.48,0,0,2.9-9.65,10.62-13.51,0,0-4.83,4.82-2.9,11.58a17.94,17.94,0,0,1,4.83-11.58s-2.9,7.72-1,13.51c0,0,0-11.58,1.93-12.55,0,0,0,8.69,1,11.59,0,0,1.93-11.59,1-12.55,0,0,1.93,8.69,1,12.55,0,0,1.93-3.86,0-11.59,0,0,4.83,9.87,3.87,13.63,0,0,1.93-7.83-2.9-13.63,0,0,5.79,8.69,5.79,13.52,0,0,1-7.72-2.89-11.59,0,0,5.79,7.73,4.82,11.59,0,0,1-6.76-1.93-10.62,0,0,5.8,8.69,4.83,11.59a7.68,7.68,0,0,0-1-7.73s2.9,3.86,2.9,7.73c0,0,1-3.87,0-6.76,0,0,2.9,5.79,1.93,7.72a5.45,5.45,0,0,0,0-5.79s1.93,3.86,1.93,6.76a6.66,6.66,0,0,0,0-4.83s2.9,2.9,1.94,5.79c0,0,1,0,1-3.86,0,0,2.9,3.11,1.93,4.94C52.14,61.91,56,59.87,54.07,57.94Z"/><path class="cls-15" d="M71,54.26a45.69,45.69,0,0,1,9.85-1.72,44.23,44.23,0,0,1,10,.44,30.66,30.66,0,0,1,9.49,3.24,24.54,24.54,0,0,1,4.14,2.85,25.67,25.67,0,0,1,3.43,3.64,26.42,26.42,0,0,0-7.77-6.11,31.67,31.67,0,0,0-9.38-3.06,45.55,45.55,0,0,0-9.9-.57c-1.66.07-3.32.21-5,.43A45.6,45.6,0,0,0,71,54.26Z"/><path class="cls-16" d="M93.66,31.86s9.66,1,9.66,2.9c0,0-8.69-1.93-10.62-1a18.77,18.77,0,0,1,10.62,3.86s-9.66-2.9-10.62-1c0,0,6.76,2.9,7.72,2.9,0,0-4.83,1-7.72-1.93,0,0,4.82,3.86,6.76,3.86,0,0-6.76,0-8.69-1.93,0,0,3.86,2.9,6.75,2.9,0,0-3.86,1.93-7.72-1.94,0,0,0,1.94,3.86,2.9,0,0-3.86,1-5.79-1,0,0,1,2.89,6.76,3.86a9.84,9.84,0,0,1-7.73-1.93s2.9,3.86,5.8,3.86c0,0-5.8-1-6.76-1.93,0,0,0,1,3.86,2.9,0,0-5.79,0-6.76-3.87a6.24,6.24,0,0,0,2.9,4.83s-4.83,0-4.83-3.86A4.29,4.29,0,0,0,83,51.18s-3.86-1-4.83-3.87c0,0-1,4.83,2.9,4.83L61.8,55S77.25,34.76,93.66,31.86Z"/><path class="cls-17" d="M54.07,57s5.8-38.62,32.83-38.62c0,0,4.83,0,6.76,1.93,0,0-11.58-1.93-14.48,1.93l8.69,1-5.79,1s7.72,1,6.75,1-9.65,1-11.58,0A20,20,0,0,0,85,27S77.25,29,72.42,27A8.84,8.84,0,0,0,80.14,29s-1.93,1.93-6.76,1c0,0,10.63,1,10.63,2.9,0,0-10.63-2.9-12.56-1,0,0,13.36,1.94,10.63,1.94-1,0-8.7-1.94-10.63,0,0,0,6.76-1,8.69,1.93,0,0-8.69-1.93-9.65,0,0,0,6.76-1,8.69,1.93,0,0-8.69-1.93-11.59,1,0,0,7.73-1.93,9.66,1l-1,1.93s-1.93-2.9-8.69,0c0,0,5.79-1.93,7.73,0l-1.94,1s-5.79,0-6.75,1.93c0,0,6.75-1,6.75,1,0,0-9.65,0-9.65,1.93v6.76Z"/><path class="cls-18" d="M64.69,54.07s1-2.89,1-1.93V55s1-3.86,1.93-4.83c0,0-1,2.9,0,3.86,0,0,0-3.86,1-4.82,0,0-1,2.89,0,4.82,0,0,0-3.86,1-5.79,0,0,0,4.83,2.9,6.76,0,0-1.93-7.73,0-8.69,0,0-1,5.79,1.93,6.76,0,0-1.93-5.8,1-9.66,0,0-1.94,4.83,0,7.73,0,0,1-8.69,2.89-9.66,0,0-1.93,4.83,0,8.69,0,0,0-7.72,1-8.69,0,0-1.93,6.76,1,8.69,0,0-1-10.62,1.94-12.55,0,0-2.9,5.79,0,10.62,0,0-1-10.62,1.93-11.59,0,0-1.93,8.69,1,11.59,0,0-1.93-6.76,1-11.59,0,0-1.93,3.86,1,9.66,0,0-1-8.69,1-10.62,0,0-1,5.79,1,8.69,0,0-1.93-9.66,4.83-12.56,0,0-13.52-1-31.86,23.18Z"/><path class="cls-19" d="M85,90.77a40.27,40.27,0,0,0-2.19-3.83c-.78-1.24-1.6-2.46-2.49-3.63a37.84,37.84,0,0,0-6-6.37A50.52,50.52,0,0,0,67,72.05c-1.29-.71-2.6-1.37-3.94-2a26.6,26.6,0,0,0-4.13-1.53,33.65,33.65,0,0,1,8.17,3.3,48.52,48.52,0,0,1,7.4,4.84,37.62,37.62,0,0,1,6,6.49A42,42,0,0,1,85,90.77Z"/><path class="cls-7" d="M57.94,57a14.53,14.53,0,0,1,3.22-.52,17.07,17.07,0,0,1,3.27.21A17.92,17.92,0,0,1,70.57,59a23,23,0,0,1,4.93,4.31c.72.82,1.31,1.75,2,2.62l1.63,2.84L77.29,66c-.69-.84-1.3-1.74-2-2.52a23.5,23.5,0,0,0-4.9-4.17,18.13,18.13,0,0,0-6-2.33A16,16,0,0,0,57.94,57Z"/><path class="cls-7" d="M25.11,77.25a34.25,34.25,0,0,1,2.75-5.18,33,33,0,0,1,3.58-4.67A21.28,21.28,0,0,1,36,63.63a12.71,12.71,0,0,1,5.55-1.83A14.63,14.63,0,0,0,36.17,64a22.55,22.55,0,0,0-4.38,3.78,36.32,36.32,0,0,0-3.62,4.55A54.71,54.71,0,0,0,25.11,77.25Z"/><path class="cls-7" d="M63.73,53.11a68.68,68.68,0,0,1,6.06-6.82,81.84,81.84,0,0,1,6.8-6.09,63,63,0,0,1,7.62-5,37.06,37.06,0,0,1,8.49-3.32,43.42,43.42,0,0,0-8.38,3.51,62.84,62.84,0,0,0-7.53,5.08,83.18,83.18,0,0,0-6.85,6Q68.3,48,66.76,49.71T63.73,53.11Z"/><path class="cls-7" d="M53.11,57.94a15.42,15.42,0,0,1-2-1.34l-1.89-1.44-3.77-2.88c-2.53-1.89-5.11-3.72-7.78-5.4a52.14,52.14,0,0,0-8.3-4.52A19.9,19.9,0,0,0,24.89,41a7.52,7.52,0,0,0-4.61.5,7.6,7.6,0,0,1,4.63-.66,20.29,20.29,0,0,1,4.58,1.3,52.21,52.21,0,0,1,8.39,4.45c2.66,1.72,5.23,3.58,7.74,5.5,1.26,1,2.5,1.94,3.74,2.93l1.84,1.5A15.34,15.34,0,0,0,53.11,57.94Z"/><path class="cls-14" d="M50.21,60.83c-1.68-.43-3.39-.78-5.1-1.1s-3.42-.59-5.14-.8a46.83,46.83,0,0,0-10.38-.23c-.87,0-1.71.24-2.57.36s-1.7.35-2.52.6a35.76,35.76,0,0,0-4.91,1.73A42.87,42.87,0,0,0,15,63.73a34.77,34.77,0,0,0-4.33,2.9,37.68,37.68,0,0,1,8.89-5.44,35.57,35.57,0,0,1,4.91-1.79c.84-.26,1.69-.43,2.54-.63s1.72-.33,2.6-.39A46.65,46.65,0,0,1,40,58.72,68.14,68.14,0,0,1,50.21,60.83Z"/><path class="cls-20" d="M56,67.59A44.09,44.09,0,0,0,51,72a44.82,44.82,0,0,0-4.34,5,37,37,0,0,0-3.46,5.63,25.09,25.09,0,0,0-2,6.24,32.75,32.75,0,0,0-.42,6.58l0,6.64a41.68,41.68,0,0,0,.5,6.61,23,23,0,0,0,2.17,6.24,23.34,23.34,0,0,1-2.38-6.2,41.11,41.11,0,0,1-.62-6.64c-.08-2.22-.08-4.43-.09-6.65,0-1.11,0-2.21,0-3.33a19.5,19.5,0,0,1,.36-3.33,25.64,25.64,0,0,1,2.12-6.33,34.48,34.48,0,0,1,3.55-5.66A44.37,44.37,0,0,1,56,67.59Z"/><path class="cls-21" d="M54.07,57a91.61,91.61,0,0,1,5.54-13.91,70.67,70.67,0,0,1,7.91-12.71,41.54,41.54,0,0,1,5.2-5.41A27.37,27.37,0,0,1,79,20.89a18.85,18.85,0,0,1,7.26-1.76,21.94,21.94,0,0,1,7.37,1.15,21.93,21.93,0,0,0-7.36-1,18.63,18.63,0,0,0-7.18,1.79,27.19,27.19,0,0,0-6.22,4.06,41.64,41.64,0,0,0-5.13,5.41,69.68,69.68,0,0,0-8,12.61A105.43,105.43,0,0,0,54.07,57Z"/><path class="cls-17" d="M57.94,0A46.51,46.51,0,0,0,53,9.35a56.65,56.65,0,0,0-3,10.12A58.84,58.84,0,0,0,48.77,30c-.13,1.76,0,3.53,0,5.29s.3,3.53.44,5.29c-.23-1.75-.56-3.5-.71-5.27s-.28-3.54-.21-5.32c0-.89,0-1.78.06-2.67l.23-2.66c.06-.88.2-1.76.34-2.64s.24-1.77.45-2.63A53.09,53.09,0,0,1,52.59,9.19,51.79,51.79,0,0,1,55,4.41,35.51,35.51,0,0,1,57.94,0Z"/><path class="cls-22" d="M46.35,45.38s6.76-13.52,14.48-13.52,11.59,3.87,11.59,3.87-6.76-3.87-8.69-2.9c0,0,8.69,1.93,8.69,6.76,0,0-3.86-4.83-7.73-5.79,0,0,6.76,5.79,5.8,9.65,0,0-4.83-9.65-8.69-8.69,0,0,5.79,4.83,5.79,8.69,0,0-5.79-8.69-8.69-8.69l5.79,10.62s-6.75-5.79-6.75-10.62c0,0,0,7.73,2.89,10.62,0,0-2.89,0-3.86-8.69,0,0,0,7.73,1.93,10.62,0,0-3.86-1.93-3.86-10.62,0,0,0,10.62,1,14.49a31.54,31.54,0,0,1-2.89-12.56V52.14s-1.93-6.76-1-12.55c0,0-1.93,10.62-1.93,12.55V41.52s-1.93,6.76-1.93,9.66c0,0,0-11.59,3.86-12.56C52.14,38.62,52.14,36.69,46.35,45.38Z"/></g></g></g></svg>