<svg xmlns="http://www.w3.org/2000/svg" viewBox="0 0 153 79.46"><defs><style>.cls-1{fill:#8a7167;}.cls-2{fill:#6d4d41;}.cls-3{fill:#fff;}.cls-4{fill:#bfbfbf;}</style></defs><title>Grouse Mountain</title><g id="Layer_2" data-name="Layer 2"><g id="Objects"><g id="Grouse_Mountain" data-name="Grouse Mountain"><path class="cls-1" d="M86.58,29.76l-3-8-7.91,5.68C60.16,49,40.83,74.78,40.83,74.78l-4.68,4.68h81.56L103.87,31.9,95.44,21.81Z"/><path class="cls-2" d="M107.25,27.11l-3,5.3-.42-.51,13.84,47.54H153c-2.8,0-21.52-26.81-37.09-49.33l-2.76,4.94Z"/><path class="cls-3" d="M94.58,0c-1.74,3.48-9.64,14.73-18.86,27.49l7.91-5.68,3,8,8.86-8,8.43,10.09L94.59,0Z"/><path class="cls-4" d="M103.87,31.9l.42.51,3-5.3,5.9,7.94,2.76-4.94C105.5,15.05,96.49,1.92,94.59,0Z"/><path class="cls-1" d="M52.25,18.71h0c-.2.38-.49.9-.87,1.52l1-1.27Z"/><path class="cls-2" d="M52.39,18.86l-.14-.15.07.24Z"/><path class="cls-1" d="M45,35.05l-4.67,7-4.68-7-3.1,1.56C20.31,53.56,3.57,75.88,3.57,75.88L0,79.46H62.36L49.74,36.08A22.43,22.43,0,0,1,45,35.05Z"/><path class="cls-2" d="M58,37.33c-1.51-.14-4.33-.62-6-2.28,0,.88-1,1.1-2.22,1L62.36,79.46h27C87,79.46,70.32,55.23,58,37.33Z"/><path class="cls-3" d="M40.28,42.07l4.67-7a22.43,22.43,0,0,0,4.79,1L44.76,19l-.95,1.27c-2,3.2-6.24,9.33-11.31,16.39l3.1-1.56Z"/><path class="cls-4" d="M49.74,36.08c1.24.07,2.22-.15,2.22-1,1.66,1.66,4.48,2.14,6,2.28-6.4-9.26-11.63-16.82-13.12-18.47l-.07.09Z"/></g></g></g></svg>