<svg xmlns="http://www.w3.org/2000/svg" viewBox="0 0 37.61 131.65"><defs><style>.cls-1{fill:#c0d9fd;opacity:0.76;}.cls-2{fill:#9f2a27;}.cls-3{fill:#e93934;}.cls-4{opacity:0.32;}.cls-5{fill:#ed605c;}.cls-6{fill:#720401;}.cls-7{fill:#fff;}.cls-10,.cls-12,.cls-13,.cls-14,.cls-15,.cls-8,.cls-9{fill:none;}.cls-8,.cls-9{stroke:#720401;}.cls-8{stroke-miterlimit:10;stroke-width:0.31px;}.cls-10,.cls-12,.cls-13,.cls-14,.cls-15,.cls-9{stroke-linecap:round;stroke-linejoin:round;}.cls-9{stroke-width:0.21px;}.cls-10,.cls-12,.cls-13,.cls-14,.cls-15{stroke:#e93934;}.cls-10{stroke-width:0.38px;}.cls-11{fill:#ec5652;}.cls-12{stroke-width:0.36px;}.cls-13{stroke-width:0.37px;}.cls-14{stroke-width:0.35px;}.cls-15{stroke-width:0.63px;}.cls-16{opacity:0.13;}.cls-17{fill:#bfbfbf;opacity:0.6;}.cls-18{fill:#2e2520;}</style></defs><title>Lighthouse</title><g id="Layer_2" data-name="Layer 2"><g id="Objects"><g id="Lighthouse"><path class="cls-1" d="M18.81,18.81a19.12,19.12,0,0,1-7.53-1.46v6.89H26.33V17.35A19.1,19.1,0,0,1,18.81,18.81Z"/><path class="cls-2" d="M8.78,27.58s0-5,10-5,10,5,10,5v10H8.78Z"/><path class="cls-3" d="M26.33,15.05v0h0l-7-7-.23-.56-.3,0a1.88,1.88,0,0,1-1.74-1.15l-5.79,8.68Z"/><path class="cls-3" d="M18.81,0h0V0s-1.88,4.6-1.88,5.64a2,2,0,0,0,.14.73l1.74-2.61Z"/><path class="cls-3" d="M18.81,7.52l.3,0-.3-.72v-3L17.07,6.37A1.88,1.88,0,0,0,18.81,7.52Z"/><path class="cls-3" d="M19.34,8a2.6,2.6,0,0,1-.1-.25l-.43-.28L7.52,15H29l-2.73,0Z"/><path class="cls-4" d="M30.09,15h0Z"/><path class="cls-5" d="M19.24,7.79l-.13-.31.23.56,7,7h0l-3-4.49Z"/><path class="cls-3" d="M23.32,10.52,20.54,6.35a1.87,1.87,0,0,1-1.43,1.13l.13.31Z"/><path class="cls-4" d="M23.32,10.52,20.54,6.35a1.87,1.87,0,0,1-1.43,1.13l.13.31Z"/><path class="cls-3" d="M19.24,7.79a2.6,2.6,0,0,0,.1.25l7,7L29,15h1.05Z"/><path class="cls-4" d="M19.24,7.79a2.6,2.6,0,0,0,.1.25l7,7L29,15h1.05Z"/><path class="cls-3" d="M18.81,3.75l1.73,2.6a1.75,1.75,0,0,0,.15-.72c0-1-1.76-5.34-1.88-5.63h0Z"/><path class="cls-4" d="M18.81,3.76l1.73,2.61a1.8,1.8,0,0,0,.15-.73c0-1-1.76-5.33-1.88-5.62h0Z"/><path class="cls-3" d="M20.54,6.35l-1.73-2.6v3l.3.72A1.87,1.87,0,0,0,20.54,6.35Z"/><path class="cls-4" d="M20.54,6.37,18.81,3.76v3l.3.72A1.84,1.84,0,0,0,20.54,6.37Z"/><path class="cls-6" d="M26.33,16.72v.63a12.66,12.66,0,0,0,3.76-2.3s-3.76-3.77-11.28-3.77S7.52,15.05,7.52,15.05a12.66,12.66,0,0,0,3.76,2.3v-.63C18.81,13,26.33,16.72,26.33,16.72Z"/><path class="cls-6" d="M26.33,17.35v-.63s-7.52-3.76-15,0v.63a19.12,19.12,0,0,0,7.53,1.46A19.1,19.1,0,0,0,26.33,17.35Z"/><path class="cls-4" d="M26.33,17.35v-.63s-7.52-3.76-15,0v.63a19.12,19.12,0,0,0,7.53,1.46A19.1,19.1,0,0,0,26.33,17.35Z"/><path class="cls-7" d="M25.47,120.8c-.31-6.72-.77-16.27-1.35-26.35-4.43-.41-7.9-.41-7.9-.41S8.79,94,4,96L.72,122.13c2.31-.9,6.73-1.77,15.24-1.77A93.77,93.77,0,0,1,25.47,120.8Z"/><path class="cls-7" d="M22.29,67.94c-1-12.13-2.21-21.53-3.48-22.8-2.8-2.8-7.35-1.6-9.73-.69.3,3.34.1,10-1.56,23.26l-.07.6a53.28,53.28,0,0,1,8.77-.6C18.5,67.71,20.51,67.79,22.29,67.94Z"/><path class="cls-3" d="M24.12,94.45c-.52-9-1.14-18.36-1.83-26.51-1.78-.15-3.79-.23-6.07-.23a53.28,53.28,0,0,0-8.77.6L4,96c4.81-2,12.24-2,12.24-2S19.69,94,24.12,94.45Z"/><path class="cls-8" d="M33.85,30.09c0-1-6.73-3.76-15-3.76s-15,2.72-15,3.76,6.74,0,15.05,0S33.85,31.13,33.85,30.09Z"/><line class="cls-9" x1="7.1" y1="30.51" x2="7.1" y2="38.03"/><line class="cls-10" x1="7.52" y1="27.37" x2="7.52" y2="36.57"/><line class="cls-9" x1="8.36" y1="30.51" x2="8.36" y2="38.03"/><line class="cls-9" x1="5.85" y1="30.51" x2="5.85" y2="38.03"/><line class="cls-9" x1="4.6" y1="30.51" x2="4.6" y2="38.03"/><line class="cls-9" x1="31.76" y1="30.51" x2="31.76" y2="38.03"/><line class="cls-9" x1="33.02" y1="30.51" x2="33.02" y2="38.03"/><line class="cls-9" x1="30.51" y1="30.51" x2="30.51" y2="38.03"/><line class="cls-9" x1="29.26" y1="30.51" x2="29.26" y2="38.03"/><line class="cls-10" x1="6.27" y1="28.42" x2="6.27" y2="37.61"/><path class="cls-11" d="M8.78,27.58v10H22.57c0-3.42-6.24-13.08-7.35-14.78C8.78,23.86,8.78,27.58,8.78,27.58Z"/><path class="cls-2" d="M28.84,27.58s0-5-10-5a23.18,23.18,0,0,0-3.59.26c1.11,1.7,7.35,11.36,7.35,14.78h6.27Z"/><line class="cls-10" x1="5.02" y1="28.42" x2="5.02" y2="37.61"/><line class="cls-10" x1="30.09" y1="27.37" x2="30.09" y2="36.57"/><line class="cls-12" x1="26.33" y1="26.75" x2="26.33" y2="35.11"/><line class="cls-10" x1="22.57" y1="26.33" x2="22.57" y2="35.52"/><line class="cls-10" x1="18.81" y1="26.33" x2="18.81" y2="35.52"/><line class="cls-10" x1="15.05" y1="35.52" x2="15.05" y2="26.33"/><line class="cls-12" x1="11.28" y1="26.75" x2="11.28" y2="35.11"/><line class="cls-10" x1="31.35" y1="28.42" x2="31.35" y2="37.61"/><line class="cls-10" x1="28.42" y1="27.17" x2="28.42" y2="36.36"/><line class="cls-13" x1="24.66" y1="26.54" x2="24.66" y2="35.32"/><line class="cls-10" x1="16.72" y1="26.33" x2="16.72" y2="35.52"/><line class="cls-12" x1="12.96" y1="26.75" x2="12.96" y2="35.11"/><line class="cls-14" x1="9.19" y1="26.96" x2="9.19" y2="34.9"/><line class="cls-10" x1="32.6" y1="28.42" x2="32.6" y2="37.61"/><polygon class="cls-6" points="3.76 37.61 11.28 41.38 11.28 37.61 3.76 37.61"/><path class="cls-6" d="M33.85,37.61c0-1-6.73-3.76-15-3.76s-15,2.73-15,3.76,6.74,0,15.05,0S33.85,38.65,33.85,37.61Z"/><path class="cls-15" d="M33.85,37.61s-17.19,7.53-30.09,0m15.05-3.76c11.28,0,15,3.76,15,3.76V30.09s0-3.76-15-3.76-15,3.76-15,3.76v7.52S7.52,33.85,18.81,33.85Z"/><line class="cls-10" x1="20.9" y1="26.33" x2="20.9" y2="35.52"/><path class="cls-3" d="M37.61,127.89l-.17-2,.08,2Z"/><path class="cls-3" d="M18.81,131.65a50,50,0,0,0,11.41-1.31H25.87s-.14-3.69-.4-9.54a93.77,93.77,0,0,0-9.51-.44c-8.51,0-12.93.87-15.24,1.77L0,127.89A45.64,45.64,0,0,0,18.81,131.65Z"/><path class="cls-7" d="M34.87,96.32a60.55,60.55,0,0,0-10.75-1.87c.58,10.08,1,19.63,1.35,26.35,6.87.68,10.31,2,11.77,2.77Z"/><path class="cls-16" d="M34.87,96.32a60.55,60.55,0,0,0-10.75-1.87c.58,10.08,1,19.63,1.35,26.35,6.87.68,10.31,2,11.77,2.77Z"/><path class="cls-7" d="M18.81,45.14c1.27,1.27,2.45,10.67,3.48,22.8a34.17,34.17,0,0,1,10.3,2.14l-2.5-28.7s7.52-7.53-11.28-7.53C4.93,33.85,5.39,38,6.58,40.1a2.83,2.83,0,0,0,1.47,1.16c.37.14.82.83,1,3.19C11.46,43.54,16,42.34,18.81,45.14Z"/><path class="cls-16" d="M18.81,45.14c1.27,1.27,2.45,10.67,3.48,22.8a34.17,34.17,0,0,1,10.3,2.14l-2.5-28.7s7.52-7.53-11.28-7.53C4.93,33.85,5.39,38,6.58,40.1a2.83,2.83,0,0,0,1.47,1.16c.37.14.82.83,1,3.19C11.46,43.54,16,42.34,18.81,45.14Z"/><path class="cls-3" d="M32.59,70.08a34.17,34.17,0,0,0-10.3-2.14c.69,8.15,1.31,17.54,1.83,26.51a60.55,60.55,0,0,1,10.75,1.87Z"/><path class="cls-16" d="M32.59,70.08a34.17,34.17,0,0,0-10.3-2.14c.69,8.15,1.31,17.54,1.83,26.51a60.55,60.55,0,0,1,10.75,1.87Z"/><path class="cls-3" d="M37.44,125.89l-.09-2.26-.11-.06Z"/><path class="cls-17" d="M37.44,125.89l-.09-2.26-.11-.06Z"/><path class="cls-3" d="M25.47,120.8c.26,5.85.4,9.54.4,9.54h4.35a37.62,37.62,0,0,0,7.3-2.41l-.08-2-.2-2.32C35.78,122.82,32.34,121.48,25.47,120.8Z"/><path class="cls-16" d="M25.47,120.8c.26,5.85.86,10.85.86,10.85l3.89-1.31a37.62,37.62,0,0,0,7.3-2.41l-.08-2-.2-2.32C35.78,122.82,32.34,121.48,25.47,120.8Z"/><path d="M18.81,52.66h0a1.88,1.88,0,0,1,1.88,1.88v6.39a0,0,0,0,1,0,0H16.93a0,0,0,0,1,0,0V54.54A1.88,1.88,0,0,1,18.81,52.66Z"/><path d="M18.81,79h0a1.88,1.88,0,0,1,1.88,1.88v6.39a0,0,0,0,1,0,0H16.93a0,0,0,0,1,0,0V80.87A1.88,1.88,0,0,1,18.81,79Z"/><path class="cls-18" d="M18.81,119.24h0a2.82,2.82,0,0,1,2.82,2.82v9.59a0,0,0,0,1,0,0H16a0,0,0,0,1,0,0v-9.59A2.82,2.82,0,0,1,18.81,119.24Z"/><path d="M18.32,120.36h1a1.39,1.39,0,0,1,1.39,1.39v3.12a0,0,0,0,1,0,0H16.93a0,0,0,0,1,0,0v-3.12A1.39,1.39,0,0,1,18.32,120.36Z"/></g></g></g></svg>