<svg xmlns="http://www.w3.org/2000/svg" xmlns:xlink="http://www.w3.org/1999/xlink" viewBox="0 0 1200 436.3"><defs><style>.cls-1{fill:url(#_ÂÁ_Ï_ÌÌ_È_ËÂÌÚ_22);}.cls-2{fill:url(#_ÂÁ_Ï_ÌÌ_È_ËÂÌÚ_35);}.cls-3{fill:url(#_ÂÁ_Ï_ÌÌ_È_ËÂÌÚ_39);}.cls-4{fill:url(#_ÂÁ_Ï_ÌÌ_È_ËÂÌÚ_38);}.cls-5{fill:url(#_ÂÁ_Ï_ÌÌ_È_ËÂÌÚ_49);}.cls-6{fill:url(#_ÂÁ_Ï_ÌÌ_È_ËÂÌÚ_56);}.cls-7{fill:url(#_ÂÁ_Ï_ÌÌ_È_ËÂÌÚ_88);}</style><linearGradient id="_ÂÁ_Ï_ÌÌ_È_ËÂÌÚ_22" x1="600" y1="436.3" x2="600" gradientUnits="userSpaceOnUse"><stop offset="0.79" stop-color="#ffd2cc"/><stop offset="1" stop-color="#ffad8c"/></linearGradient><linearGradient id="_ÂÁ_Ï_ÌÌ_È_ËÂÌÚ_35" x1="600" y1="436.3" x2="600" y2="15.49" gradientUnits="userSpaceOnUse"><stop offset="0.65" stop-color="#ffd2cc"/><stop offset="1" stop-color="#ff8f85"/></linearGradient><linearGradient id="_ÂÁ_Ï_ÌÌ_È_ËÂÌÚ_39" x1="600" y1="436.3" x2="600" y2="80.75" gradientUnits="userSpaceOnUse"><stop offset="0.59" stop-color="#ffad8c"/><stop offset="1" stop-color="#d06a75"/></linearGradient><linearGradient id="_ÂÁ_Ï_ÌÌ_È_ËÂÌÚ_38" x1="600" y1="436.3" x2="600" y2="148.37" gradientUnits="userSpaceOnUse"><stop offset="0.54" stop-color="#ffad8c"/><stop offset="0.76" stop-color="#d06a75"/><stop offset="1" stop-color="#7d5161"/></linearGradient><linearGradient id="_ÂÁ_Ï_ÌÌ_È_ËÂÌÚ_49" x1="600" y1="436.3" x2="600" y2="110.88" gradientUnits="userSpaceOnUse"><stop offset="0.44" stop-color="#d06a75"/><stop offset="0.74" stop-color="#7d5161"/><stop offset="1" stop-color="#5a445b"/></linearGradient><linearGradient id="_ÂÁ_Ï_ÌÌ_È_ËÂÌÚ_56" x1="3120" y1="436.3" x2="3120" y2="236.45" gradientTransform="matrix(-1, 0, 0, 1, 3720, 0)" gradientUnits="userSpaceOnUse"><stop offset="0" stop-color="#7d5161"/><stop offset="0.62" stop-color="#5a445b"/><stop offset="1" stop-color="#4b3b50"/></linearGradient><linearGradient id="_ÂÁ_Ï_ÌÌ_È_ËÂÌÚ_88" x1="600" y1="571.01" x2="600" y2="317.79" gradientUnits="userSpaceOnUse"><stop offset="0" stop-color="#7d5161"/><stop offset="1" stop-color="#4b3b50"/></linearGradient></defs><title>mountains</title><g id="Layer_2" data-name="Layer 2"><g id="_ÎÓÈ_1" data-name="—ÎÓÈ_1"><path class="cls-1" d="M1200,0V436.3H0V1.91q5.13-.3,10.48-.38C72.06.63,112.1,22.77,165.33,33.36c70.34,14,159.6,6.82,236.09-2.73S558.53,9.34,638,15.49c59,4.57,107.48,18.39,161.52,27.64s125.73,13.12,170.39-.79c25.68-8,36.79-20.27,61.81-28.51C1066,2.53,1118.23,1.16,1165.9.43,1177.17.25,1188.57.09,1200,0Z"/><path class="cls-2" d="M1200,77.2V436.3H0V89.88C39.52,78,76,62.74,113.88,49.13c48.19-17.31,101.48-32.5,158.71-33.58C331,14.45,387,28.14,438,44.07s100.17,34.5,155.7,44.69,120.52,10.79,168.48-7.89c39.5-15.39,66-42.88,113-48.66,39.53-4.86,78.29,7.63,114.85,17.32C1055.54,66.89,1127.61,76.31,1200,77.2Z"/><path class="cls-3" d="M1105.24,146.54c-38.15,12.87-75.47,29.68-124.33,30.34-61.77.85-105.77-24.12-136.93-46.57s-71.2-48-132.88-49.5c-44.35-1.08-84.37,11.3-113.59,25.37s-52.43,30.54-86.69,42.43-85.2,18.27-123.16,8.57c-42.29-10.82-51.79-36.66-94.15-47.43-38.67-9.83-89.81-3.09-126.24,8.16s-65.34,26.58-103.93,36.47A364.13,364.13,0,0,1,0,164.24V436.3H1200V123.07C1166,129,1133.94,136.86,1105.24,146.54Z"/><path class="cls-4" d="M1200,185.79V436.3H0V150.51a252.43,252.43,0,0,1,48.56,9.79c26.75,7.95,51.63,18.24,80.51,23.35,52.17,9.25,108.77.29,159.79-10.81S391.27,148.26,446,148.37c97.49.21,182,43.3,279.44,44.22,80.38.77,154.72-27.42,235.1-27.11,48,.18,93.68,10.52,140.23,17C1133,187,1168.05,189.49,1200,185.79Z"/><path class="cls-5" d="M1200,229.07V436.3H0V110.9c50.12-.66,100.17,11.69,142,27.95,49.7,19.31,91.89,44.15,141.37,63.64s110.27,33.72,169.72,27.4c43.5-4.62,81.53-19.71,124.76-25.09,82.9-10.31,165.6,16.39,250.35,19.5,74.93,2.75,149-13.1,224-10.65C1101.53,215.26,1151.29,224.69,1200,229.07Z"/><path class="cls-6" d="M0,286.46V436.3H1200V316c-27.15-.77-53.91-6.94-77.94-14.49-30.53-9.61-58.81-21.6-91.17-29.1-79.13-18.35-169.2-7.33-252.13,4.67S607.27,301.76,526.2,286.3C462.73,274.19,410.75,245.82,345,238.42c-71.14-8-142.33,10-209,26.11C92.94,274.93,46.08,284.74,0,286.46Z"/><path class="cls-7" d="M1200,375.73V436.3H0V350.45c82.06,9.32,162.5,30.87,243.7,46.8,92.4,18.13,188.75,28.89,280.12,6.09C588,387.34,647,355.41,710.4,336.55s136.4-23,191.43,13.64c23.89,15.9,43.08,38.67,68.68,51.66,46.89,23.81,103.24,9.85,153.81-4.56Z"/></g></g></svg>