<svg xmlns="http://www.w3.org/2000/svg" viewBox="0 0 512 367.09"><defs><style>.cls-1{fill:#ebaeae;}</style></defs><title>music</title><g id="Layer_2" data-name="Layer 2"><g id="Capa_1" data-name="Capa 1"><path class="cls-1" d="M264.73,0A23.15,23.15,0,0,0,247.8,7.14L122.59,87.29H24.07A23.13,23.13,0,0,0,7.14,94.43,23.14,23.14,0,0,0,0,111.35V255.74a23.13,23.13,0,0,0,7.14,16.93,23.09,23.09,0,0,0,16.93,7.14h98.52L247.81,360a24.07,24.07,0,0,0,41-16.92v-319a23.17,23.17,0,0,0-7.15-16.93A23.18,23.18,0,0,0,264.73,0Z"/><path class="cls-1" d="M399.75,236.76a96.88,96.88,0,0,0,0-106.6q-16-24.82-42.3-35a21.12,21.12,0,0,0-9.4-1.88,23.41,23.41,0,0,0-16.92,7A22.92,22.92,0,0,0,324,117.37a20.24,20.24,0,0,0,4.51,13.35,44,44,0,0,0,10.9,9.4q6.39,4,12.79,8.65a38.21,38.21,0,0,1,10.9,13.35q4.52,8.65,4.51,21.44T363.09,205a38,38,0,0,1-10.9,13.35q-6.4,4.71-12.79,8.65a44.17,44.17,0,0,0-10.9,9.4A20.25,20.25,0,0,0,324,249.74a23,23,0,0,0,7.14,17.12A23.41,23.41,0,0,0,348,273.81a21,21,0,0,0,9.41-1.88Q383.78,261.39,399.75,236.76Z"/><path class="cls-1" d="M395.43,6.44a27.14,27.14,0,0,0-9.77-1.88,23.13,23.13,0,0,0-16.93,7.14,23.12,23.12,0,0,0-7.14,16.93q0,14.65,14.66,22.18,21.06,10.92,28.58,16.55a144,144,0,0,1,43.44,181.43,142.07,142.07,0,0,1-43.44,51q-7.51,5.64-28.58,16.54-14.65,7.53-14.66,22.19a23.15,23.15,0,0,0,7.14,16.93,23.57,23.57,0,0,0,17.3,7.14,26.21,26.21,0,0,0,9.4-1.88q52.63-22.18,84.6-70.88t32-106.23Q512,126,480,77.33T395.43,6.44Z"/></g></g></svg>