<svg xmlns="http://www.w3.org/2000/svg" viewBox="0 0 512 371.35"><defs><style>.cls-1{fill:#ebaeae;}</style></defs><title>mute</title><g id="Layer_2" data-name="Layer 2"><g id="Capa_1" data-name="Capa 1"><path class="cls-1" d="M413.38,227.66h0a194.8,194.8,0,0,0,4.39-42c0-101-69.63-139.26-69.63-139.26h0V74.83h0S394.56,105,394.56,185.68a189.05,189.05,0,0,1-2.09,28.47h0Z"/><path class="cls-1" d="M348.14,185.49h0c-.09-87-69.63-115.86-69.63-115.86h0V95.42c.5.21,39.44,17.08,45.6,74.54h0Z"/><path class="cls-1" d="M475.75,268h0c7-21.7,11.65-48.79,11.65-82.3,0-129.07-69.63-162.47-69.63-162.47h0V53.33h0S464.19,79,464.19,185.68c0,28.68-3.37,51.5-8.26,69.49h0Z"/><polygon class="cls-1" points="45.54 41.82 499.33 340.62 499.33 340.62 512 321.17 512 321.17 58.21 22.37 58.21 22.37 45.54 41.82 45.54 41.82"/><polygon class="cls-1" points="155.39 60.9 255.3 125.49 255.3 125.49 255.3 0 255.3 0 155.39 60.9 155.39 60.9"/><path class="cls-1" d="M417.77,348.14s10.79-5.18,23.86-19.31l-20.69-13.38h0l-3.16,2.12v30.57Z"/><path class="cls-1" d="M0,136.17v99S0,260,24.18,260H72.53L255.3,371.35h0v-163h0L89.36,101.15h0L72.53,111.41H24.18C0,111.41,0,136.17,0,136.17Z"/><path class="cls-1" d="M278.51,275.94v25.78h0s30-12.44,50.6-45.6h0L310.8,244.28h0c-13.65,23.74-32.29,31.66-32.29,31.66Z"/><path class="cls-1" d="M348.14,295.55v29.38h0s18.2-10,36-33.28l-19-12.3h0c-9.16,11.3-16.94,16.2-16.94,16.2Z"/></g></g></svg>