<svg xmlns="http://www.w3.org/2000/svg" xmlns:xlink="http://www.w3.org/1999/xlink" viewBox="0 0 1347.37 190.27"><defs><style>.cls-1,.cls-2,.cls-3,.cls-4{fill-rule:evenodd;}.cls-1{fill:url(#linear-gradient);}.cls-2{fill:url(#linear-gradient-2);}.cls-3{fill:url(#linear-gradient-3);}.cls-4{fill:url(#linear-gradient-4);}</style><linearGradient id="linear-gradient" y1="60.28" x2="1347.37" y2="60.28" gradientUnits="userSpaceOnUse"><stop offset="0" stop-color="#669ba9"/><stop offset="0.68" stop-color="#1d6b80"/><stop offset="1" stop-color="#005870"/></linearGradient><linearGradient id="linear-gradient-2" y1="91.21" x2="1347.37" y2="91.21" gradientUnits="userSpaceOnUse"><stop offset="0" stop-color="#9ed5e2"/><stop offset="0.32" stop-color="#68bed2"/><stop offset="0.78" stop-color="#1e9dbb"/><stop offset="1" stop-color="#0090b2"/></linearGradient><linearGradient id="linear-gradient-3" x1="1347.37" y1="94.56" x2="0" y2="94.56" gradientUnits="userSpaceOnUse"><stop offset="0" stop-color="#2b7488"/><stop offset="1" stop-color="#1f6c81"/></linearGradient><linearGradient id="linear-gradient-4" y1="135.62" x2="1347.37" y2="135.62" xlink:href="#linear-gradient-2"/></defs><title>ocean</title><g id="Layer_2" data-name="Layer 2"><g id="OBJECTS"><path class="cls-1" d="M1347.37,120.55H0V38.8C36.72,60,86,58.32,108.84,30.72,134.92-.81,177.76,5,205.61,32.37c10,9.79,59.89,29.42,78.91,10,21.69-22.16,71.55-41.16,101.24-11.74,82.42,81.67,154-84.74,213-1.82,24,33.7,71.2,12.86,95.8-5.87,80.67-61.46,102.86,20.16,155.81,20.16C919.9,38.86,914.76,3.91,951.26,1.72c20.47-1.23,48.32,41.36,118,41.36,62.27,0,42.4-36.89,93-40.73,48.26-3.65,96.18,75.79,157.46,30.55a114.22,114.22,0,0,1,27.62-14.64Z"/><path class="cls-2" d="M0,165.22H1347.37V76.78c-32.37,12.14-68,5.48-86.42-21.86-26.09-38.72-68.92-31.6-96.77,2-10,12-59.89,36.12-78.91,12.26C1063.58,42,1013.72,18.67,984,54.79c-82.42,100.28-154-104-213-2.24-24,41.38-71.2,15.8-95.79-7.21C594.54-30.12,572.35,70.09,519.4,70.09,449.89,64.91,455,22,418.53,19.31c-20.47-1.51-48.33,50.78-118,50.78-62.27,0-42.4-45.29-93-50C159.24,15.6,111.32,113.14,50,57.6c-12.29-11.14-30.93-21.79-50-25Z"/><path class="cls-3" d="M0,153.94H1347.37V60.4C1321.92,42.1,1314,34,1270.16,66.52c-37.59,27.9-95.25,28.82-120.61-1.07-26.35-31.06-69.64-25.35-97.78,1.63-10.07,9.64-60.51,29-79.73,9.83-21.92-21.83-72.31-40.54-102.3-11.57-83.28,80.45-155.6-83.47-215.26-1.79-24.25,33.2-71.94,12.67-96.79-5.78C476.17-2.78,453.75,77.62,400.24,77.62c-70.23-4.15-65-38.57-101.92-40.74-20.68-1.21-48.83,40.74-119.22,40.74-62.93,0-42.85-36.33-94-40.11C57.45,35.47,29.93,59.7,0,73Z"/><path class="cls-4" d="M1347.37,190.27H0V115.5c36.84,19.93,87,18.62,110-6.68,26.08-28.6,68.92-23.34,96.77,1.49,10,8.88,59.88,26.68,78.91,9.06C307.4,99.27,357.27,82.05,387,108.72c82.41,74.05,154-76.84,213-1.65,24,30.56,71.2,11.66,95.8-5.33C776.45,46,798.63,120,851.59,120c69.5-3.83,64.37-35.51,100.86-37.5,20.48-1.11,48.33,37.5,118,37.5,62.27,0,42.4-33.44,93-36.92,48.25-3.32,96.18,68.71,157.46,27.7a117,117,0,0,1,26.42-12.87Z"/></g></g></svg>