<svg xmlns="http://www.w3.org/2000/svg" viewBox="0 0 80.05 76.58"><defs><style>.cls-1{fill:#fe5564;}.cls-2{fill:#fe6875;}.cls-3{fill:#ff7177;}.cls-4{fill:#005373;}.cls-5{fill:#fff;}.cls-6{fill:#750000;}.cls-7{fill:#460000;}</style></defs><title>Aquarium</title><g id="Layer_2" data-name="Layer 2"><g id="Objects"><g id="Aquarium"><path class="cls-1" d="M27.57,36.93c-3.89,5.54-11.07,6.25-13.73,6.28-3.07,0-6.32-.23-7.32-2.6a4.48,4.48,0,0,1-.24-2.93c.75-2.7,4.62-3.31,5.87-.86a2,2,0,0,1-.31,2.54c-.16.12-2.2,1.71-.89,2.3,1.72.78,6.85-1.63,6.15-5.52S7,26.73,1.93,33.21A9.15,9.15,0,0,0,0,38.71c0,3.78,1.17,11.07,9.5,13.71a34.18,34.18,0,0,0,21.66-.67S32.62,41.63,27.57,36.93Z"/><path class="cls-1" d="M32.61,43.58c-.3,3.84-7.29,12.62-7.65,13.61a2,2,0,0,1-.18.36,8,8,0,0,1-2,2.2,2.47,2.47,0,0,1-3.64-.69A1.55,1.55,0,0,1,21.24,57c.1.07,1.29,1.05,1.55.19.34-1.14-1.66-3.76-4.09-2.83-6.1,2.35-3.95,10.87,4.39,11,.13,0,.26,0,.39,0,1.43-.09,9.87-.9,11-7.57,1-5.82,4-12.84,4.31-13.79C42.36,33.25,33.55,31.76,32.61,43.58Z"/><path class="cls-1" d="M25.41,39.78c0-.61,8,22.89,9.79,25.74,0,1.22-.94,2.12-2.1,3.3a3.31,3.31,0,0,1-4.88.1,1.74,1.74,0,0,1,.2-2.54,1.91,1.91,0,0,1,2.06-.63c.13.07,1.9,1,2.05-.18.2-1.51-3-4.29-5.92-2.46-7.45,4.6-1.26,16.67,8,12.66.16-.06.36,0,.5-.08,3.33-2.33,7.83-5.78,7.91-14.49.06-7.59-2.56-28.77-3.83-29C38.85,32.15,25.46,40.57,25.41,39.78Z"/><path class="cls-1" d="M48.6,45.72c-1.59,3.35.31,16.09.58,18.44a8.15,8.15,0,0,0,1,2.94,1.72,1.72,0,0,0,.41.32,4.1,4.1,0,0,0,3.95.06,2.09,2.09,0,0,0,1.21-1.27,1.21,1.21,0,0,0-.93-1.61,1.46,1.46,0,0,0-1.59.4c-.08.1-1,1.4-1.46.69-.61-.93.68-4,3.26-4,6.51.11,6.07,10.59-1.52,11.61-.13,0-.24.15-.37.14-3-.23-7.13-.74-9.91-6.5-2.41-5-7.25-20.15-6.44-20.8C37.07,46,48.87,45.15,48.6,45.72Z"/><path class="cls-1" d="M48.86,35.56c3.5,1.61,11.46,2.2,12.48,2.37a1.79,1.79,0,0,0,.4,0,7.63,7.63,0,0,0,2.76-.64,2.42,2.42,0,0,0,1-3.53,1.37,1.37,0,0,0-1.89-.53,1.33,1.33,0,0,0-.84,1.33c0,.12.36,1.64-.51,1.45-1.14-.26-2.74-3.51-.69-5,9.24-6.52,12,6.93,7.89,9.85C64.28,44.6,60,48,53.94,48.05s-7.51-6.21-8.08-6.33C34.89,39.6,38.09,30.62,48.86,35.56Z"/><path class="cls-1" d="M56.46,45.72s-4.89.48-1.29,5.47,12.32,2.48,12.32,2.48,7.77-3.2,5.05-8.36c-3.11-1.48-5.68,1.51-4.82,3,.09.15,1.27,2-.07,2.28-1.76.33-5.27-3-3.27-6.36,1.88-3.16,10-7.39,14.08-.35A13.11,13.11,0,0,1,78.09,57c-2.2,3.82-6,8.17-12.15,8.6a35.92,35.92,0,0,1-9.36-.6A18.33,18.33,0,0,1,41.85,50.92c-.85-3.84-.45-7.31,3.64-7.51C54.86,43,56.46,45.72,56.46,45.72Z"/><path class="cls-1" d="M56,40.47c7.12,5.79-7.45,16.18-16.84,16.27S15.38,46.76,23,41.58c9.93-6.73,10.85-17,15.85-17C45.87,24.48,48,33.93,56,40.47Z"/><circle class="cls-1" cx="39.68" cy="21.48" r="21.46"/><circle class="cls-2" cx="41.45" cy="19.67" r="19.67"/><path class="cls-2" d="M75.34,43.63a8.07,8.07,0,0,0-4.73-3.53c1.8-4.64.52-11.81-8.22-7.82-2.36,1.07-1.2,4.34,0,4.74.86.3.76-1.17.75-1.29,0-.5.44-.94,1.08-1.13a1.48,1.48,0,0,1,1.88.76,2.26,2.26,0,0,1-1.6,3.18,9.07,9.07,0,0,1-3,.22,3,3,0,0,1-.41-.08c-.43-.13-2.69-.16-5.41-.3-6.26-6.29-8.59-13.91-14.88-13.85-5,.06-6.29,10.3-16.23,17a7.54,7.54,0,0,0-.72.57C20.42,44,15.89,44.48,13,44.59A5.89,5.89,0,0,1,7.3,41,4.4,4.4,0,0,1,7,38.31a2.85,2.85,0,0,1,5.3-.79,2,2,0,0,1-.24,2.42c-.13.11-2,1.58-.76,2.17,1.57.77,6.16-1.43,5.46-5.14-.81-4.31-11.44-10.52-15.1-.1,0,0-1.89,11.78,8.53,15.44a29.26,29.26,0,0,0,16.9.6,36.32,36.32,0,0,0-1.71,3.92,1.64,1.64,0,0,1-.1.38,7.18,7.18,0,0,1-1.46,2.43,2.37,2.37,0,0,1-3.62-.35,1.43,1.43,0,0,1,.07-2A1.24,1.24,0,0,1,21.79,57c.1.07,1.44.94,1.52,0,.1-1.18-2.33-3.66-4.47-2.48-5.27,2.93-1.82,11.08,5.84,10.8-1.4,5.6,5.58,12.74,12.49,8.68.15-.08.36,0,.48-.13,2.43-2.3,5.55-5.52,5.29-12,1.06,1.9,2.06,3.57,2.82,4.7,3.78,5.58,7.88,5.67,10.81,5.6.12,0,.2-.15.33-.18,5-1.28,5.7-6.83,3.58-9.92a32.91,32.91,0,0,0,5.8.43c5.5-.1,8.51-3.82,10.1-7.15A11.75,11.75,0,0,0,75.34,43.63ZM34.27,67.21a3.2,3.2,0,0,1-4.78.57,1.8,1.8,0,0,1-.31-2.57,1.72,1.72,0,0,1,1.89-.82c.15,0,2.07.78,2-.38a2.54,2.54,0,0,0-1-1.58,7.87,7.87,0,0,0,1.72-2.06,16.16,16.16,0,0,0,1.94,3.33C36,64.92,35.16,65.91,34.27,67.21ZM57.7,64.53A1.93,1.93,0,0,1,56.78,66,3.82,3.82,0,0,1,53,66.3,1.74,1.74,0,0,1,52.5,66a9.08,9.08,0,0,1-1.57-2.89c-.27-.87-1-3.17-1.82-5.91a21.15,21.15,0,0,0,5.61,3.37c-1.3,1-1.55,3.15-1,3.83S55,63.67,55,63.56A1.3,1.3,0,0,1,56.49,63,1.36,1.36,0,0,1,57.7,64.53Zm12.86-16a3.89,3.89,0,0,1-6.43.83c-.93-1.05-2.09-2.4-3.4-4l1.58-.13c.31,2.22,2.73,4.09,3.94,3.92s-.08-1.9-.17-2c-.94-1.38,1.07-3.93,4-2.46A3.83,3.83,0,0,1,70.56,48.51Z"/><path class="cls-3" d="M71.58,42.88a6.11,6.11,0,0,0-3.49-2.81l-1.83-.47.65-1.77c.8-2.16.75-4.61-.11-5.83a2.07,2.07,0,0,0-1.91-.87,6,6,0,0,0-1.06.13,3.11,3.11,0,0,1,1.87,1.65,3.86,3.86,0,0,1,.09,3.27,4.13,4.13,0,0,1-2.65,2.31,9.1,9.1,0,0,1-2.36.32,10.11,10.11,0,0,1-1.11-.05,3.55,3.55,0,0,1-.65-.12c-.3,0-1.35-.09-2.28-.13l-2.53-.12-.56-.19h0c-2.1-2.22-1.55-1.52-3.1-3,6.51-2.1,9-10.3,9-17.54A16.54,16.54,0,0,0,43,1a16.35,16.35,0,0,0-9,29.9l-.41-.16s-2.75,6.84-7.9,10.51a3.89,3.89,0,0,0-.5.41l-.15.15-.18.1c-3.47,2-7.93,2.54-11,2.67h-.22a7.28,7.28,0,0,1-6.87-4.65,6.33,6.33,0,0,1-.35-3.7,4.52,4.52,0,0,1,4.34-3.65,4.2,4.2,0,0,1,3.89,2.48A4.28,4.28,0,0,1,15,37.71l.08-.1a2.45,2.45,0,0,0,.57-2,5.36,5.36,0,0,0-2.14-2.84,7.06,7.06,0,0,0-4.17-1.57c-2.12,0-3.7,1.5-4.7,4.39A17.41,17.41,0,0,0,5,41.11,10.34,10.34,0,0,0,11.71,49a23.79,23.79,0,0,0,8.54,1.47,26.37,26.37,0,0,0,6.48-.9l3.49-1-1.49,3.29c-.95,2.11-1.41,3.26-1.51,3.55a3.2,3.2,0,0,1-.15.61,9.12,9.12,0,0,1-1.74,3,3.8,3.8,0,0,1-2.76,1.22,4,4,0,0,1-3.33-1.77,3.72,3.72,0,0,1-.6-1.34,4,4,0,0,0,.14.77,5.77,5.77,0,0,0,5.82,4h.22l2.24-.08L26.54,64A6.42,6.42,0,0,0,28,69.28a6.21,6.21,0,0,0,4.84,2.52,5.9,5.9,0,0,0,3-.94,2.29,2.29,0,0,1,.46-.21c1.87-1.88,6.81-10.88,6.81-10.88,1,2,2.54,3.17,3.2,4.2,2.94,4.56,5.86,4.87,8.36,4.84h0a2.83,2.83,0,0,1,.35-.14,4.08,4.08,0,0,0,2.86-2.56,5.69,5.69,0,0,0,0-3.86,3.45,3.45,0,0,1-1.52,3.37,5.2,5.2,0,0,1-5.42.52,3.53,3.53,0,0,1-.84-.57,10.27,10.27,0,0,1-2-3.65c-.07-.25-.18-.61-.32-1.06C47.53,59.71,47,58,46.46,56l-1.53-5.52,4.29,3.78a18.22,18.22,0,0,0,4.87,3.08l2.09.89,3,.51a28.63,28.63,0,0,0,5,.4h.21c3.54-.07,6.26-2.13,8.08-6.14A10.62,10.62,0,0,0,71.58,42.88Zm-36,23.26-.19.3a4.72,4.72,0,0,1-3.91,2.16,4.53,4.53,0,0,1-3.25-1.31,2.15,2.15,0,0,1-.4-2.76c.48-.74,2.3-1.33,3.05-1.57L30,62.53a1.43,1.43,0,0,1-.19-2.46l.88-.61A6,6,0,0,0,32,57.86l1.63-3L35,58C35.92,59.91,36.48,64.83,35.61,66.14ZM70,47.53a5.27,5.27,0,0,1-4.79,3.17,5.34,5.34,0,0,1-4.18-2c-1.07-1.29-2.17-2.65-3.26-4l-1.93-2.46L59,42l1-.09.51,0,3.92-2.22-2.07,3.69a2,2,0,0,0,.09.41,3.12,3.12,0,0,1,.31-.76,4.15,4.15,0,0,1,3.63-2.15,5.22,5.22,0,0,1,2.49.64l.43.22.25.41A5.68,5.68,0,0,1,70,47.53Z"/><ellipse cx="53.65" cy="24.27" rx="2.91" ry="2.92" transform="translate(25.94 76.22) rotate(-86.26)"/><circle class="cls-4" cx="55.07" cy="24.84" r="0.87" transform="matrix(0.07, -1, 1, 0.07, 26.69, 78.18)"/><circle class="cls-5" cx="55.36" cy="24.26" r="0.58" transform="matrix(0.07, -1, 1, 0.07, 27.54, 77.91)"/><ellipse cx="41.61" cy="25.78" rx="2.91" ry="2.81" transform="translate(-2.06 3.66) rotate(-4.92)"/><ellipse class="cls-4" cx="43.15" cy="26.68" rx="0.87" ry="0.84" transform="translate(-2.13 3.8) rotate(-4.92)"/><ellipse class="cls-5" cx="42.78" cy="26.04" rx="0.58" ry="0.56" transform="translate(-2.07 3.76) rotate(-4.92)"/><path class="cls-6" d="M42.85,32s5.58-.06,7.65-1.47c-1.35,3.49-2.72,6.3-4.82,5.62S42.85,32,42.85,32Z"/><path class="cls-7" d="M42.85,32s1.4.09,2.09.08,0,2.79-.66,2.8S42.85,32,42.85,32Z"/></g></g></g></svg>