<svg xmlns="http://www.w3.org/2000/svg" viewBox="0 0 61.71 58.84"><defs><style>.cls-1{fill:#ded5b7;}.cls-2{fill:#f97b26;}.cls-3{fill:#ac4b09;}.cls-4{fill:#813807;}.cls-5{fill:#fcf2d0;}.cls-6{fill:#ff6a7a;}.cls-7{fill:#ff4559;}.cls-8{fill:#bf3443;}</style></defs><title>Robson</title><g id="Layer_2" data-name="Layer 2"><g id="Objects"><g id="Robson"><path class="cls-1" d="M8.45,24.63a.9.9,0,0,1-.79-.24C7.35,24.1.12,17.21.91,11.3A7,7,0,0,1,4.93,6c2.34-1.25,4.47-1.38,6.32-.36,5,2.77,5.89,13.28,5.92,13.73a.92.92,0,0,1-1.83.14c-.21-2.77-1.51-10.36-5-12.26-1.28-.71-2.78-.58-4.56.37a5.18,5.18,0,0,0-3.07,3.91c-.66,5,6.12,11.45,6.19,11.52a.92.92,0,0,1,0,1.3A.88.88,0,0,1,8.45,24.63Z"/><polygon class="cls-2" points="3.19 24.41 27.08 11.58 45.78 42.59 19.56 58.72 3.19 24.41"/><polygon class="cls-3" points="0 26.12 2.45 26.86 19.56 58.72 15.52 58.84 0 26.12"/><polygon class="cls-4" points="19.56 58.72 16.25 56.39 2.45 26.86 3.19 24.41 19.56 58.72"/><path class="cls-5" d="M12.16,22.63a.9.9,0,0,1-.8-.25C11,22,3,13.91,3.94,7.53A6.81,6.81,0,0,1,7.8,2.42a6.24,6.24,0,0,1,6.11-.32c5.52,2.89,6.92,14.75,7,15.25a.92.92,0,0,1-1.82.21c-.36-3.16-2.14-11.81-6-13.83A4.46,4.46,0,0,0,8.66,4,5,5,0,0,0,5.76,7.8C5,13.28,12.58,21,12.66,21.08a.93.93,0,0,1,0,1.3A.86.86,0,0,1,12.16,22.63Z"/><path class="cls-1" d="M34.28,20.53a.9.9,0,0,1-.63-.51c-.17-.37-4.23-9.3-1.35-14.4a6.85,6.85,0,0,1,5.61-3.34c2.59-.29,4.57.38,5.88,2,3.59,4.38.5,14.26.36,14.68a.9.9,0,0,1-1.72-.54c.83-2.6,2.43-10,0-13-.92-1.11-2.32-1.55-4.29-1.33A5.13,5.13,0,0,0,33.87,6.5c-2.43,4.31,1.38,12.68,1.42,12.77a.89.89,0,0,1-.44,1.19A.88.88,0,0,1,34.28,20.53Z"/><polygon class="cls-6" points="29.57 18.4 56.04 15.47 61.71 50.57 31.9 55.66 29.57 18.4"/><polygon class="cls-7" points="26.04 18.79 28 20.36 31.9 55.66 28.18 54.28 26.04 18.79"/><polygon class="cls-8" points="31.9 55.66 29.75 52.32 28 20.36 29.57 18.4 31.9 55.66"/><path class="cls-5" d="M38.4,20.07a.9.9,0,0,1-.64-.53c-.19-.44-4.52-10.77-1.31-16.25A6.67,6.67,0,0,1,41.83.06,6.14,6.14,0,0,1,47.52,2c4,4.67.89,16,.76,16.45A.9.9,0,0,1,46.54,18c.83-3,2.38-11.53-.4-14.8A4.38,4.38,0,0,0,42,1.85a4.92,4.92,0,0,0-4,2.36c-2.75,4.69,1.38,14.53,1.42,14.63A.9.9,0,0,1,38.94,20,.85.85,0,0,1,38.4,20.07Z"/></g></g></g></svg>