<svg xmlns="http://www.w3.org/2000/svg" viewBox="0 0 99.87 92.57"><defs><style>.cls-1{fill:#bc9d6c;}.cls-2{fill:#efede6;}.cls-3{fill:#ef546b;}</style></defs><title>Asset 3</title><g id="Layer_2" data-name="Layer 2"><g id="OBJECTS"><path class="cls-1" d="M93.8,49.21c-3.38-8.15-10.14-20.42-19.43-20.63-5,.17-12.69,3.5-13.18,9.54-1.4,17,13.83,22.35,16.25,33.23,1.51,6.81,2.63,12.46,4,15.7,3.06,6.4,7,6.57,12.23,3.85C104.35,85.35,99.06,62,93.8,49.21Z"/><path class="cls-1" d="M73.37,40.24c1,5.94-1.17,13-3.23,18.51-.48,1.63-3.44,6.43-.12,6.33,5.2-.13,6.52-16.3,6.73-19.93,1.69,0,22.23,11.58,21.66,5.7-.28-3.25-8.26-5.73-10.59-6.39-4.4-1.2-9.94-3.89-14.45-4.22"/><path class="cls-1" d="M73.47,38.65c.74,1.08,1.57,2.76,1.09,3.09s-1.87-1-2.61-2-.57-1.53-.09-1.87S72.72,37.57,73.47,38.65Z"/><path class="cls-2" d="M88.47,44.55C85.09,36.39,78.33,24.12,69,23.92c-5,.16-12.69,3.49-13.19,9.53-1.39,17,13.84,22.35,16.25,33.23,1.52,6.81,2.64,12.46,4,15.71,3.06,6.4,7,6.56,12.23,3.84C99,80.68,93.73,57.33,88.47,44.55Z"/><path class="cls-3" d="M68,35.57c1,5.94-1.17,13-3.24,18.51-.48,1.64-3.43,6.43-.11,6.33,5.19-.12,6.51-16.29,6.72-19.93,1.69.05,22.24,11.58,21.67,5.7-.29-3.25-8.27-5.73-10.59-6.39-4.4-1.2-9.94-3.89-14.45-4.22"/><path class="cls-3" d="M68.13,34c.75,1.08,1.58,2.76,1.1,3.1s-1.87-1-2.62-2-.56-1.53-.08-1.86S67.39,32.9,68.13,34Z"/><path class="cls-1" d="M8.34,36.08C6,27.58,3.69,13.76,10.87,7.86c4-2.95,12.13-5.1,16.25-.66,11.58,12.47,2.94,26.13,7.77,36.17,3,6.29,5.63,11.42,6.53,14.84C43,65.13,40,67.71,34.19,68.79,22.39,71,12.11,49.39,8.34,36.08Z"/><path class="cls-1" d="M18.86,16.4c2.88,5.29,8.93,9.48,14,12.56,1.39,1,6.67,2.93,4,4.9C32.68,37,21.65,25.08,19.24,22.35,17.94,23.43,8.92,45.2,5.73,40.22c-1.79-2.73,3-9.61,4.38-11.57,2.71-3.66,5.4-9.2,8.75-12.25"/><path class="cls-1" d="M17.8,15.21c.08,1.31.47,3.15,1.05,3.11s.87-1.91.79-3.22-.5-1.56-1.08-1.52S17.72,13.9,17.8,15.21Z"/><path class="cls-2" d="M3,31.42C.63,22.92-1.64,9.09,5.53,3.19c4-2.94,12.14-5.09,16.26-.65C33.37,15,24.73,28.66,29.56,38.71c3,6.28,5.63,11.41,6.53,14.83,1.56,6.92-1.46,9.5-7.23,10.59C17.05,66.35,6.78,44.72,3,31.42Z"/><path class="cls-3" d="M13.52,11.74c2.88,5.29,8.94,9.48,14,12.55,1.39,1,6.67,2.93,4,4.9-4.16,3.12-15.19-8.78-17.6-11.51C12.6,18.76,3.58,40.53.4,35.56c-1.79-2.74,3-9.62,4.37-11.57,2.72-3.67,5.41-9.21,8.75-12.25"/><path class="cls-3" d="M12.46,10.54c.08,1.31.47,3.15,1.06,3.11s.87-1.91.79-3.22-.5-1.55-1.09-1.52S12.39,9.23,12.46,10.54Z"/></g></g></svg>