<svg xmlns="http://www.w3.org/2000/svg" xmlns:xlink="http://www.w3.org/1999/xlink" viewBox="0 0 1807.08 771.35"><defs><style>.cls-1{isolation:isolate;}.cls-2{fill:url(#_ÂÁ_Ï_ÌÌ_È_ËÂÌÚ_63);}.cls-10,.cls-11,.cls-12,.cls-13,.cls-14,.cls-15,.cls-16,.cls-17,.cls-18,.cls-19,.cls-20,.cls-21,.cls-22,.cls-23,.cls-24,.cls-25,.cls-26,.cls-3,.cls-6,.cls-7,.cls-8,.cls-9{fill:#ffe7de;}.cls-4{opacity:0.3;mix-blend-mode:multiply;}.cls-5{fill:url(#_ÂÁ_Ï_ÌÌ_È_ËÂÌÚ_91);}.cls-10,.cls-11,.cls-12,.cls-13,.cls-14,.cls-15,.cls-16,.cls-17,.cls-18,.cls-19,.cls-20,.cls-21,.cls-22,.cls-23,.cls-24,.cls-25,.cls-26,.cls-6,.cls-7,.cls-8,.cls-9{fill-rule:evenodd;}.cls-6{opacity:0.64;}.cls-7{opacity:0.68;}.cls-8{opacity:0.51;}.cls-9{opacity:0.6;}.cls-10{opacity:0.63;}.cls-11{opacity:0.57;}.cls-12{opacity:0.61;}.cls-13{opacity:0.66;}.cls-14{opacity:0.58;}.cls-15{opacity:0.52;}.cls-16{opacity:0.67;}.cls-17{opacity:0.65;}.cls-18{opacity:0.53;}.cls-19{opacity:0.7;}.cls-20{opacity:0.56;}.cls-21{opacity:0.69;}.cls-22{opacity:0.55;}.cls-23{opacity:0.5;}.cls-24{opacity:0.62;}.cls-25{opacity:0.54;}.cls-26{opacity:0.59;}</style><radialGradient id="_ÂÁ_Ï_ÌÌ_È_ËÂÌÚ_63" cx="1311.45" cy="778.42" r="799.76" gradientTransform="translate(-2177.19) scale(2.34 1)" gradientUnits="userSpaceOnUse"><stop offset="0.49" stop-color="#ffd2cc"/><stop offset="0.66" stop-color="#f8b8c0"/><stop offset="1" stop-color="#ae92a7"/></radialGradient><radialGradient id="_ÂÁ_Ï_ÌÌ_È_ËÂÌÚ_91" cx="714.78" cy="489.02" r="243.56" gradientUnits="userSpaceOnUse"><stop offset="0.88" stop-color="#fff"/><stop offset="0.96" stop-color="#ffdfdb"/><stop offset="1" stop-color="#ffd2cc"/></radialGradient></defs><title>sky</title><g class="cls-1"><g id="Layer_2" data-name="Layer 2"><g id="Layer_1-2" data-name="Layer 1"><rect class="cls-2" width="1802.75" height="771.35"/><circle class="cls-3" cx="614.5" cy="358.81" r="84.85"/><g class="cls-4"><circle class="cls-5" cx="614.5" cy="358.81" r="75.31"/></g><path class="cls-6" d="M757.37,152.87a2.83,2.83,0,1,0,2.83,2.83A2.83,2.83,0,0,0,757.37,152.87Z"/><path class="cls-7" d="M744.52,444.5a2.83,2.83,0,1,0,2.82,2.83A2.83,2.83,0,0,0,744.52,444.5Z"/><path class="cls-8" d="M731.36,228.73a2.83,2.83,0,1,0,2.83,2.83A2.83,2.83,0,0,0,731.36,228.73Z"/><path class="cls-9" d="M721.58,263.74a2.83,2.83,0,1,0,2.82,2.82A2.82,2.82,0,0,0,721.58,263.74Z"/><path class="cls-10" d="M715.2,439.44a2.83,2.83,0,1,0,2.83,2.82A2.82,2.82,0,0,0,715.2,439.44Z"/><path class="cls-11" d="M707.45,454.48a2.83,2.83,0,1,0,2.83,2.83A2.83,2.83,0,0,0,707.45,454.48Z"/><path class="cls-12" d="M694.8,227a2.83,2.83,0,1,0,2.83,2.83A2.83,2.83,0,0,0,694.8,227Z"/><path class="cls-13" d="M679.6,394.52a2.83,2.83,0,1,0,2.83,2.83A2.83,2.83,0,0,0,679.6,394.52Z"/><path class="cls-14" d="M664.6,392.67a2.83,2.83,0,1,0,2.83,2.83A2.83,2.83,0,0,0,664.6,392.67Z"/><path class="cls-14" d="M651.12,387.13A2.83,2.83,0,1,0,654,390,2.83,2.83,0,0,0,651.12,387.13Z"/><path class="cls-15" d="M645.38,219.23a2.83,2.83,0,1,0,2.83,2.82A2.83,2.83,0,0,0,645.38,219.23Z"/><path class="cls-15" d="M628.23,333.14a2.83,2.83,0,1,0,2.83,2.83A2.83,2.83,0,0,0,628.23,333.14Z"/><path class="cls-9" d="M621.53,358.81a2.83,2.83,0,1,0,2.83,2.83A2.83,2.83,0,0,0,621.53,358.81Z"/><path class="cls-13" d="M614.73,44.35a2.83,2.83,0,1,0,2.83,2.83A2.83,2.83,0,0,0,614.73,44.35Z"/><path class="cls-12" d="M598.63,400.81a2.83,2.83,0,1,0,2.83,2.82A2.83,2.83,0,0,0,598.63,400.81Z"/><path class="cls-16" d="M581.34,375.55a2.83,2.83,0,1,0,2.83,2.83A2.83,2.83,0,0,0,581.34,375.55Z"/><path class="cls-7" d="M571.85,180.52a2.83,2.83,0,1,0,2.83,2.83A2.83,2.83,0,0,0,571.85,180.52Z"/><path class="cls-17" d="M561.31,253.6a2.83,2.83,0,1,0,2.82,2.82A2.82,2.82,0,0,0,561.31,253.6Z"/><path class="cls-18" d="M550.48,386.41a2.83,2.83,0,1,0,2.83,2.83A2.83,2.83,0,0,0,550.48,386.41Z"/><path class="cls-19" d="M535,403a2.83,2.83,0,1,0,2.83,2.83A2.83,2.83,0,0,0,535,403Z"/><path class="cls-20" d="M526.82,399.8a2.83,2.83,0,1,0,2.83,2.83A2.83,2.83,0,0,0,526.82,399.8Z"/><path class="cls-19" d="M508.61,349.78a2.83,2.83,0,1,0,2.82,2.83A2.83,2.83,0,0,0,508.61,349.78Z"/><path class="cls-17" d="M493,443.92a2.83,2.83,0,1,0,2.82,2.82A2.82,2.82,0,0,0,493,443.92Z"/><path class="cls-8" d="M478.39,461.54a2.83,2.83,0,1,0,2.83,2.83A2.83,2.83,0,0,0,478.39,461.54Z"/><path class="cls-10" d="M461.58,270a2.83,2.83,0,1,0,2.83,2.83A2.83,2.83,0,0,0,461.58,270Z"/><path class="cls-21" d="M439.41,198.5a2.83,2.83,0,1,0,2.83,2.83A2.83,2.83,0,0,0,439.41,198.5Z"/><path class="cls-17" d="M420.89,257.07a2.83,2.83,0,1,0,2.83,2.82A2.83,2.83,0,0,0,420.89,257.07Z"/><path class="cls-8" d="M405,452.25a2.83,2.83,0,1,0,2.83,2.83A2.82,2.82,0,0,0,405,452.25Z"/><path class="cls-22" d="M391.76,158.56a2.83,2.83,0,1,0,2.83,2.83A2.83,2.83,0,0,0,391.76,158.56Z"/><path class="cls-19" d="M382.16,236.88a2.83,2.83,0,1,0,2.83,2.83A2.83,2.83,0,0,0,382.16,236.88Z"/><path class="cls-21" d="M369.31,294.14a2.83,2.83,0,1,0,2.83,2.82A2.83,2.83,0,0,0,369.31,294.14Z"/><path class="cls-14" d="M358.57,239.21A2.83,2.83,0,1,0,361.4,242,2.83,2.83,0,0,0,358.57,239.21Z"/><path class="cls-13" d="M347.22,431.78a2.83,2.83,0,1,0,2.83,2.83A2.83,2.83,0,0,0,347.22,431.78Z"/><path class="cls-23" d="M338.56,373.52a2.83,2.83,0,1,0,2.83,2.83A2.83,2.83,0,0,0,338.56,373.52Z"/><path class="cls-11" d="M329.59,224a2.83,2.83,0,1,0,2.83,2.83A2.83,2.83,0,0,0,329.59,224Z"/><path class="cls-8" d="M310.25,309.28a2.83,2.83,0,1,0,2.83,2.83A2.83,2.83,0,0,0,310.25,309.28Z"/><path class="cls-23" d="M300.81,333.18a2.83,2.83,0,1,0,2.83,2.83A2.83,2.83,0,0,0,300.81,333.18Z"/><path class="cls-24" d="M280.16,432.08a2.83,2.83,0,1,0,2.83,2.83A2.83,2.83,0,0,0,280.16,432.08Z"/><path class="cls-8" d="M272.71,48.43a2.83,2.83,0,1,0,2.83,2.82A2.83,2.83,0,0,0,272.71,48.43Z"/><path class="cls-9" d="M254.54,331.74a2.83,2.83,0,1,0,2.83,2.83A2.83,2.83,0,0,0,254.54,331.74Z"/><path class="cls-12" d="M242.63,211.7a2.83,2.83,0,1,0,2.83,2.83A2.83,2.83,0,0,0,242.63,211.7Z"/><path class="cls-21" d="M225.82,135.16a2.83,2.83,0,1,0,2.82,2.83A2.83,2.83,0,0,0,225.82,135.16Z"/><path class="cls-22" d="M209.62,276.19a2.83,2.83,0,1,0,2.83,2.83A2.83,2.83,0,0,0,209.62,276.19Z"/><path class="cls-17" d="M202.83,434.71a2.83,2.83,0,1,0,2.83,2.83A2.83,2.83,0,0,0,202.83,434.71Z"/><path class="cls-11" d="M193.13,244.78a2.83,2.83,0,1,0,2.83,2.83A2.83,2.83,0,0,0,193.13,244.78Z"/><path class="cls-12" d="M181.85,444.16a2.83,2.83,0,1,0,2.83,2.83A2.83,2.83,0,0,0,181.85,444.16Z"/><path class="cls-12" d="M162.15,218.27A2.83,2.83,0,1,0,165,221.1,2.83,2.83,0,0,0,162.15,218.27Z"/><path class="cls-21" d="M149.66,446.2a2.83,2.83,0,1,0,2.83,2.83A2.83,2.83,0,0,0,149.66,446.2Z"/><path class="cls-7" d="M131.56,345.38a2.83,2.83,0,1,0,2.82,2.82A2.82,2.82,0,0,0,131.56,345.38Z"/><path class="cls-16" d="M113.14,90.28A2.83,2.83,0,1,0,116,93.11,2.83,2.83,0,0,0,113.14,90.28Z"/><path class="cls-14" d="M104.08,212.5a2.83,2.83,0,1,0,2.83,2.82A2.82,2.82,0,0,0,104.08,212.5Z"/><path class="cls-9" d="M85.8,451.57a2.83,2.83,0,1,0,2.82,2.83A2.83,2.83,0,0,0,85.8,451.57Z"/><path class="cls-17" d="M72.81,271.39a2.83,2.83,0,1,0,2.82,2.83A2.83,2.83,0,0,0,72.81,271.39Z"/><path class="cls-8" d="M57.78,461.06a2.83,2.83,0,1,0,2.83,2.82A2.83,2.83,0,0,0,57.78,461.06Z"/><path class="cls-9" d="M39.88,105.65a2.83,2.83,0,1,0,2.83,2.83A2.83,2.83,0,0,0,39.88,105.65Z"/><path class="cls-11" d="M31.83,99.26a2.83,2.83,0,1,0,2.83,2.82A2.83,2.83,0,0,0,31.83,99.26Z"/><path class="cls-14" d="M22.33,226.53a2.83,2.83,0,1,0,2.83,2.83A2.82,2.82,0,0,0,22.33,226.53Z"/><path class="cls-25" d="M16.3,372.2A2.83,2.83,0,1,0,19.13,375,2.83,2.83,0,0,0,16.3,372.2Z"/><path class="cls-14" d="M14,102.42a2.83,2.83,0,1,0,2.83,2.83A2.83,2.83,0,0,0,14,102.42Z"/><path class="cls-12" d="M40,26.56a2.83,2.83,0,1,0,2.82,2.83A2.83,2.83,0,0,0,40,26.56Z"/><path class="cls-17" d="M76.55,28.3a2.83,2.83,0,1,0,2.83,2.82A2.83,2.83,0,0,0,76.55,28.3Z"/><path class="cls-11" d="M126,36.07a2.83,2.83,0,1,0,2.83,2.83A2.83,2.83,0,0,0,126,36.07Z"/><path class="cls-19" d="M156.62,210.94a2.83,2.83,0,1,0,2.83,2.83A2.83,2.83,0,0,0,156.62,210.94Z"/><path class="cls-20" d="M199.5,74.77a2.83,2.83,0,1,0,2.83,2.83A2.83,2.83,0,0,0,199.5,74.77Z"/><path class="cls-7" d="M331.94,56.79a2.83,2.83,0,1,0,2.83,2.83A2.83,2.83,0,0,0,331.94,56.79Z"/><path class="cls-24" d="M379.59,96.73a2.83,2.83,0,1,0,2.83,2.83A2.83,2.83,0,0,0,379.59,96.73Z"/><path class="cls-24" d="M389.19,18.42A2.83,2.83,0,1,0,392,21.25,2.83,2.83,0,0,0,389.19,18.42Z"/><path class="cls-10" d="M412.78,16.08a2.83,2.83,0,1,0,2.83,2.83A2.83,2.83,0,0,0,412.78,16.08Z"/><path class="cls-10" d="M441.76,31.25a2.83,2.83,0,1,0,2.83,2.83A2.83,2.83,0,0,0,441.76,31.25Z"/><path class="cls-26" d="M498.64,206.87a2.83,2.83,0,1,0,2.83,2.83A2.83,2.83,0,0,0,498.64,206.87Z"/><path class="cls-8" d="M528.72,43.59a2.83,2.83,0,1,0,2.83,2.83A2.83,2.83,0,0,0,528.72,43.59Z"/><path class="cls-9" d="M545.53,120.14a2.83,2.83,0,1,0,2.83,2.82A2.82,2.82,0,0,0,545.53,120.14Z"/><path class="cls-6" d="M578.22,10.51a2.83,2.83,0,1,0,2.83,2.83A2.83,2.83,0,0,0,578.22,10.51Z"/><path class="cls-17" d="M609.2,37A2.83,2.83,0,1,0,612,39.85,2.83,2.83,0,0,0,609.2,37Z"/><path class="cls-19" d="M658.21,165a2.83,2.83,0,1,0,2.83,2.82A2.83,2.83,0,0,0,658.21,165Z"/><path class="cls-16" d="M667.27,42.8a2.83,2.83,0,1,0,2.82,2.83A2.83,2.83,0,0,0,667.27,42.8Z"/><path class="cls-11" d="M731.47,149.64a2.83,2.83,0,1,0,2.83,2.83A2.83,2.83,0,0,0,731.47,149.64Z"/><path class="cls-26" d="M749,28.77a2.83,2.83,0,1,0,2.82,2.83A2.82,2.82,0,0,0,749,28.77Z"/><path class="cls-6" d="M1543,150.89a2.83,2.83,0,1,0,2.83,2.83A2.83,2.83,0,0,0,1543,150.89Z"/><path class="cls-7" d="M1530.16,442.52a2.83,2.83,0,1,0,2.83,2.83A2.83,2.83,0,0,0,1530.16,442.52Z"/><path class="cls-8" d="M1517,226.75a2.83,2.83,0,1,0,2.83,2.83A2.83,2.83,0,0,0,1517,226.75Z"/><path class="cls-9" d="M1507.22,261.76a2.83,2.83,0,1,0,2.83,2.83A2.83,2.83,0,0,0,1507.22,261.76Z"/><path class="cls-10" d="M1500.85,437.46a2.83,2.83,0,1,0,2.83,2.83A2.83,2.83,0,0,0,1500.85,437.46Z"/><path class="cls-11" d="M1493.1,452.51a2.83,2.83,0,1,0,2.82,2.82A2.82,2.82,0,0,0,1493.1,452.51Z"/><path class="cls-12" d="M1480.45,225a2.83,2.83,0,1,0,2.82,2.83A2.83,2.83,0,0,0,1480.45,225Z"/><path class="cls-13" d="M1465.24,392.55a2.83,2.83,0,1,0,2.83,2.82A2.83,2.83,0,0,0,1465.24,392.55Z"/><path class="cls-14" d="M1450.25,390.7a2.83,2.83,0,1,0,2.82,2.82A2.83,2.83,0,0,0,1450.25,390.7Z"/><path class="cls-14" d="M1436.76,385.15a2.83,2.83,0,1,0,2.83,2.83A2.83,2.83,0,0,0,1436.76,385.15Z"/><path class="cls-15" d="M1431,217.25a2.83,2.83,0,1,0,2.83,2.83A2.83,2.83,0,0,0,1431,217.25Z"/><path class="cls-15" d="M1413.87,331.17a2.83,2.83,0,1,0,2.83,2.82A2.83,2.83,0,0,0,1413.87,331.17Z"/><path class="cls-9" d="M1407.17,356.83a2.83,2.83,0,1,0,2.83,2.83A2.83,2.83,0,0,0,1407.17,356.83Z"/><path class="cls-13" d="M1400.37,42.38a2.83,2.83,0,1,0,2.83,2.83A2.82,2.82,0,0,0,1400.37,42.38Z"/><path class="cls-12" d="M1384.27,398.83a2.83,2.83,0,1,0,2.83,2.83A2.83,2.83,0,0,0,1384.27,398.83Z"/><path class="cls-16" d="M1367,373.57a2.83,2.83,0,1,0,2.83,2.83A2.83,2.83,0,0,0,1367,373.57Z"/><path class="cls-7" d="M1357.49,178.55a2.83,2.83,0,1,0,2.83,2.82A2.82,2.82,0,0,0,1357.49,178.55Z"/><path class="cls-17" d="M1347,251.62a2.83,2.83,0,1,0,2.83,2.83A2.83,2.83,0,0,0,1347,251.62Z"/><path class="cls-18" d="M1336.12,384.43a2.83,2.83,0,1,0,2.83,2.83A2.83,2.83,0,0,0,1336.12,384.43Z"/><path class="cls-19" d="M1320.68,401a2.83,2.83,0,1,0,2.82,2.83A2.83,2.83,0,0,0,1320.68,401Z"/><path class="cls-20" d="M1312.46,397.83a2.83,2.83,0,1,0,2.83,2.82A2.82,2.82,0,0,0,1312.46,397.83Z"/><path class="cls-19" d="M1294.25,347.8a2.83,2.83,0,1,0,2.83,2.83A2.83,2.83,0,0,0,1294.25,347.8Z"/><path class="cls-17" d="M1278.59,441.94a2.83,2.83,0,1,0,2.83,2.83A2.83,2.83,0,0,0,1278.59,441.94Z"/><path class="cls-8" d="M1264,459.56a2.83,2.83,0,1,0,2.82,2.83A2.83,2.83,0,0,0,1264,459.56Z"/><path class="cls-10" d="M1247.22,268a2.83,2.83,0,1,0,2.83,2.83A2.83,2.83,0,0,0,1247.22,268Z"/><path class="cls-21" d="M1225.05,196.52a2.83,2.83,0,1,0,2.83,2.83A2.83,2.83,0,0,0,1225.05,196.52Z"/><path class="cls-17" d="M1206.53,255.09a2.83,2.83,0,1,0,2.83,2.83A2.83,2.83,0,0,0,1206.53,255.09Z"/><path class="cls-8" d="M1190.62,450.27a2.83,2.83,0,1,0,2.83,2.83A2.83,2.83,0,0,0,1190.62,450.27Z"/><path class="cls-22" d="M1177.4,156.58a2.83,2.83,0,1,0,2.83,2.83A2.83,2.83,0,0,0,1177.4,156.58Z"/><path class="cls-19" d="M1167.81,234.9a2.83,2.83,0,1,0,2.82,2.83A2.83,2.83,0,0,0,1167.81,234.9Z"/><path class="cls-21" d="M1155,292.16a2.83,2.83,0,1,0,2.82,2.83A2.83,2.83,0,0,0,1155,292.16Z"/><path class="cls-14" d="M1144.21,237.23a2.83,2.83,0,1,0,2.83,2.83A2.83,2.83,0,0,0,1144.21,237.23Z"/><path class="cls-13" d="M1132.86,429.8a2.83,2.83,0,1,0,2.83,2.83A2.83,2.83,0,0,0,1132.86,429.8Z"/><path class="cls-23" d="M1124.2,371.55a2.83,2.83,0,1,0,2.83,2.82A2.83,2.83,0,0,0,1124.2,371.55Z"/><path class="cls-11" d="M1115.24,222.07a2.83,2.83,0,1,0,2.82,2.82A2.82,2.82,0,0,0,1115.24,222.07Z"/><path class="cls-8" d="M1095.9,307.3a2.83,2.83,0,1,0,2.82,2.83A2.83,2.83,0,0,0,1095.9,307.3Z"/><path class="cls-23" d="M1086.45,331.2a2.83,2.83,0,1,0,2.83,2.83A2.83,2.83,0,0,0,1086.45,331.2Z"/><path class="cls-24" d="M1065.8,430.1a2.83,2.83,0,1,0,2.83,2.83A2.83,2.83,0,0,0,1065.8,430.1Z"/><path class="cls-8" d="M1058.36,46.45a2.83,2.83,0,1,0,2.82,2.83A2.82,2.82,0,0,0,1058.36,46.45Z"/><path class="cls-9" d="M1040.18,329.76a2.83,2.83,0,1,0,2.83,2.83A2.83,2.83,0,0,0,1040.18,329.76Z"/><path class="cls-12" d="M1028.28,209.72a2.83,2.83,0,1,0,2.82,2.83A2.83,2.83,0,0,0,1028.28,209.72Z"/><path class="cls-21" d="M1011.46,133.18a2.83,2.83,0,1,0,2.83,2.83A2.83,2.83,0,0,0,1011.46,133.18Z"/><path class="cls-22" d="M995.26,274.21a2.83,2.83,0,1,0,2.83,2.83A2.83,2.83,0,0,0,995.26,274.21Z"/><path class="cls-17" d="M988.47,432.73a2.83,2.83,0,1,0,2.83,2.83A2.83,2.83,0,0,0,988.47,432.73Z"/><path class="cls-11" d="M978.77,242.81a2.83,2.83,0,1,0,2.83,2.82A2.83,2.83,0,0,0,978.77,242.81Z"/><path class="cls-12" d="M967.49,442.18a2.83,2.83,0,1,0,2.83,2.83A2.83,2.83,0,0,0,967.49,442.18Z"/><path class="cls-12" d="M947.8,216.29a2.83,2.83,0,1,0,2.83,2.83A2.83,2.83,0,0,0,947.8,216.29Z"/><path class="cls-21" d="M935.3,444.22a2.83,2.83,0,1,0,2.83,2.83A2.83,2.83,0,0,0,935.3,444.22Z"/><path class="cls-7" d="M917.2,343.4a2.83,2.83,0,1,0,2.83,2.83A2.83,2.83,0,0,0,917.2,343.4Z"/><path class="cls-16" d="M898.78,88.3a2.83,2.83,0,1,0,2.83,2.83A2.83,2.83,0,0,0,898.78,88.3Z"/><path class="cls-14" d="M889.73,210.52a2.83,2.83,0,1,0,2.83,2.83A2.83,2.83,0,0,0,889.73,210.52Z"/><path class="cls-9" d="M871.44,449.59a2.83,2.83,0,1,0,2.83,2.83A2.83,2.83,0,0,0,871.44,449.59Z"/><path class="cls-17" d="M858.45,269.41a2.83,2.83,0,1,0,2.83,2.83A2.83,2.83,0,0,0,858.45,269.41Z"/><path class="cls-8" d="M843.42,459.08a2.83,2.83,0,1,0,2.83,2.83A2.83,2.83,0,0,0,843.42,459.08Z"/><path class="cls-9" d="M825.53,103.67a2.83,2.83,0,1,0,2.82,2.83A2.83,2.83,0,0,0,825.53,103.67Z"/><path class="cls-11" d="M817.47,97.28a2.83,2.83,0,1,0,2.83,2.83A2.83,2.83,0,0,0,817.47,97.28Z"/><path class="cls-14" d="M808,224.55a2.83,2.83,0,1,0,2.83,2.83A2.83,2.83,0,0,0,808,224.55Z"/><path class="cls-25" d="M802,370.22a2.83,2.83,0,1,0,2.83,2.83A2.83,2.83,0,0,0,802,370.22Z"/><path class="cls-14" d="M799.63,100.45a2.83,2.83,0,1,0,2.82,2.82A2.82,2.82,0,0,0,799.63,100.45Z"/><path class="cls-12" d="M825.63,24.59a2.83,2.83,0,1,0,2.83,2.82A2.83,2.83,0,0,0,825.63,24.59Z"/><path class="cls-17" d="M862.19,26.32A2.83,2.83,0,1,0,865,29.15,2.83,2.83,0,0,0,862.19,26.32Z"/><path class="cls-11" d="M911.61,34.09a2.83,2.83,0,1,0,2.83,2.83A2.83,2.83,0,0,0,911.61,34.09Z"/><path class="cls-19" d="M942.26,209a2.83,2.83,0,1,0,2.83,2.83A2.83,2.83,0,0,0,942.26,209Z"/><path class="cls-20" d="M985.14,72.8A2.83,2.83,0,1,0,988,75.62,2.82,2.82,0,0,0,985.14,72.8Z"/><path class="cls-7" d="M1117.59,54.82a2.83,2.83,0,1,0,2.82,2.83A2.82,2.82,0,0,0,1117.59,54.82Z"/><path class="cls-24" d="M1165.23,94.76a2.83,2.83,0,1,0,2.83,2.82A2.82,2.82,0,0,0,1165.23,94.76Z"/><path class="cls-24" d="M1174.83,16.44a2.83,2.83,0,1,0,2.83,2.83A2.83,2.83,0,0,0,1174.83,16.44Z"/><path class="cls-10" d="M1198.42,14.11a2.83,2.83,0,1,0,2.83,2.82A2.82,2.82,0,0,0,1198.42,14.11Z"/><path class="cls-10" d="M1227.4,29.27a2.83,2.83,0,1,0,2.83,2.83A2.83,2.83,0,0,0,1227.4,29.27Z"/><path class="cls-26" d="M1284.28,204.89a2.83,2.83,0,1,0,2.83,2.83A2.83,2.83,0,0,0,1284.28,204.89Z"/><path class="cls-8" d="M1314.36,41.62a2.83,2.83,0,1,0,2.83,2.82A2.83,2.83,0,0,0,1314.36,41.62Z"/><path class="cls-9" d="M1331.18,118.16A2.83,2.83,0,1,0,1334,121,2.83,2.83,0,0,0,1331.18,118.16Z"/><path class="cls-6" d="M1363.87,8.54a2.83,2.83,0,1,0,2.82,2.82A2.82,2.82,0,0,0,1363.87,8.54Z"/><path class="cls-17" d="M1394.84,35.05a2.83,2.83,0,1,0,2.83,2.83A2.83,2.83,0,0,0,1394.84,35.05Z"/><path class="cls-19" d="M1443.85,163a2.83,2.83,0,1,0,2.83,2.83A2.83,2.83,0,0,0,1443.85,163Z"/><path class="cls-16" d="M1452.91,40.82a2.83,2.83,0,1,0,2.83,2.83A2.83,2.83,0,0,0,1452.91,40.82Z"/><path class="cls-11" d="M1517.11,147.67a2.83,2.83,0,1,0,2.83,2.83A2.83,2.83,0,0,0,1517.11,147.67Z"/><path class="cls-26" d="M1534.66,26.79a2.83,2.83,0,1,0,2.83,2.83A2.83,2.83,0,0,0,1534.66,26.79Z"/><path class="cls-12" d="M1804.25,202.43a2.83,2.83,0,1,0,2.83,2.83A2.83,2.83,0,0,0,1804.25,202.43Z"/><path class="cls-21" d="M1787.44,125.89a2.83,2.83,0,1,0,2.83,2.83A2.83,2.83,0,0,0,1787.44,125.89Z"/><path class="cls-22" d="M1771.24,266.92a2.83,2.83,0,1,0,2.83,2.83A2.83,2.83,0,0,0,1771.24,266.92Z"/><path class="cls-17" d="M1764.45,425.44a2.83,2.83,0,1,0,2.83,2.83A2.83,2.83,0,0,0,1764.45,425.44Z"/><path class="cls-11" d="M1754.75,235.51a2.83,2.83,0,1,0,2.83,2.83A2.83,2.83,0,0,0,1754.75,235.51Z"/><path class="cls-12" d="M1743.47,434.89a2.83,2.83,0,1,0,2.83,2.82A2.83,2.83,0,0,0,1743.47,434.89Z"/><path class="cls-12" d="M1723.78,209a2.83,2.83,0,1,0,2.82,2.83A2.83,2.83,0,0,0,1723.78,209Z"/><path class="cls-21" d="M1711.28,436.93a2.83,2.83,0,1,0,2.83,2.83A2.83,2.83,0,0,0,1711.28,436.93Z"/><path class="cls-7" d="M1693.18,336.1a2.83,2.83,0,1,0,2.83,2.83A2.83,2.83,0,0,0,1693.18,336.1Z"/><path class="cls-16" d="M1674.76,81a2.83,2.83,0,1,0,2.83,2.83A2.82,2.82,0,0,0,1674.76,81Z"/><path class="cls-14" d="M1665.71,203.22a2.83,2.83,0,1,0,2.82,2.83A2.83,2.83,0,0,0,1665.71,203.22Z"/><path class="cls-9" d="M1647.42,442.3a2.83,2.83,0,1,0,2.83,2.83A2.83,2.83,0,0,0,1647.42,442.3Z"/><path class="cls-17" d="M1634.43,262.12a2.83,2.83,0,1,0,2.83,2.83A2.83,2.83,0,0,0,1634.43,262.12Z"/><path class="cls-8" d="M1619.4,451.78a2.83,2.83,0,1,0,2.83,2.83A2.83,2.83,0,0,0,1619.4,451.78Z"/><path class="cls-9" d="M1601.5,96.38a2.83,2.83,0,1,0,2.83,2.83A2.83,2.83,0,0,0,1601.5,96.38Z"/><path class="cls-11" d="M1593.45,90a2.83,2.83,0,1,0,2.83,2.83A2.83,2.83,0,0,0,1593.45,90Z"/><path class="cls-14" d="M1584,217.26a2.83,2.83,0,1,0,2.83,2.82A2.83,2.83,0,0,0,1584,217.26Z"/><path class="cls-25" d="M1577.93,362.93a2.83,2.83,0,1,0,2.82,2.83A2.83,2.83,0,0,0,1577.93,362.93Z"/><path class="cls-14" d="M1575.6,93.15a2.83,2.83,0,1,0,2.83,2.83A2.83,2.83,0,0,0,1575.6,93.15Z"/><path class="cls-12" d="M1601.61,17.29a2.83,2.83,0,1,0,2.83,2.83A2.83,2.83,0,0,0,1601.61,17.29Z"/><path class="cls-17" d="M1638.17,19a2.83,2.83,0,1,0,2.83,2.82A2.83,2.83,0,0,0,1638.17,19Z"/><path class="cls-11" d="M1687.59,26.8a2.83,2.83,0,1,0,2.83,2.83A2.83,2.83,0,0,0,1687.59,26.8Z"/><path class="cls-19" d="M1718.24,201.67a2.83,2.83,0,1,0,2.83,2.83A2.83,2.83,0,0,0,1718.24,201.67Z"/><path class="cls-20" d="M1761.12,65.5a2.83,2.83,0,1,0,2.83,2.83A2.83,2.83,0,0,0,1761.12,65.5Z"/></g></g></g></svg>