<svg xmlns="http://www.w3.org/2000/svg" xmlns:xlink="http://www.w3.org/1999/xlink" viewBox="0 0 2811.3 1200"><defs><style>.cls-1{isolation:isolate;}.cls-2{fill:url(#_ÂÁ_Ï_ÌÌ_È_ËÂÌÚ_63);}.cls-10,.cls-11,.cls-12,.cls-13,.cls-14,.cls-15,.cls-16,.cls-17,.cls-18,.cls-19,.cls-20,.cls-21,.cls-22,.cls-23,.cls-24,.cls-25,.cls-26,.cls-3,.cls-6,.cls-7,.cls-8,.cls-9{fill:#ffe7de;}.cls-4{opacity:0.3;mix-blend-mode:multiply;}.cls-5{fill:url(#_ÂÁ_Ï_ÌÌ_È_ËÂÌÚ_91);}.cls-10,.cls-11,.cls-12,.cls-13,.cls-14,.cls-15,.cls-16,.cls-17,.cls-18,.cls-19,.cls-20,.cls-21,.cls-22,.cls-23,.cls-24,.cls-25,.cls-26,.cls-6,.cls-7,.cls-8,.cls-9{fill-rule:evenodd;}.cls-6{opacity:0.64;}.cls-7{opacity:0.68;}.cls-8{opacity:0.51;}.cls-9{opacity:0.6;}.cls-10{opacity:0.63;}.cls-11{opacity:0.57;}.cls-12{opacity:0.61;}.cls-13{opacity:0.66;}.cls-14{opacity:0.58;}.cls-15{opacity:0.52;}.cls-16{opacity:0.67;}.cls-17{opacity:0.65;}.cls-18{opacity:0.53;}.cls-19{opacity:0.7;}.cls-20{opacity:0.56;}.cls-21{opacity:0.69;}.cls-22{opacity:0.55;}.cls-23{opacity:0.5;}.cls-24{opacity:0.62;}.cls-25{opacity:0.54;}.cls-26{opacity:0.59;}</style><radialGradient id="_ÂÁ_Ï_ÌÌ_È_ËÂÌÚ_63" cx="591" cy="1211" r="1244.2" gradientTransform="scale(2.34 1)" gradientUnits="userSpaceOnUse"><stop offset="0.49" stop-color="#ffd2cc"/><stop offset="0.66" stop-color="#f8b8c0"/><stop offset="1" stop-color="#ae92a7"/></radialGradient><radialGradient id="_ÂÁ_Ï_ÌÌ_È_ËÂÌÚ_91" cx="1112" cy="760.77" r="378.91" gradientUnits="userSpaceOnUse"><stop offset="0.88" stop-color="#fff"/><stop offset="0.96" stop-color="#ffdfdb"/><stop offset="1" stop-color="#ffd2cc"/></radialGradient></defs><title>sky_1</title><g class="cls-1"><g id="Layer_2" data-name="Layer 2"><g id="_ÎÓÈ_2" data-name="—ÎÓÈ_2"><rect class="cls-2" width="2804.56" height="1200"/><circle class="cls-3" cx="955.98" cy="558.2" r="132"/><g class="cls-4"><circle class="cls-5" cx="955.98" cy="558.2" r="117.17"/></g><path class="cls-6" d="M1178.25,237.83a4.4,4.4,0,1,0,4.4,4.4A4.4,4.4,0,0,0,1178.25,237.83Z"/><path class="cls-7" d="M1158.25,691.52a4.4,4.4,0,1,0,4.4,4.4A4.4,4.4,0,0,0,1158.25,691.52Z"/><path class="cls-8" d="M1137.79,355.84a4.4,4.4,0,1,0,4.4,4.4A4.4,4.4,0,0,0,1137.79,355.84Z"/><path class="cls-9" d="M1122.57,410.3a4.4,4.4,0,1,0,4.4,4.4A4.4,4.4,0,0,0,1122.57,410.3Z"/><path class="cls-10" d="M1112.65,683.64a4.4,4.4,0,1,0,4.4,4.4A4.4,4.4,0,0,0,1112.65,683.64Z"/><path class="cls-11" d="M1100.59,707.05a4.4,4.4,0,1,0,4.4,4.39A4.39,4.39,0,0,0,1100.59,707.05Z"/><path class="cls-12" d="M1080.91,353.15a4.4,4.4,0,1,0,4.4,4.39A4.39,4.39,0,0,0,1080.91,353.15Z"/><path class="cls-13" d="M1057.26,613.77a4.4,4.4,0,1,0,4.4,4.39A4.4,4.4,0,0,0,1057.26,613.77Z"/><path class="cls-14" d="M1033.93,610.89a4.4,4.4,0,1,0,4.4,4.4A4.4,4.4,0,0,0,1033.93,610.89Z"/><path class="cls-14" d="M1013,602.26a4.4,4.4,0,1,0,4.4,4.4A4.4,4.4,0,0,0,1013,602.26Z"/><path class="cls-15" d="M1004,341.05a4.4,4.4,0,1,0,4.4,4.4A4.4,4.4,0,0,0,1004,341.05Z"/><path class="cls-15" d="M977.34,518.28a4.4,4.4,0,1,0,4.4,4.4A4.4,4.4,0,0,0,977.34,518.28Z"/><path class="cls-9" d="M966.92,558.2a4.4,4.4,0,1,0,4.4,4.4A4.4,4.4,0,0,0,966.92,558.2Z"/><path class="cls-13" d="M956.34,69a4.4,4.4,0,1,0,4.4,4.4A4.4,4.4,0,0,0,956.34,69Z"/><path class="cls-12" d="M931.3,623.54a4.4,4.4,0,1,0,4.4,4.4A4.4,4.4,0,0,0,931.3,623.54Z"/><path class="cls-16" d="M904.4,584.25a4.4,4.4,0,1,0,4.4,4.4A4.4,4.4,0,0,0,904.4,584.25Z"/><path class="cls-7" d="M889.63,280.84a4.4,4.4,0,1,0,4.4,4.4A4.4,4.4,0,0,0,889.63,280.84Z"/><path class="cls-17" d="M873.23,394.52a4.4,4.4,0,1,0,4.4,4.4A4.4,4.4,0,0,0,873.23,394.52Z"/><path class="cls-18" d="M856.39,601.14a4.4,4.4,0,1,0,4.4,4.4A4.4,4.4,0,0,0,856.39,601.14Z"/><path class="cls-19" d="M832.36,627a4.4,4.4,0,1,0,4.4,4.4A4.4,4.4,0,0,0,832.36,627Z"/><path class="cls-20" d="M819.58,622a4.4,4.4,0,1,0,4.4,4.4A4.4,4.4,0,0,0,819.58,622Z"/><path class="cls-19" d="M791.24,544.16a4.4,4.4,0,1,0,4.4,4.4A4.4,4.4,0,0,0,791.24,544.16Z"/><path class="cls-17" d="M766.88,690.6a4.4,4.4,0,1,0,4.4,4.4A4.4,4.4,0,0,0,766.88,690.6Z"/><path class="cls-8" d="M744.24,718a4.4,4.4,0,1,0,4.4,4.39A4.39,4.39,0,0,0,744.24,718Z"/><path class="cls-10" d="M718.09,420a4.4,4.4,0,1,0,4.4,4.4A4.4,4.4,0,0,0,718.09,420Z"/><path class="cls-21" d="M683.59,308.81a4.4,4.4,0,1,0,4.4,4.4A4.4,4.4,0,0,0,683.59,308.81Z"/><path class="cls-17" d="M654.78,399.92a4.4,4.4,0,1,0,4.4,4.4A4.4,4.4,0,0,0,654.78,399.92Z"/><path class="cls-8" d="M630,703.57a4.4,4.4,0,1,0,4.4,4.4A4.4,4.4,0,0,0,630,703.57Z"/><path class="cls-22" d="M609.46,246.68a4.4,4.4,0,1,0,4.4,4.4A4.39,4.39,0,0,0,609.46,246.68Z"/><path class="cls-19" d="M594.53,368.51a4.4,4.4,0,1,0,4.4,4.4A4.4,4.4,0,0,0,594.53,368.51Z"/><path class="cls-21" d="M574.54,457.59a4.4,4.4,0,1,0,4.4,4.4A4.4,4.4,0,0,0,574.54,457.59Z"/><path class="cls-14" d="M557.83,372.15a4.4,4.4,0,1,0,4.4,4.39A4.4,4.4,0,0,0,557.83,372.15Z"/><path class="cls-13" d="M540.17,671.73a4.4,4.4,0,1,0,4.4,4.4A4.4,4.4,0,0,0,540.17,671.73Z"/><path class="cls-23" d="M526.7,581.1a4.4,4.4,0,1,0,4.4,4.4A4.4,4.4,0,0,0,526.7,581.1Z"/><path class="cls-11" d="M512.75,348.55a4.4,4.4,0,1,0,4.4,4.4A4.4,4.4,0,0,0,512.75,348.55Z"/><path class="cls-8" d="M482.66,481.15a4.4,4.4,0,1,0,4.4,4.4A4.4,4.4,0,0,0,482.66,481.15Z"/><path class="cls-23" d="M468,518.34a4.4,4.4,0,1,0,4.4,4.4A4.4,4.4,0,0,0,468,518.34Z"/><path class="cls-24" d="M435.85,672.2a4.4,4.4,0,1,0,4.4,4.4A4.4,4.4,0,0,0,435.85,672.2Z"/><path class="cls-8" d="M424.26,75.34a4.4,4.4,0,1,0,4.4,4.4A4.4,4.4,0,0,0,424.26,75.34Z"/><path class="cls-9" d="M396,516.09a4.4,4.4,0,1,0,4.4,4.4A4.4,4.4,0,0,0,396,516.09Z"/><path class="cls-12" d="M377.47,329.35a4.4,4.4,0,1,0,4.4,4.4A4.4,4.4,0,0,0,377.47,329.35Z"/><path class="cls-21" d="M351.3,210.27a4.4,4.4,0,1,0,4.4,4.4A4.4,4.4,0,0,0,351.3,210.27Z"/><path class="cls-22" d="M326.11,429.67a4.4,4.4,0,1,0,4.4,4.4A4.4,4.4,0,0,0,326.11,429.67Z"/><path class="cls-17" d="M315.54,676.29a4.4,4.4,0,1,0,4.4,4.4A4.4,4.4,0,0,0,315.54,676.29Z"/><path class="cls-11" d="M300.45,380.81a4.4,4.4,0,1,0,4.4,4.4A4.4,4.4,0,0,0,300.45,380.81Z"/><path class="cls-12" d="M282.91,691a4.4,4.4,0,1,0,4.4,4.4A4.4,4.4,0,0,0,282.91,691Z"/><path class="cls-12" d="M252.26,339.57a4.4,4.4,0,1,0,4.4,4.4A4.4,4.4,0,0,0,252.26,339.57Z"/><path class="cls-21" d="M232.83,694.16a4.4,4.4,0,1,0,4.39,4.4A4.4,4.4,0,0,0,232.83,694.16Z"/><path class="cls-7" d="M204.66,537.3a4.4,4.4,0,1,0,4.4,4.4A4.4,4.4,0,0,0,204.66,537.3Z"/><path class="cls-16" d="M176,140.45a4.4,4.4,0,1,0,4.39,4.4A4.4,4.4,0,0,0,176,140.45Z"/><path class="cls-14" d="M161.93,330.58a4.4,4.4,0,1,0,4.39,4.4A4.4,4.4,0,0,0,161.93,330.58Z"/><path class="cls-9" d="M133.48,702.52a4.4,4.4,0,1,0,4.39,4.4A4.4,4.4,0,0,0,133.48,702.52Z"/><path class="cls-17" d="M113.26,422.21a4.4,4.4,0,1,0,4.4,4.4A4.4,4.4,0,0,0,113.26,422.21Z"/><path class="cls-8" d="M89.88,717.27a4.4,4.4,0,1,0,4.4,4.4A4.4,4.4,0,0,0,89.88,717.27Z"/><path class="cls-9" d="M62,164.36a4.4,4.4,0,1,0,4.4,4.4A4.4,4.4,0,0,0,62,164.36Z"/><path class="cls-11" d="M49.52,154.41a4.4,4.4,0,1,0,4.4,4.4A4.4,4.4,0,0,0,49.52,154.41Z"/><path class="cls-14" d="M34.75,352.41a4.4,4.4,0,1,0,4.4,4.4A4.4,4.4,0,0,0,34.75,352.41Z"/><path class="cls-25" d="M25.36,579a4.4,4.4,0,1,0,4.4,4.4A4.4,4.4,0,0,0,25.36,579Z"/><path class="cls-14" d="M21.75,159.34a4.4,4.4,0,1,0,4.4,4.4A4.4,4.4,0,0,0,21.75,159.34Z"/><path class="cls-12" d="M62.21,41.32a4.4,4.4,0,1,0,4.4,4.4A4.4,4.4,0,0,0,62.21,41.32Z"/><path class="cls-17" d="M119.09,44a4.4,4.4,0,1,0,4.39,4.4A4.4,4.4,0,0,0,119.09,44Z"/><path class="cls-11" d="M196,56.11a4.4,4.4,0,1,0,4.4,4.4A4.4,4.4,0,0,0,196,56.11Z"/><path class="cls-19" d="M243.66,328.16a4.4,4.4,0,1,0,4.4,4.4A4.4,4.4,0,0,0,243.66,328.16Z"/><path class="cls-20" d="M310.36,116.33a4.4,4.4,0,1,0,4.4,4.4A4.4,4.4,0,0,0,310.36,116.33Z"/><path class="cls-7" d="M516.41,88.36a4.4,4.4,0,1,0,4.4,4.4A4.4,4.4,0,0,0,516.41,88.36Z"/><path class="cls-24" d="M590.54,150.49a4.4,4.4,0,1,0,4.39,4.4A4.4,4.4,0,0,0,590.54,150.49Z"/><path class="cls-24" d="M605.47,28.65a4.4,4.4,0,1,0,4.4,4.4A4.4,4.4,0,0,0,605.47,28.65Z"/><path class="cls-10" d="M642.17,25a4.4,4.4,0,1,0,4.4,4.4A4.4,4.4,0,0,0,642.17,25Z"/><path class="cls-10" d="M687.25,48.62a4.4,4.4,0,1,0,4.4,4.4A4.4,4.4,0,0,0,687.25,48.62Z"/><path class="cls-26" d="M775.74,321.83a4.4,4.4,0,1,0,4.4,4.4A4.4,4.4,0,0,0,775.74,321.83Z"/><path class="cls-8" d="M822.53,67.82a4.4,4.4,0,1,0,4.4,4.4A4.4,4.4,0,0,0,822.53,67.82Z"/><path class="cls-9" d="M848.7,186.9a4.4,4.4,0,1,0,4.4,4.4A4.4,4.4,0,0,0,848.7,186.9Z"/><path class="cls-6" d="M899.55,16.36a4.4,4.4,0,1,0,4.4,4.4A4.4,4.4,0,0,0,899.55,16.36Z"/><path class="cls-17" d="M947.74,57.6a4.4,4.4,0,1,0,4.4,4.4A4.4,4.4,0,0,0,947.74,57.6Z"/><path class="cls-19" d="M1024,256.72a4.4,4.4,0,1,0,4.4,4.4A4.39,4.39,0,0,0,1024,256.72Z"/><path class="cls-16" d="M1038.07,66.58a4.4,4.4,0,1,0,4.4,4.4A4.39,4.39,0,0,0,1038.07,66.58Z"/><path class="cls-11" d="M1138,232.8a4.4,4.4,0,1,0,4.39,4.4A4.4,4.4,0,0,0,1138,232.8Z"/><path class="cls-26" d="M1165.25,44.76a4.4,4.4,0,1,0,4.4,4.4A4.4,4.4,0,0,0,1165.25,44.76Z"/><path class="cls-6" d="M2400.48,234.75a4.4,4.4,0,1,0,4.4,4.4A4.4,4.4,0,0,0,2400.48,234.75Z"/><path class="cls-7" d="M2380.49,688.44a4.4,4.4,0,1,0,4.4,4.4A4.4,4.4,0,0,0,2380.49,688.44Z"/><path class="cls-8" d="M2360,352.77a4.4,4.4,0,1,0,4.4,4.4A4.4,4.4,0,0,0,2360,352.77Z"/><path class="cls-9" d="M2344.8,407.22a4.4,4.4,0,1,0,4.4,4.4A4.4,4.4,0,0,0,2344.8,407.22Z"/><path class="cls-10" d="M2334.89,680.56a4.4,4.4,0,1,0,4.4,4.4A4.4,4.4,0,0,0,2334.89,680.56Z"/><path class="cls-11" d="M2322.83,704a4.4,4.4,0,1,0,4.4,4.4A4.4,4.4,0,0,0,2322.83,704Z"/><path class="cls-12" d="M2303.15,350.07a4.4,4.4,0,1,0,4.4,4.4A4.4,4.4,0,0,0,2303.15,350.07Z"/><path class="cls-13" d="M2279.5,610.69a4.4,4.4,0,1,0,4.4,4.4A4.4,4.4,0,0,0,2279.5,610.69Z"/><path class="cls-14" d="M2256.17,607.81a4.4,4.4,0,1,0,4.4,4.4A4.4,4.4,0,0,0,2256.17,607.81Z"/><path class="cls-14" d="M2235.19,599.19a4.4,4.4,0,1,0,4.4,4.4A4.4,4.4,0,0,0,2235.19,599.19Z"/><path class="cls-15" d="M2226.27,338a4.4,4.4,0,1,0,4.4,4.4A4.4,4.4,0,0,0,2226.27,338Z"/><path class="cls-15" d="M2199.58,515.2a4.4,4.4,0,1,0,4.4,4.4A4.4,4.4,0,0,0,2199.58,515.2Z"/><path class="cls-9" d="M2189.16,555.13a4.4,4.4,0,1,0,4.4,4.4A4.4,4.4,0,0,0,2189.16,555.13Z"/><path class="cls-13" d="M2178.58,65.93a4.4,4.4,0,1,0,4.4,4.4A4.4,4.4,0,0,0,2178.58,65.93Z"/><path class="cls-12" d="M2153.53,620.46a4.4,4.4,0,1,0,4.4,4.4A4.4,4.4,0,0,0,2153.53,620.46Z"/><path class="cls-16" d="M2126.63,581.17a4.4,4.4,0,1,0,4.4,4.4A4.4,4.4,0,0,0,2126.63,581.17Z"/><path class="cls-7" d="M2111.87,277.77a4.4,4.4,0,1,0,4.4,4.39A4.39,4.39,0,0,0,2111.87,277.77Z"/><path class="cls-17" d="M2095.47,391.45a4.4,4.4,0,1,0,4.4,4.4A4.4,4.4,0,0,0,2095.47,391.45Z"/><path class="cls-18" d="M2078.63,598.07a4.4,4.4,0,1,0,4.4,4.4A4.4,4.4,0,0,0,2078.63,598.07Z"/><path class="cls-19" d="M2054.59,623.9a4.4,4.4,0,1,0,4.4,4.39A4.39,4.39,0,0,0,2054.59,623.9Z"/><path class="cls-20" d="M2041.82,618.9a4.4,4.4,0,1,0,4.4,4.4A4.4,4.4,0,0,0,2041.82,618.9Z"/><path class="cls-19" d="M2013.48,541.08a4.4,4.4,0,1,0,4.4,4.4A4.4,4.4,0,0,0,2013.48,541.08Z"/><path class="cls-17" d="M1989.12,687.53a4.4,4.4,0,1,0,4.4,4.4A4.4,4.4,0,0,0,1989.12,687.53Z"/><path class="cls-8" d="M1966.48,715a4.4,4.4,0,1,0,4.4,4.4A4.4,4.4,0,0,0,1966.48,715Z"/><path class="cls-10" d="M1940.32,416.89a4.4,4.4,0,1,0,4.4,4.4A4.39,4.39,0,0,0,1940.32,416.89Z"/><path class="cls-21" d="M1905.83,305.73a4.4,4.4,0,1,0,4.4,4.4A4.4,4.4,0,0,0,1905.83,305.73Z"/><path class="cls-17" d="M1877,396.84a4.4,4.4,0,1,0,4.4,4.4A4.4,4.4,0,0,0,1877,396.84Z"/><path class="cls-8" d="M1852.26,700.49a4.4,4.4,0,1,0,4.4,4.4A4.4,4.4,0,0,0,1852.26,700.49Z"/><path class="cls-22" d="M1831.7,243.6a4.4,4.4,0,1,0,4.4,4.4A4.4,4.4,0,0,0,1831.7,243.6Z"/><path class="cls-19" d="M1816.77,365.44a4.4,4.4,0,1,0,4.4,4.4A4.4,4.4,0,0,0,1816.77,365.44Z"/><path class="cls-21" d="M1796.78,454.52a4.4,4.4,0,1,0,4.4,4.4A4.4,4.4,0,0,0,1796.78,454.52Z"/><path class="cls-14" d="M1780.07,369.07a4.4,4.4,0,1,0,4.4,4.4A4.4,4.4,0,0,0,1780.07,369.07Z"/><path class="cls-13" d="M1762.41,668.65a4.4,4.4,0,1,0,4.4,4.4A4.4,4.4,0,0,0,1762.41,668.65Z"/><path class="cls-23" d="M1748.94,578a4.4,4.4,0,1,0,4.4,4.4A4.4,4.4,0,0,0,1748.94,578Z"/><path class="cls-11" d="M1735,345.47a4.4,4.4,0,1,0,4.4,4.4A4.4,4.4,0,0,0,1735,345.47Z"/><path class="cls-8" d="M1704.9,478.07a4.4,4.4,0,1,0,4.4,4.4A4.4,4.4,0,0,0,1704.9,478.07Z"/><path class="cls-23" d="M1690.21,515.26a4.4,4.4,0,1,0,4.4,4.4A4.4,4.4,0,0,0,1690.21,515.26Z"/><path class="cls-24" d="M1658.08,669.12a4.4,4.4,0,1,0,4.4,4.4A4.4,4.4,0,0,0,1658.08,669.12Z"/><path class="cls-8" d="M1646.5,72.26a4.4,4.4,0,1,0,4.4,4.4A4.4,4.4,0,0,0,1646.5,72.26Z"/><path class="cls-9" d="M1618.23,513a4.4,4.4,0,1,0,4.4,4.4A4.4,4.4,0,0,0,1618.23,513Z"/><path class="cls-12" d="M1599.7,326.27a4.4,4.4,0,1,0,4.4,4.4A4.4,4.4,0,0,0,1599.7,326.27Z"/><path class="cls-21" d="M1573.54,207.19a4.4,4.4,0,1,0,4.4,4.4A4.4,4.4,0,0,0,1573.54,207.19Z"/><path class="cls-22" d="M1548.34,426.6a4.4,4.4,0,1,0,4.4,4.4A4.4,4.4,0,0,0,1548.34,426.6Z"/><path class="cls-17" d="M1537.78,673.21a4.4,4.4,0,1,0,4.4,4.4A4.4,4.4,0,0,0,1537.78,673.21Z"/><path class="cls-11" d="M1522.69,377.74a4.4,4.4,0,1,0,4.4,4.39A4.4,4.4,0,0,0,1522.69,377.74Z"/><path class="cls-12" d="M1505.14,687.91a4.4,4.4,0,1,0,4.4,4.4A4.4,4.4,0,0,0,1505.14,687.91Z"/><path class="cls-12" d="M1474.5,336.49a4.4,4.4,0,1,0,4.4,4.4A4.4,4.4,0,0,0,1474.5,336.49Z"/><path class="cls-21" d="M1455.06,691.08a4.4,4.4,0,1,0,4.4,4.4A4.4,4.4,0,0,0,1455.06,691.08Z"/><path class="cls-7" d="M1426.9,534.23a4.4,4.4,0,1,0,4.4,4.4A4.4,4.4,0,0,0,1426.9,534.23Z"/><path class="cls-16" d="M1398.25,137.37a4.4,4.4,0,1,0,4.4,4.4A4.4,4.4,0,0,0,1398.25,137.37Z"/><path class="cls-14" d="M1384.16,327.51a4.4,4.4,0,1,0,4.4,4.4A4.4,4.4,0,0,0,1384.16,327.51Z"/><path class="cls-9" d="M1355.71,699.44a4.4,4.4,0,1,0,4.4,4.4A4.4,4.4,0,0,0,1355.71,699.44Z"/><path class="cls-17" d="M1335.5,419.13a4.4,4.4,0,1,0,4.4,4.4A4.4,4.4,0,0,0,1335.5,419.13Z"/><path class="cls-8" d="M1312.12,714.2a4.4,4.4,0,1,0,4.4,4.39A4.4,4.4,0,0,0,1312.12,714.2Z"/><path class="cls-9" d="M1284.28,161.29a4.4,4.4,0,1,0,4.4,4.4A4.4,4.4,0,0,0,1284.28,161.29Z"/><path class="cls-11" d="M1271.75,151.34a4.4,4.4,0,1,0,4.4,4.4A4.4,4.4,0,0,0,1271.75,151.34Z"/><path class="cls-14" d="M1257,349.34a4.4,4.4,0,1,0,4.4,4.39A4.39,4.39,0,0,0,1257,349.34Z"/><path class="cls-25" d="M1247.6,576a4.4,4.4,0,1,0,4.4,4.4A4.4,4.4,0,0,0,1247.6,576Z"/><path class="cls-14" d="M1244,156.27a4.4,4.4,0,1,0,4.4,4.39A4.39,4.39,0,0,0,1244,156.27Z"/><path class="cls-12" d="M1284.44,38.25a4.4,4.4,0,1,0,4.4,4.4A4.4,4.4,0,0,0,1284.44,38.25Z"/><path class="cls-17" d="M1341.32,41a4.4,4.4,0,1,0,4.4,4.4A4.4,4.4,0,0,0,1341.32,41Z"/><path class="cls-11" d="M1418.21,53a4.4,4.4,0,1,0,4.4,4.4A4.4,4.4,0,0,0,1418.21,53Z"/><path class="cls-19" d="M1465.89,325.09a4.4,4.4,0,1,0,4.4,4.4A4.4,4.4,0,0,0,1465.89,325.09Z"/><path class="cls-20" d="M1532.6,113.25a4.4,4.4,0,1,0,4.4,4.4A4.4,4.4,0,0,0,1532.6,113.25Z"/><path class="cls-7" d="M1738.65,85.28a4.4,4.4,0,1,0,4.39,4.4A4.4,4.4,0,0,0,1738.65,85.28Z"/><path class="cls-24" d="M1812.77,147.41a4.4,4.4,0,1,0,4.4,4.4A4.4,4.4,0,0,0,1812.77,147.41Z"/><path class="cls-24" d="M1827.7,25.58a4.4,4.4,0,1,0,4.4,4.4A4.4,4.4,0,0,0,1827.7,25.58Z"/><path class="cls-10" d="M1864.4,22a4.4,4.4,0,1,0,4.4,4.4A4.4,4.4,0,0,0,1864.4,22Z"/><path class="cls-10" d="M1909.49,45.54a4.4,4.4,0,1,0,4.39,4.4A4.4,4.4,0,0,0,1909.49,45.54Z"/><path class="cls-26" d="M1998,318.75a4.4,4.4,0,1,0,4.4,4.4A4.4,4.4,0,0,0,1998,318.75Z"/><path class="cls-8" d="M2044.77,64.74a4.4,4.4,0,1,0,4.4,4.4A4.4,4.4,0,0,0,2044.77,64.74Z"/><path class="cls-9" d="M2070.93,183.82a4.4,4.4,0,1,0,4.4,4.4A4.4,4.4,0,0,0,2070.93,183.82Z"/><path class="cls-6" d="M2121.79,13.28a4.4,4.4,0,1,0,4.4,4.4A4.4,4.4,0,0,0,2121.79,13.28Z"/><path class="cls-17" d="M2170,54.52a4.4,4.4,0,1,0,4.4,4.4A4.4,4.4,0,0,0,2170,54.52Z"/><path class="cls-19" d="M2246.22,253.64a4.4,4.4,0,1,0,4.4,4.4A4.4,4.4,0,0,0,2246.22,253.64Z"/><path class="cls-16" d="M2260.31,63.51a4.4,4.4,0,1,0,4.4,4.4A4.4,4.4,0,0,0,2260.31,63.51Z"/><path class="cls-11" d="M2360.19,229.73a4.4,4.4,0,1,0,4.4,4.4A4.4,4.4,0,0,0,2360.19,229.73Z"/><path class="cls-26" d="M2387.49,41.68a4.4,4.4,0,1,0,4.4,4.4A4.4,4.4,0,0,0,2387.49,41.68Z"/><path class="cls-12" d="M2806.9,314.92a4.4,4.4,0,1,0,4.4,4.4A4.4,4.4,0,0,0,2806.9,314.92Z"/><path class="cls-21" d="M2780.74,195.84a4.4,4.4,0,1,0,4.4,4.4A4.4,4.4,0,0,0,2780.74,195.84Z"/><path class="cls-22" d="M2755.54,415.25a4.4,4.4,0,1,0,4.4,4.4A4.4,4.4,0,0,0,2755.54,415.25Z"/><path class="cls-17" d="M2745,661.86a4.4,4.4,0,1,0,4.4,4.4A4.4,4.4,0,0,0,2745,661.86Z"/><path class="cls-11" d="M2729.89,366.39a4.4,4.4,0,1,0,4.4,4.4A4.4,4.4,0,0,0,2729.89,366.39Z"/><path class="cls-12" d="M2712.34,676.56a4.4,4.4,0,1,0,4.4,4.4A4.4,4.4,0,0,0,2712.34,676.56Z"/><path class="cls-12" d="M2681.7,325.14a4.4,4.4,0,1,0,4.4,4.4A4.4,4.4,0,0,0,2681.7,325.14Z"/><path class="cls-21" d="M2662.26,679.74a4.4,4.4,0,1,0,4.4,4.39A4.4,4.4,0,0,0,2662.26,679.74Z"/><path class="cls-7" d="M2634.1,522.88a4.4,4.4,0,1,0,4.4,4.4A4.4,4.4,0,0,0,2634.1,522.88Z"/><path class="cls-16" d="M2605.45,126a4.4,4.4,0,1,0,4.4,4.39A4.4,4.4,0,0,0,2605.45,126Z"/><path class="cls-14" d="M2591.36,316.16a4.4,4.4,0,1,0,4.4,4.4A4.4,4.4,0,0,0,2591.36,316.16Z"/><path class="cls-9" d="M2562.91,688.09a4.4,4.4,0,1,0,4.4,4.4A4.4,4.4,0,0,0,2562.91,688.09Z"/><path class="cls-17" d="M2542.7,407.78a4.4,4.4,0,1,0,4.4,4.4A4.4,4.4,0,0,0,2542.7,407.78Z"/><path class="cls-8" d="M2519.32,702.85a4.4,4.4,0,1,0,4.4,4.4A4.4,4.4,0,0,0,2519.32,702.85Z"/><path class="cls-9" d="M2491.48,149.94a4.4,4.4,0,1,0,4.4,4.4A4.4,4.4,0,0,0,2491.48,149.94Z"/><path class="cls-11" d="M2479,140a4.4,4.4,0,1,0,4.4,4.4A4.4,4.4,0,0,0,2479,140Z"/><path class="cls-14" d="M2464.18,338a4.4,4.4,0,1,0,4.4,4.4A4.39,4.39,0,0,0,2464.18,338Z"/><path class="cls-25" d="M2454.8,564.62a4.4,4.4,0,1,0,4.4,4.39A4.4,4.4,0,0,0,2454.8,564.62Z"/><path class="cls-14" d="M2451.19,144.92a4.4,4.4,0,1,0,4.4,4.4A4.4,4.4,0,0,0,2451.19,144.92Z"/><path class="cls-12" d="M2491.64,26.9a4.4,4.4,0,1,0,4.4,4.4A4.4,4.4,0,0,0,2491.64,26.9Z"/><path class="cls-17" d="M2548.52,29.6a4.4,4.4,0,1,0,4.4,4.4A4.4,4.4,0,0,0,2548.52,29.6Z"/><path class="cls-11" d="M2625.41,41.69a4.4,4.4,0,1,0,4.4,4.4A4.4,4.4,0,0,0,2625.41,41.69Z"/><path class="cls-19" d="M2673.1,313.74a4.4,4.4,0,1,0,4.39,4.4A4.4,4.4,0,0,0,2673.1,313.74Z"/><path class="cls-20" d="M2739.8,101.9a4.4,4.4,0,1,0,4.4,4.4A4.4,4.4,0,0,0,2739.8,101.9Z"/></g></g></g></svg>