<svg xmlns="http://www.w3.org/2000/svg" xmlns:xlink="http://www.w3.org/1999/xlink" viewBox="0 0 98.27 107.17"><defs><style>.cls-1{fill:#df793a;}.cls-2{clip-path:url(#clip-path);}.cls-3{fill:#ba5025;}.cls-4{fill:#d74a28;}</style><clipPath id="clip-path"><path class="cls-1" d="M46.22,4.65a5.91,5.91,0,0,0-3-3C33.81-1.5,37.75,23.87,38.1,27.36c.49,5,.66,11.9-5.13,13.74C24.07,43.93,14.3,45,5.23,47.5,3,48.12.39,49.19,0,51.47s1.67,4,3.55,5.19a46.9,46.9,0,0,0,14.09,6c8.81,2.12,15.63,5.1,12,15.4-2,5.65-4.19,11.26-5.37,17.16-1.06,5.34-1,16.56,7.44,10A70.83,70.83,0,0,0,43.87,92.4c3.21-4.12,6.91-9,12.56-9.43,5.9-.45,12.36,4.1,17.39,6.73,4.6,2.41,13.67,9.55,18.92,9.35,5.51-.22,4-6.76,2.31-10A75.28,75.28,0,0,0,84.16,73.45c-6.68-7.39-9.56-13.78-2.38-22.09,6.2-7.18,15.33-13.72,16.45-23.9a2.7,2.7,0,0,0-.34-2,2.78,2.78,0,0,0-2.26-.76c-11,0-20.66,8.09-31.8,8.13-4.38,0-6.1-3.19-7.54-6.8a166.7,166.7,0,0,0-9.36-20.1C46.7,5.53,46.47,5.09,46.22,4.65Z"/></clipPath></defs><title>starfish</title><g id="Layer_2" data-name="Layer 2"><g id="OBJECTS"><path class="cls-1" d="M46.22,4.65a5.91,5.91,0,0,0-3-3C33.81-1.5,37.75,23.87,38.1,27.36c.49,5,.66,11.9-5.13,13.74C24.07,43.93,14.3,45,5.23,47.5,3,48.12.39,49.19,0,51.47s1.67,4,3.55,5.19a46.9,46.9,0,0,0,14.09,6c8.81,2.12,15.63,5.1,12,15.4-2,5.65-4.19,11.26-5.37,17.16-1.06,5.34-1,16.56,7.44,10A70.83,70.83,0,0,0,43.87,92.4c3.21-4.12,6.91-9,12.56-9.43,5.9-.45,12.36,4.1,17.39,6.73,4.6,2.41,13.67,9.55,18.92,9.35,5.51-.22,4-6.76,2.31-10A75.28,75.28,0,0,0,84.16,73.45c-6.68-7.39-9.56-13.78-2.38-22.09,6.2-7.18,15.33-13.72,16.45-23.9a2.7,2.7,0,0,0-.34-2,2.78,2.78,0,0,0-2.26-.76c-11,0-20.66,8.09-31.8,8.13-4.38,0-6.1-3.19-7.54-6.8a166.7,166.7,0,0,0-9.36-20.1C46.7,5.53,46.47,5.09,46.22,4.65Z"/><g class="cls-2"><path class="cls-3" d="M56.64,35.72a6.43,6.43,0,0,0,1.47,1.77c3.59,2.93,8.1.42,11.51-1.43,7-3.8,14.24-7.31,20.95-11.61a1.38,1.38,0,0,0,.69-.74c.16-.6-.49-1.09-1-1.38l-4.78-2.51c-1.3-.68-2.14-1.66-3.36-2.4-7.12-5.09-15-9-22.88-12.79A60.61,60.61,0,0,0,48.77.28c-1.19-.32-3.16-.69-3.66.89-.35,1.08.69,2.43,1.18,3.3,3,5.3,4.56,11.2,6,17.05.75,2.93,1.47,5.87,2.35,8.77A24.93,24.93,0,0,0,56.64,35.72Z"/><path class="cls-3" d="M75.43,54,96.75,37c.88,2.74.11,5.68-.44,8.5-1.42,7.42-1.22,15-1,22.59a54,54,0,0,0,.33,5.39c.22,1.74.6,3.47.83,5.21a36.19,36.19,0,0,1,.3,5.79,1.48,1.48,0,0,1-2.31,1.41,5.15,5.15,0,0,1-1.54-1.44A117.49,117.49,0,0,0,80.84,71.66c-3.53-3.23-7.91-6.33-9-11.29C71.24,57.67,73.54,55.53,75.43,54Z"/><path class="cls-3" d="M58.35,76.62c5.12-.06,9.5,3.71,13.16,6.91l11,9.6c1.66,1.44,3.42,3.09,3.7,5.27A1.89,1.89,0,0,1,86,99.62a2.36,2.36,0,0,1-1.24.86c-4.59,1.81-9.6,2.17-14.53,2.4-11.39.52-22.8.39-34.21.25.46-2,1.91-3.6,3.24-5.16a97.4,97.4,0,0,0,9.65-14C51,80.39,53,77,57.63,76.65Q58,76.62,58.35,76.62Z"/><path class="cls-3" d="M6.84,57.79l19.74,4.74a17.91,17.91,0,0,1,5.06,1.77,6.05,6.05,0,0,1,3.08,4.19,8.84,8.84,0,0,1-.84,4.26L24.1,98.92c-.24.65-.6,1.4-1.28,1.49a1.8,1.8,0,0,1-1.27-.46A26.27,26.27,0,0,1,16.15,94c-2.65-3.61-5.31-7.4-6.2-11.79-.5-2.44-.43-5-.92-7.43-.93-4.55-3.71-8.38-5.94-12.36C2.5,61.4-.26,57.28.87,56.14,1.66,55.34,5.72,57.52,6.84,57.79Z"/><path class="cls-3" d="M41.24,38.53a12.46,12.46,0,0,0,.15-4.67c-1-7.35-2.53-14.62-3.57-22-.14-1-.29-2-.49-3-.09-.45-.79-2.27-.6-2.63-3,5.57-2.14,12.34-3.54,18.49a13.56,13.56,0,0,1-2.74,6,16.14,16.14,0,0,1-5.75,3.8A87.91,87.91,0,0,1,15.75,38a48,48,0,0,0-6.94,2.56,12.68,12.68,0,0,0-5.46,4.83,4.19,4.19,0,0,0,2.78.93,86.92,86.92,0,0,0,18-.1c3.91-.48,7.92-.6,11.66-1.92A7.85,7.85,0,0,0,41.24,38.53Z"/></g><path class="cls-4" d="M50.36,49.93c-1.11,2.89-4.07,3.06-6.83,3.27,2.79.71,5.31.72,6.06,4,.39,1.68,0,5.17-1.25,6.41,3.06-3,5.87-4.9,10.12-3.43l2.42.84c-.81-1.84-2.53-3.84-2.69-5.89-.14-1.78,2.39-4.33,3.39-5.8l-3.64,1.17c-1.94.63-2.73.3-4.2-1.06a10.47,10.47,0,0,1-2.8-4.28C51.32,46.19,51,48.31,50.36,49.93Z"/><path class="cls-4" d="M47.64,38.85a2.13,2.13,0,1,0,2.13-2.12A2.12,2.12,0,0,0,47.64,38.85Z"/><circle class="cls-4" cx="47.64" cy="29.73" r="1.78"/><path class="cls-4" d="M44,21.22a1.52,1.52,0,1,0,1.52-1.52A1.52,1.52,0,0,0,44,21.22Z"/><path class="cls-4" d="M37.72,55.64a2.12,2.12,0,1,0-1.54-2.58A2.13,2.13,0,0,0,37.72,55.64Z"/><path class="cls-4" d="M28.44,55.13A1.78,1.78,0,1,0,27.15,53,1.78,1.78,0,0,0,28.44,55.13Z"/><path class="cls-4" d="M19.72,54.89a1.52,1.52,0,1,0-1.1-1.84A1.52,1.52,0,0,0,19.72,54.89Z"/><path class="cls-4" d="M48.85,69.64a2.12,2.12,0,1,0-3,.1A2.12,2.12,0,0,0,48.85,69.64Z"/><path class="cls-4" d="M43.93,77.51a1.78,1.78,0,1,0-2.52.09A1.77,1.77,0,0,0,43.93,77.51Z"/><path class="cls-4" d="M39.51,85a1.52,1.52,0,1,0-2.15.07A1.53,1.53,0,0,0,39.51,85Z"/><path class="cls-4" d="M65.49,65.1A2.12,2.12,0,1,0,64.85,68,2.12,2.12,0,0,0,65.49,65.1Z"/><path class="cls-4" d="M71.91,71.81a1.78,1.78,0,1,0-.54,2.46A1.79,1.79,0,0,0,71.91,71.81Z"/><path class="cls-4" d="M78.1,78A1.51,1.51,0,0,0,76,77.5a1.52,1.52,0,1,0,2.1.46Z"/><path class="cls-4" d="M67.17,45a2.12,2.12,0,1,0,2.64,1.42A2.12,2.12,0,0,0,67.17,45Z"/><path class="cls-4" d="M75.39,40.7a1.78,1.78,0,1,0,2.21,1.19A1.79,1.79,0,0,0,75.39,40.7Z"/><path class="cls-4" d="M83,36.42a1.53,1.53,0,0,0-1,1.9,1.52,1.52,0,1,0,1-1.9Z"/></g></g></svg>