<svg xmlns="http://www.w3.org/2000/svg" xmlns:xlink="http://www.w3.org/1999/xlink" viewBox="0 0 115.33 161.9"><defs><style>.cls-1{fill:#e6e6e6;}.cls-2,.cls-28{fill:#fff;}.cls-3{fill:#dfb338;}.cls-4{fill:#ca394e;}.cls-5{fill:#530100;}.cls-6{fill:#69f69f;}.cls-7{fill:#05af32;}.cls-8{fill:#ffe779;}.cls-9{fill:#e8f8ee;}.cls-10{fill:#30302e;}.cls-11{fill:#2b3534;}.cls-12{fill:#f9fcb7;}.cls-13{fill:#000800;}.cls-14{fill:#fefdff;}.cls-15{fill:#98463a;}.cls-16{fill:#d090a0;}.cls-17{fill:#c7c6c2;}.cls-18{fill:#68716e;}.cls-19{fill:#49524f;}.cls-20{fill:#7dc7ac;}.cls-21{fill:#cdcfce;}.cls-22{fill:#fffffd;}.cls-23{fill:url(#New_Gradient_Swatch_copy);}.cls-24{fill:url(#linear-gradient);}.cls-25{fill:url(#linear-gradient-2);}.cls-26{fill:#deda5c;}.cls-27{fill:#d5a288;}.cls-28{stroke:#000;stroke-width:0.83px;}.cls-28,.cls-38,.cls-39,.cls-40,.cls-44{stroke-miterlimit:10;}.cls-29{fill:url(#radial-gradient);}.cls-30{fill:url(#radial-gradient-2);}.cls-31{fill:url(#linear-gradient-3);}.cls-32{fill:url(#linear-gradient-4);}.cls-33{fill:#fafaf8;}.cls-34{fill:#fafaff;}.cls-35{fill:#645c52;}.cls-36{fill:#fdcf1a;}.cls-37{fill:#fede3b;}.cls-38,.cls-39,.cls-40{fill:none;stroke-linecap:round;}.cls-38,.cls-40{stroke:#86959c;}.cls-38,.cls-44{stroke-width:0.77px;}.cls-39{stroke:#16170f;stroke-width:1.54px;}.cls-40{stroke-width:0.58px;}.cls-41{fill:#4b594a;}.cls-42{fill:#11742f;}.cls-43{fill:#fdfdff;}.cls-44,.cls-45{fill:#e91816;}.cls-44{stroke:#fff;}.cls-46{fill:#f7fffd;}</style><linearGradient id="New_Gradient_Swatch_copy" x1="57.33" y1="108.74" x2="57.98" y2="155.84" gradientTransform="matrix(1, 0.01, -0.01, 1, 4.14, -2.85)" gradientUnits="userSpaceOnUse"><stop offset="0" stop-color="#ca8b6a"/><stop offset="0.05" stop-color="#bf8161"/><stop offset="0.16" stop-color="#ae7152"/><stop offset="0.29" stop-color="#a36548"/><stop offset="0.48" stop-color="#9c5f43"/><stop offset="1" stop-color="#9a5d41"/></linearGradient><linearGradient id="linear-gradient" x1="54.8" y1="132.28" x2="59.25" y2="136.24" gradientTransform="matrix(1, 0.01, -0.01, 1, 4.14, -2.85)" gradientUnits="userSpaceOnUse"><stop offset="0" stop-color="#ca8b6a"/><stop offset="1" stop-color="#9a5d41"/></linearGradient><linearGradient id="linear-gradient-2" x1="57.83" y1="132.86" x2="63.05" y2="132.86" xlink:href="#linear-gradient"/><radialGradient id="radial-gradient" cx="56.41" cy="138.12" r="1.92" gradientTransform="matrix(1, 0.01, -0.01, 1, 4.14, -2.85)" gradientUnits="userSpaceOnUse"><stop offset="0" stop-color="#9a5d41"/><stop offset="1" stop-color="#ca8b6a"/></radialGradient><radialGradient id="radial-gradient-2" cx="60.98" cy="138.12" r="1.92" xlink:href="#radial-gradient"/><linearGradient id="linear-gradient-3" x1="55.09" y1="151.61" x2="58.53" y2="151.61" xlink:href="#linear-gradient"/><linearGradient id="linear-gradient-4" x1="-2330.92" y1="151.61" x2="-2327.48" y2="151.61" gradientTransform="matrix(-1, -0.01, -0.01, 1, -2264.94, -21.44)" xlink:href="#radial-gradient"/></defs><title>Totem</title><g id="Layer_2" data-name="Layer 2"><g id="Objects"><path class="cls-1" d="M50.05,32s-5-4.15-3.46-22.54a4.2,4.2,0,0,1,1.22-2.68,2.45,2.45,0,0,1,.5-.38S46.92,1.7,50.77.77C54.27.8,54,4.55,54,4.55s5.6-.47,7.34,0C60.72,2.34,61.7-.1,63.44,0s3,1.86,2.23,4.82A4.56,4.56,0,0,1,67.18,7a6.67,6.67,0,0,1,.3,3,2.39,2.39,0,0,0,.23,1.6c.52.61,1.21,1.75.73,7.34.1,5-2.11,12-3.25,12.55s2.42,4.12,4.51,4c2.1,0,12.74,1.5,19-1.07,4.37-.49,5.41.74,6.81.75S110.41,34,112,34.37s3.29,3.87-2.53,10.29-10.53,6.55-15.08,7.39c-5.42.83-24,1.9-26.57,1.88,0,0,.9,8,.89,9.26,1.65,1.15-.57,6-.92,6.11h2A5,5,0,0,1,69,74.2c1.21,1.06-.1,1.31-.1,1.31L69,77.69s1.56.8.62,4.33a14.12,14.12,0,0,0-.45,6s1.19,7.21-.25,7.59c-1.9-.34-2.17.51-1.33,1.89.06,1.31-.54,2.62,1.75,2.77s1.59,13.5,1.3,16.38-.55,3.6-1.8,4.11c.06.79-.1,4.26-.1,4.26s2.36-.18,2.32,4.74-.06,14.8-.06,14.8.66-.32.65,1-.49,12.25-.49,12.25-.49,3.12-10.18,3c-5.85-.05-11.09-.71-11.42-3s-.43-10.74.09-11.09c.88-.12,1-1.74.9-2.74-1.4.38-1.88.37-1.43-6.78,0,0-1.19-9.14,1-11.13v-5.28s-2.36.59-1.58-4.34c-.44-5.55-.65-11.27-.14-14.67a3,3,0,0,1,3.64-2.77L52,96.2s-3.18-1.12-3-8.19a4.14,4.14,0,0,1-.1-3.19c-.6-1.67-.48-5.6-.48-5.6a49.46,49.46,0,0,1,.35-7.66s-1-1.25-.3-4.26c-.57-2.36-1-10.75.17-12.24,0,0,.92-.52-3.4-.56s-23.83.27-28.18-1S.42,48.66,0,36.43l17.29.49a15.3,15.3,0,0,1,6.82-1.34,18.6,18.6,0,0,1,5.76,1.09l15.37-.4s-.52-.87,3-1.54A3,3,0,0,0,50.05,32Z"/><path class="cls-2" d="M51.48,32S46.44,27.89,48,9.5a4.23,4.23,0,0,1,1.23-2.68,2.71,2.71,0,0,1,.49-.38S48.36,1.71,52.21.78c3.49,0,3.2,3.79,3.2,3.79s5.59-.48,7.34,0c-.6-2.19.38-4.63,2.13-4.53s3,1.86,2.23,4.83A4.4,4.4,0,0,1,68.61,7a6.84,6.84,0,0,1,.31,3,2.39,2.39,0,0,0,.23,1.6c.52.61,1.21,1.75.73,7.34.1,5-2.11,12-3.25,12.55s2.41,4.12,4.51,4c2.1,0,12.74,1.5,19-1.07,4.37-.49,5.41.74,6.8.76s14.86-1.11,16.43-.74,3.29,3.87-2.53,10.28-10.53,6.55-15.08,7.39c-5.42.83-24,1.9-26.57,1.88,0,0,.9,8,.89,9.26,1.65,1.15-.58,6-.93,6.11h2a4.94,4.94,0,0,1-.74,4.89c1.22,1.06-.09,1.31-.09,1.31l.06,2.18s1.57.8.62,4.33a14.2,14.2,0,0,0-.44,6s1.19,7.21-.26,7.59c-1.89-.34-2.16.51-1.32,1.89,0,1.31-.55,2.62,1.74,2.77s1.6,13.5,1.31,16.38-.55,3.6-1.8,4.12c.06.78-.1,4.25-.1,4.25s2.36-.17,2.32,4.74-1.12,14.84-1.12,14.84.67-.43.66.94.56,12.32.56,12.32-.49,3.12-10.18,3c-5.85-.05-11.09-.7-11.42-3s-.44-10.74.09-11.09c.88-.12,1-1.74.9-2.74-1.4.38-1.88.38-1.43-6.78,0,0-1.19-9.14,1-11.13v-5.28s-2.37.59-1.58-4.34c-.44-5.55-.65-11.27-.15-14.67a3,3,0,0,1,3.65-2.77l-.11-2.88s-3.17-1.12-3-8.19a4.09,4.09,0,0,1-.1-3.19c-.6-1.66-.48-5.59-.48-5.59a50.35,50.35,0,0,1,.34-7.66s-1-1.26-.29-4.26c-.57-2.37-1-10.75.17-12.25,0,0,.92-.52-3.4-.55s-23.83.26-28.18-1-16.56-4.85-17-17.08l17.29.49a15.25,15.25,0,0,1,6.82-1.34,18.47,18.47,0,0,1,5.75,1.09l15.38-.39s-.52-.88,3-1.55A3,3,0,0,0,51.48,32Z"/><path class="cls-3" d="M52.43,34.46c-.25-.07-.19-.3,0-.52.49-.76,3.06-1.39,6-1.45s6.69.29,7.43,1.4c.34.5-.81.66-.81.66S54.77,35.08,52.43,34.46Z"/><path class="cls-4" d="M53.37,33.69l11.05.09a1.41,1.41,0,0,0,1.43-1.46c-.08-2-1.11-5.33-7-5.37-5.63-.05-6.57,2.79-6.87,5.17A1.42,1.42,0,0,0,53.37,33.69Z"/><path class="cls-5" d="M53.22,33.69l4.28-1.1a5.35,5.35,0,0,1,2.78,0l4.29,1.17a1.06,1.06,0,0,0,.88-1.68c-.68-.86-2.41-1.72-6.64-1.76S53,31.09,52.36,32A1.07,1.07,0,0,0,53.22,33.69Z"/><path class="cls-6" d="M64.23,13H62.71A4.61,4.61,0,0,0,59,14.68a4.62,4.62,0,0,0-3.7-1.79H53.77c-2.42,0-4.89,1.24-3.39,3.76-1,2.61.91,3.8,3.33,3.82h1.52A4.6,4.6,0,0,0,59,18.74a4.62,4.62,0,0,0,3.7,1.79h1.52c2.42,0,4.33-1.13,3.39-3.76C69.1,14.29,66.65,13,64.23,13Z"/><path class="cls-7" d="M62.76,14h-1.1A3.3,3.3,0,0,0,59,15.25,3.29,3.29,0,0,0,56.32,14H55.23c-1.74,0-3.52.9-2.44,2.71-.71,1.88.65,2.73,2.39,2.75h1.1A3.3,3.3,0,0,0,59,18.17a3.34,3.34,0,0,0,2.66,1.29h1.09c1.75,0,3.12-.82,2.45-2.71C66.27,15,64.5,14,62.76,14Z"/><path class="cls-8" d="M59,17.75S60,24.23,61,25.2l2.8,2.33c.75.63-4.22-2.54-4.32,0,1.38,2.86-.59,6.62-.67,6.43h0c-.07-.89-1.69-4.17-.78-6.45-.06-2.5-4.79.73-4.17,0a31.73,31.73,0,0,0,2.21-2.33C57,23.88,59,17.75,59,17.75"/><circle class="cls-9" cx="54.06" cy="16.81" r="2.18"/><circle class="cls-10" cx="54.06" cy="16.81" r="0.71"/><circle class="cls-9" cx="63.88" cy="16.61" r="2.18"/><circle class="cls-10" cx="63.88" cy="16.61" r="0.71"/><path class="cls-11" d="M47.69,13.33a5.2,5.2,0,0,1,5.1-2.5,37.8,37.8,0,0,1,5.32,1.11s1.09-3.12-.3-3.25-7.67-2-8.75-.83C47.53,9.79,47.69,13.33,47.69,13.33Z"/><path class="cls-10" d="M70.32,12.8a5.19,5.19,0,0,0-5.22-2.24,36.52,36.52,0,0,0-5.26,1.37S58.6,8.86,60,8.66s7.56-2.38,8.7-1.26C70.3,9.25,70.32,12.8,70.32,12.8Z"/><ellipse class="cls-12" cx="59" cy="25.75" rx="8.19" ry="0.36" transform="translate(32.77 84.53) rotate(-89.53)"/><path class="cls-12" d="M53.9,27.45s2.84-2.31,3.68-1.62,1.13,3,1.23,4.51.12,3.59.12,3.59-1.67-3.16-1-6a1.73,1.73,0,0,0-.11-1.12c0-.07-.07-.06-.1-.1C57,26.15,53.9,27.45,53.9,27.45Z"/><path class="cls-13" d="M52.05,27.47a1.3,1.3,0,0,1-2-1l-.18-2.21-.18-2.21a1.3,1.3,0,0,1,1.86-1.28l2,.95,2,.95A1.3,1.3,0,0,1,55.7,25l-1.82,1.26Z"/><path class="cls-13" d="M66.63,27.59a1.3,1.3,0,0,0,2.06-.93l.21-2.21.22-2.21a1.31,1.31,0,0,0-1.84-1.32l-2,.92-2,.92A1.3,1.3,0,0,0,63,25l1.8,1.29Z"/><ellipse class="cls-14" cx="50.99" cy="24.19" rx="1.76" ry="0.98" transform="translate(26.39 74.98) rotate(-89.53)"/><ellipse class="cls-14" cx="53.28" cy="23.72" rx="1.28" ry="0.71" transform="translate(29.12 76.81) rotate(-89.53)"/><ellipse class="cls-14" cx="67.74" cy="24.32" rx="1.76" ry="0.98" transform="translate(42.87 91.86) rotate(-89.53)"/><ellipse class="cls-14" cx="65.46" cy="23.82" rx="1.28" ry="0.71" transform="translate(41.11 89.09) rotate(-89.53)"/><path class="cls-10" d="M54.2,46.29c-2.39,0-4.31-1.66-4.3-3.66s2-3.61,4.36-3.59,4.31,1.66,4.29,3.66S56.58,46.31,54.2,46.29Zm0-6.72c-2.09,0-3.81,1.36-3.82,3.07s1.68,3.11,3.77,3.13S58,44.41,58,42.7,56.35,39.58,54.25,39.57Z"/><path class="cls-10" d="M54,43.68a1,1,0,1,1,1.22-1A1.11,1.11,0,0,1,54,43.68Zm0-1.88a1,1,0,0,0-1.08.86,1.09,1.09,0,0,0,2.13,0A1,1,0,0,0,54.05,41.8Z"/><path class="cls-10" d="M63.87,46.37c-2.39,0-4.31-1.66-4.3-3.66s2-3.61,4.36-3.59,4.31,1.66,4.29,3.66S66.25,46.39,63.87,46.37Zm.05-6.72c-2.09,0-3.81,1.36-3.82,3.06s1.68,3.12,3.77,3.14,3.81-1.36,3.83-3.07S66,39.66,63.92,39.65Z"/><path class="cls-10" d="M63.7,43.76a1,1,0,1,1,0-2,1.11,1.11,0,0,1,1.2,1A1.12,1.12,0,0,1,63.7,43.76Zm0-1.89a1,1,0,0,0-1.08.87,1,1,0,0,0,1.06.87.89.89,0,1,0,0-1.74Z"/><path class="cls-10" d="M91.51,38.7c-1.84,0-3.33-1.05-3.32-2.32s1.52-2.28,3.35-2.26,3.33,1.05,3.32,2.32S93.35,38.72,91.51,38.7Zm0-4.25c-1.61,0-2.94.86-3,1.94s1.3,2,2.92,2,2.94-.85,2.95-1.94S93.16,34.46,91.54,34.45Z"/><path class="cls-10" d="M91.38,37.05c-.52,0-.94-.29-.93-.65s.42-.64.94-.63.93.29.93.65S91.89,37.06,91.38,37.05Zm0-1.19c-.46,0-.83.24-.83.54s.36.56.82.56.82-.24.82-.54S91.84,35.86,91.39,35.86Z"/><path class="cls-10" d="M24.86,40c-1.84,0-3.33-1-3.32-2.32s1.52-2.28,3.36-2.26,3.33,1,3.32,2.32S26.7,40,24.86,40Zm0-4.25c-1.62,0-2.94.85-2.95,1.93s1.3,2,2.91,2,2.94-.86,2.95-1.94S26.51,35.76,24.9,35.75Z"/><path class="cls-10" d="M24.73,38.35c-.52,0-.93-.3-.93-.65s.42-.64.94-.64.93.3.93.65S25.25,38.35,24.73,38.35Zm0-1.19c-.45,0-.82.24-.83.54s.37.55.82.56.82-.24.83-.55S25.19,37.16,24.74,37.16Z"/><path class="cls-10" d="M56.73,46.31l2,0s-.1,1.31-.84,1.39-1.17-.8-1.17-1.1"/><path class="cls-10" d="M59.4,46.33l2,0s-.1,1.31-.84,1.39-1.18-.8-1.17-1.1"/><path class="cls-15" d="M56.64,49.5l2,0s-.08-1.31-.82-1.4-1.18.77-1.18,1.08"/><path class="cls-4" d="M59.31,49.53h2s-.08-1.31-.82-1.4-1.19.78-1.19,1.08"/><path class="cls-10" d="M57.75,45.41h-.06a.26.26,0,0,1-.2-.31,1.67,1.67,0,0,1,1.73-1.36,1.4,1.4,0,0,1,1,.46,1.47,1.47,0,0,1,.31,1,.26.26,0,0,1-.28.24.27.27,0,0,1-.24-.29,1,1,0,0,0-.2-.62.89.89,0,0,0-.64-.27,1.16,1.16,0,0,0-1.18,1A.26.26,0,0,1,57.75,45.41Z"/><ellipse class="cls-4" cx="58.97" cy="50.48" rx="0.57" ry="2.29" transform="translate(8.01 109.03) rotate(-89.53)"/><path class="cls-10" d="M47.11,35.57c-.34.23-.5.37-.53.58L48.36,54.6h.4L47.1,35.38Z"/><path class="cls-10" d="M69.55,54c-.29.12-.42.24-.39-.18l1.19-18.48.66.09L69.64,53.68Z"/><path class="cls-16" d="M17.44,49.12l1.68.24a.45.45,0,1,0,.13-.89l-1.69-.24a.45.45,0,1,0-.12.89Z"/><path class="cls-16" d="M11.28,47.2l2.49.67c.42.11.8,0,.86-.22s-.22-.51-.63-.62l-2.49-.67c-.41-.11-.8,0-.86.22S10.87,47.08,11.28,47.2Z"/><path class="cls-16" d="M7.14,43.42,9.19,45c.34.26.73.32.88.13s0-.56-.36-.82l-2-1.56c-.34-.26-.74-.32-.88-.13S6.8,43.16,7.14,43.42Z"/><path class="cls-16" d="M4.27,37.84,5.8,39.93c.25.34.61.51.8.37s.15-.54-.11-.88L5,37.33c-.25-.34-.61-.51-.8-.37S4,37.5,4.27,37.84Z"/><path class="cls-4" d="M45.13,50.66h1.38a.42.42,0,0,0,.42-.41.41.41,0,0,0-.41-.42H45.13a.41.41,0,0,0-.42.41A.43.43,0,0,0,45.13,50.66Z"/><path class="cls-4" d="M42,50.79h1.24a.46.46,0,0,0,0-.9H42a.42.42,0,0,0-.37.45A.4.4,0,0,0,42,50.79Z"/><path class="cls-4" d="M38.68,50.71l1.23.12a.42.42,0,0,0,.41-.42.41.41,0,0,0-.32-.48l-1.24-.12a.46.46,0,0,0-.08.9Z"/><path class="cls-4" d="M35.45,50.54l1.23.1a.42.42,0,0,0,.4-.43.41.41,0,0,0-.33-.47l-1.24-.09a.41.41,0,0,0-.4.42A.4.4,0,0,0,35.45,50.54Z"/><path class="cls-16" d="M32.24,50.47h1.24a.42.42,0,0,0,.36-.46.4.4,0,0,0-.37-.44H32.23a.42.42,0,0,0-.37.45A.43.43,0,0,0,32.24,50.47Z"/><path class="cls-16" d="M29,50.26l1.24,0a.43.43,0,0,0,.36-.46.42.42,0,0,0-.39-.44l-1.24,0a.46.46,0,0,0,0,.9Z"/><path class="cls-16" d="M25.59,50.05l1.24,0a.46.46,0,0,0,0-.9l-1.24,0a.42.42,0,0,0-.35.47A.41.41,0,0,0,25.59,50.05Z"/><path class="cls-4" d="M24,41.45l.89,0c.15,0,.26-.22.25-.46s-.13-.45-.28-.44l-.89,0c-.15,0-.26.21-.25.46S23.82,41.45,24,41.45Z"/><path class="cls-4" d="M26.82,41.47l.89,0c.15,0,.26-.21.26-.46s-.14-.45-.29-.44l-.89,0c-.14,0-.26.21-.25.46S26.68,41.47,26.82,41.47Z"/><path class="cls-4" d="M30,41.73l.89,0c.15,0,.26-.21.25-.46s-.13-.45-.28-.44l-.89,0c-.15,0-.26.21-.25.46S29.82,41.73,30,41.73Z"/><path class="cls-4" d="M32.94,41.75l.89,0c.15,0,.26-.21.25-.46s-.13-.44-.28-.44l-.89,0c-.15,0-.26.21-.25.46S32.8,41.76,32.94,41.75Z"/><path class="cls-4" d="M36,41.78l.89,0c.14,0,.26-.21.25-.46s-.14-.45-.29-.44l-.89,0c-.14,0-.26.21-.25.46S35.87,41.78,36,41.78Z"/><path class="cls-4" d="M39.26,41.8l.89,0c.14,0,.26-.21.25-.46s-.14-.44-.28-.44l-.89,0c-.15,0-.26.22-.26.46S39.11,41.81,39.26,41.8Z"/><path class="cls-4" d="M42,42.06l.89,0c.15,0,.26-.21.25-.46s-.13-.44-.28-.44l-.89,0c-.15,0-.26.21-.25.46S41.86,42.07,42,42.06Z"/><path class="cls-4" d="M45.26,42.09l.89,0c.15,0,.26-.21.25-.46s-.13-.45-.28-.44l-.89,0c-.15,0-.26.21-.25.46S45.12,42.09,45.26,42.09Z"/><path class="cls-4" d="M93.32,40l-.89,0c-.15,0-.28-.19-.29-.43s.09-.46.24-.47l.88,0c.15,0,.28.18.3.43S93.47,40,93.32,40Z"/><path class="cls-4" d="M90.32,40.57l-.89.06c-.15,0-.28-.19-.3-.44s.1-.45.24-.46l.89,0c.15,0,.28.18.29.43S90.46,40.56,90.32,40.57Z"/><path class="cls-4" d="M87.32,40.85l-.89,0c-.15,0-.28-.19-.3-.43s.1-.46.24-.47l.89,0c.15,0,.28.18.29.43S87.46,40.84,87.32,40.85Z"/><path class="cls-4" d="M84.16,40.82l-.89,0c-.15,0-.28-.18-.3-.43s.1-.46.24-.46l.89-.06c.15,0,.28.19.3.43S84.3,40.81,84.16,40.82Z"/><path class="cls-4" d="M80.94,41.27l-.89.06c-.15,0-.28-.19-.3-.44s.1-.45.24-.46l.89-.06c.15,0,.28.19.3.44S81.08,41.26,80.94,41.27Z"/><path class="cls-4" d="M78.14,41.39l-.89,0c-.15,0-.28-.18-.29-.43s.09-.46.24-.47l.88,0c.15,0,.28.18.3.43S78.29,41.38,78.14,41.39Z"/><path class="cls-4" d="M75.16,41.71l-.89,0c-.14,0-.27-.19-.29-.43s.09-.46.24-.47l.89,0c.15,0,.28.18.29.43S75.31,41.7,75.16,41.71Z"/><path class="cls-4" d="M22.29,49.9l1.23,0a.46.46,0,0,0,0-.9l-1.23,0a.46.46,0,0,0,0,.9Z"/><path class="cls-17" d="M19.14,42.23l1.4.76s-.87,1.3-1.59.94S19.14,42.23,19.14,42.23Z"/><path class="cls-17" d="M21.6,43l1.57.26s-.4,1.51-1.19,1.4S21.6,43,21.6,43Z"/><path class="cls-17" d="M24.39,43.21,26,43.1s0,1.56-.84,1.64S24.39,43.21,24.39,43.21Z"/><path class="cls-17" d="M27.38,43.35l1.59-.1s0,1.56-.85,1.64S27.38,43.35,27.38,43.35Z"/><path class="cls-17" d="M30.59,43.53l1.59-.1s0,1.56-.84,1.64S30.59,43.53,30.59,43.53Z"/><path class="cls-17" d="M33.57,43.56l1.59-.11s0,1.56-.84,1.64S33.57,43.56,33.57,43.56Z"/><path class="cls-17" d="M36.81,43.59l1.59-.11s0,1.56-.84,1.64S36.81,43.59,36.81,43.59Z"/><path class="cls-17" d="M40.38,43.61l1.59-.1s0,1.56-.84,1.64S40.38,43.61,40.38,43.61Z"/><path class="cls-17" d="M43.37,44l1.59-.1s-.05,1.56-.84,1.64S43.37,44,43.37,44Z"/><path class="cls-17" d="M15.2,38.12l.89,1.32s-1.38.74-1.84.1S15.2,38.12,15.2,38.12Z"/><path class="cls-6" d="M5.4,36.65l8,.06s-.34,1.8-4,1.77S5.4,36.65,5.4,36.65Z"/><path class="cls-6" d="M6.88,42.08l7.57-2.43s.23,1.82-3.23,2.94S6.88,42.08,6.88,42.08Z"/><path class="cls-6" d="M10.64,46.24l5.23-3.54s.59,1.34-1.81,3S10.64,46.24,10.64,46.24Z"/><path class="cls-6" d="M16.26,48.65l3.13-5s1,.92-.44,3.2S16.26,48.65,16.26,48.65Z"/><path class="cls-6" d="M111.49,35.14l-7.95-.07s.32,1.81,4,1.84S111.49,35.14,111.49,35.14Z"/><path class="cls-6" d="M109.92,40.55,102.39,38s-.26,1.81,3.19,3S109.92,40.55,109.92,40.55Z"/><path class="cls-6" d="M106.09,44.65,100.92,41s-.61,1.33,1.76,3S106.09,44.65,106.09,44.65Z"/><path class="cls-6" d="M100.44,47l-3-5s-1,.9.38,3.2S100.44,47,100.44,47Z"/><path class="cls-10" d="M2.77,36.62l3.48,5.2L3,41.8S1,38.3,1.3,36.61Z"/><path class="cls-18" d="M3.16,36.63l3.09,5.19-2.86,0S1.6,38.31,1.85,36.62Z"/><path class="cls-10" d="M4.69,42.6,9.3,46.19l-2.11.94s-3.12-2.56-3.38-4.25Z"/><path class="cls-18" d="M5.06,42.48,9.3,46.19,7.52,47c1.67,1.2-3.7-4.11-3.71-4.15Z"/><path class="cls-10" d="M9.24,47.37l4.9,1.24a.67.67,0,0,1,.33,1.1l-.7.78a.69.69,0,0,1-.69.19,14,14,0,0,1-4.47-2.17.66.66,0,0,1,0-1h0A.68.68,0,0,1,9.24,47.37Z"/><path class="cls-18" d="M9.58,47.11l4.67,1.47a.67.67,0,0,1,.3,1.08l-.77.88c1.74.37-2.59-1.35-4.65-2.17a.66.66,0,0,1-.19-1.12h0A.65.65,0,0,1,9.58,47.11Z"/><path class="cls-10" d="M15.65,50.43,20.11,50a.59.59,0,0,1,.61.81l-.36.87a.59.59,0,0,1-.51.37,12.8,12.8,0,0,1-4.38-.44.59.59,0,0,1-.29-.83h0A.6.6,0,0,1,15.65,50.43Z"/><path class="cls-18" d="M15.86,50.11l4.33-.2a.59.59,0,0,1,.57.81l-.25.58a.38.38,0,0,1-.38.24c-.8,0-2.55-.2-4.27-.24a.59.59,0,0,1-.5-.88h0A.61.61,0,0,1,15.86,50.11Z"/><path class="cls-19" d="M21.57,50.58l2.75.29s-.45,2.5-1.81,2a1.6,1.6,0,0,1-1-1.95"/><path class="cls-19" d="M24.84,50.87l2.75.29s-.44,2.5-1.8,2a1.61,1.61,0,0,1-1-2"/><path class="cls-19" d="M28.09,51.12l2.5.1s-.25,2.35-1.51,2a1.51,1.51,0,0,1-1-1.76"/><path class="cls-19" d="M31.32,51.24l2.51-.08s-.08,2.37-1.36,2.1a1.5,1.5,0,0,1-1.12-1.68"/><path class="cls-19" d="M34.83,51.27l2.51-.08s-.08,2.37-1.37,2.1a1.5,1.5,0,0,1-1.11-1.68"/><path class="cls-19" d="M38.08,51.29l2.5-.08s-.08,2.37-1.36,2.11a1.52,1.52,0,0,1-1.12-1.69"/><path class="cls-19" d="M41.38,51.32l2.51-.08s-.08,2.37-1.37,2.11a1.52,1.52,0,0,1-1.11-1.69"/><path class="cls-19" d="M44.56,51.35l2.51-.08s-.09,2.37-1.37,2.1a1.49,1.49,0,0,1-1.11-1.68"/><path class="cls-10" d="M113.83,34.86,110.27,40l3.21,0s2.08-3.46,1.82-5.15Z"/><path class="cls-18" d="M113.45,34.86,110.27,40l2.86,0s1.85-3.46,1.63-5.16Z"/><path class="cls-10" d="M111.82,40.81l-4.67,3.51,2.1,1s3.16-2.51,3.44-4.2Z"/><path class="cls-18" d="M111.45,40.68l-4.3,3.64,1.54.76a55.67,55.67,0,0,0,4-4Z"/><path class="cls-10" d="M107.19,45.5l-4.92,1.17a.67.67,0,0,0-.35,1.09l.69.78a.67.67,0,0,0,.69.21,14.41,14.41,0,0,0,4.5-2.09.66.66,0,0,0,0-1h0A.66.66,0,0,0,107.19,45.5Z"/><path class="cls-18" d="M106.85,45.24l-4.69,1.39a.67.67,0,0,0-.32,1.07l.6.66c.53.06,2.77-1.07,4.84-1.86a.67.67,0,0,0,.21-1.12h0A.67.67,0,0,0,106.85,45.24Z"/><path class="cls-10" d="M101.18,48.47l-3.94.19a.52.52,0,0,0-.42.79l.42.7a.52.52,0,0,0,.5.25,11.08,11.08,0,0,0,3.75-1,.51.51,0,0,0,.14-.76h0A.53.53,0,0,0,101.18,48.47Z"/><path class="cls-18" d="M101,48.22l-3.79.4a.52.52,0,0,0-.4.78l.3.47a.35.35,0,0,0,.36.16c.69-.14,2.19-.51,3.68-.78a.52.52,0,0,0,.32-.83h0A.53.53,0,0,0,101,48.22Z"/><path class="cls-19" d="M96,49l-2.76.17s.35,2.52,1.72,2.11A1.61,1.61,0,0,0,96,49.32"/><path class="cls-19" d="M92.77,49.4,90,49.58s.35,2.52,1.73,2.1a1.6,1.6,0,0,0,1-1.91"/><path class="cls-19" d="M89.48,49.89,87,50s.3,2.35,1.55,2a1.51,1.51,0,0,0,1-1.78"/><path class="cls-19" d="M86.25,50.31H83.74s.17,2.37,1.44,2.06a1.52,1.52,0,0,0,1.06-1.73"/><path class="cls-19" d="M82.89,50.42l-2.5.14s.29,2.35,1.54,2a1.51,1.51,0,0,0,1-1.78"/><path class="cls-19" d="M79.57,50.54l-2.5.16s.32,2.35,1.57,2a1.52,1.52,0,0,0,.94-1.79"/><path class="cls-19" d="M76.45,50.93l-2.5.16s.31,2.35,1.56,2a1.5,1.5,0,0,0,.95-1.78"/><path class="cls-19" d="M73.43,51l-2.5.17s.31,2.34,1.56,2a1.51,1.51,0,0,0,1-1.79"/><path class="cls-16" d="M99.26,47.83l-1.67.29a.49.49,0,0,1-.58-.36.48.48,0,0,1,.42-.53l1.68-.29a.48.48,0,0,1,.58.36A.49.49,0,0,1,99.26,47.83Z"/><path class="cls-16" d="M105.18,45.48l-2.5.63c-.41.11-.8,0-.85-.23s.23-.5.64-.61l2.5-.63c.42-.1.8,0,.86.23S105.6,45.38,105.18,45.48Z"/><path class="cls-16" d="M109.52,41.61l-2.07,1.53c-.35.26-.74.31-.88.12s0-.56.36-.81L109,40.92c.34-.26.73-.31.87-.12S109.86,41.36,109.52,41.61Z"/><path class="cls-16" d="M112.07,35.81l-1.71,1.93c-.28.32-.66.45-.84.29s-.09-.54.19-.86l1.72-1.93c.28-.32.65-.45.83-.29S112.36,35.49,112.07,35.81Z"/><path class="cls-4" d="M72.52,50.58H71.14a.42.42,0,1,1,0-.83h1.39a.42.42,0,0,1,.41.42A.41.41,0,0,1,72.52,50.58Z"/><path class="cls-4" d="M75.73,50.47H74.49a.44.44,0,0,1-.37-.46.42.42,0,0,1,.38-.44h1.24a.4.4,0,0,1,.36.45A.42.42,0,0,1,75.73,50.47Z"/><path class="cls-4" d="M79,50l-1.24.1a.46.46,0,0,1-.07-.9l1.24-.1a.41.41,0,0,1,.4.42A.42.42,0,0,1,79,50Z"/><path class="cls-4" d="M82.31,49.73l-1.23.07a.46.46,0,0,1-.06-.9l1.24-.07a.46.46,0,0,1,0,.9Z"/><path class="cls-16" d="M85.39,49.54l-1.23.09a.45.45,0,0,1-.07-.89l1.23-.1a.42.42,0,0,1,.41.42A.42.42,0,0,1,85.39,49.54Z"/><path class="cls-16" d="M88.74,49.06l-1.24.1a.46.46,0,0,1-.07-.9l1.23-.1a.46.46,0,0,1,.08.9Z"/><path class="cls-16" d="M92.08,48.79l-1.23.1a.46.46,0,0,1-.08-.9l1.24-.1a.41.41,0,0,1,.4.42A.42.42,0,0,1,92.08,48.79Z"/><path class="cls-16" d="M94.89,48.56l-1.23.1a.46.46,0,0,1-.07-.9l1.23-.1a.43.43,0,0,1,.41.42A.42.42,0,0,1,94.89,48.56Z"/><path class="cls-17" d="M16.73,40.92l1.28.95s-1.05,1.16-1.7.7S16.73,40.92,16.73,40.92Z"/><path class="cls-20" d="M30.54,40a1.85,1.85,0,1,1,2.12-1.81A2,2,0,0,1,30.54,40Zm0-3.13a1.32,1.32,0,1,0,1.56,1.31A1.46,1.46,0,0,0,30.57,36.85Z"/><path class="cls-4" d="M36,40a1.85,1.85,0,1,1,2.11-1.82A2,2,0,0,1,36,40Zm0-3.13a1.32,1.32,0,1,0,1.56,1.31A1.44,1.44,0,0,0,36.06,36.9Z"/><path class="cls-21" d="M44.34,40.13a2.09,2.09,0,1,1,2.4-2.05A2.24,2.24,0,0,1,44.34,40.13Zm0-3.54A1.65,1.65,0,0,0,42.58,38a1.81,1.81,0,0,0,3.55,0A1.64,1.64,0,0,0,44.37,36.59Z"/><path class="cls-22" d="M44.34,39.83a1.79,1.79,0,1,1,2-1.75A1.92,1.92,0,0,1,44.34,39.83Zm0-3a1.22,1.22,0,1,0,1.44,1.21A1.34,1.34,0,0,0,44.37,36.86Z"/><path class="cls-21" d="M40,39.82a1.61,1.61,0,1,1,1.84-1.58A1.72,1.72,0,0,1,40,39.82Zm0-2.72a1.15,1.15,0,1,0,1.36,1.14A1.27,1.27,0,0,0,40,37.1Z"/><path class="cls-17" d="M97.25,41l-1.42.74s.85,1.31,1.57,1S97.25,41,97.25,41Z"/><path class="cls-17" d="M95.15,41.7l-1.58.24s.38,1.51,1.17,1.42S95.15,41.7,95.15,41.7Z"/><path class="cls-17" d="M92.91,42.26l-1.59-.13s0,1.56.81,1.65S92.91,42.26,92.91,42.26Z"/><path class="cls-17" d="M89.91,42.39l-1.59-.13s0,1.56.82,1.65S89.91,42.39,89.91,42.39Z"/><path class="cls-17" d="M86.38,42.58l-1.59-.13s0,1.56.82,1.66S86.38,42.58,86.38,42.58Z"/><path class="cls-17" d="M83.47,42.56l-1.59-.13s0,1.56.82,1.65S83.47,42.56,83.47,42.56Z"/><path class="cls-17" d="M80.2,42.53l-1.59-.13s0,1.56.81,1.65S80.2,42.53,80.2,42.53Z"/><path class="cls-17" d="M76.66,42.72l-1.59-.13s0,1.56.82,1.65S76.66,42.72,76.66,42.72Z"/><path class="cls-17" d="M101.42,36.63l-.91,1.31s1.36.76,1.84.12S101.42,36.63,101.42,36.63Z"/><path class="cls-17" d="M100.49,39.36l-1.3.92s1,1.18,1.69.74S100.49,39.36,100.49,39.36Z"/><path class="cls-6" d="M83.72,37.58a2.12,2.12,0,1,1,2.09,1.85A2,2,0,0,1,83.72,37.58Zm.53,0a1.6,1.6,0,0,0,3.14,0,1.6,1.6,0,0,0-3.14,0Z"/><path class="cls-4" d="M79,37.74a2.12,2.12,0,1,1,2.09,1.85A2,2,0,0,1,79,37.74Zm.53,0a1.47,1.47,0,0,0,1.56,1.31,1.32,1.32,0,1,0-1.56-1.31Z"/><path class="cls-21" d="M70.39,37.47a2.4,2.4,0,1,1,2.36,2.09A2.24,2.24,0,0,1,70.39,37.47Zm.61,0A1.8,1.8,0,1,0,72.78,36,1.63,1.63,0,0,0,71,37.47Z"/><path class="cls-22" d="M70.74,37.47a2,2,0,1,1,2,1.79A1.91,1.91,0,0,1,70.74,37.47Zm.58,0a1.48,1.48,0,0,0,2.9,0,1.48,1.48,0,0,0-2.9,0Z"/><path class="cls-21" d="M75.27,37.71a1.85,1.85,0,1,1,1.82,1.61A1.73,1.73,0,0,1,75.27,37.71Zm.47,0a1.38,1.38,0,1,0,1.37-1.12A1.26,1.26,0,0,0,75.74,37.72Z"/><path class="cls-16" d="M48.55,57.39s1.49,1.74,2,0c1.2-.42,1.11,2.31-.79,2.39s-1.72-2.12-1.72-2.12S48,57.58,48.55,57.39Z"/><path class="cls-10" d="M49.07,59.72h0a1,1,0,0,1-.51-1.32h0c.17-.35.37,0,.6.25a.88.88,0,0,0,.68.36c.24,0,.52.06.61.22h0A1.08,1.08,0,0,1,49.07,59.72Z"/><path class="cls-16" d="M48.88,61.38s1.27,1.49,1.71,0c1-.36,1,2-.67,2.05s-1.47-1.82-1.47-1.82S48.37,61.54,48.88,61.38Z"/><path class="cls-10" d="M49.33,63.37h0a.83.83,0,0,1-.44-1.13h0c.14-.29.32,0,.51.22a.79.79,0,0,0,.58.31c.21,0,.45,0,.52.18h0A.89.89,0,0,1,49.33,63.37Z"/><path class="cls-16" d="M69.2,57.56s-1.52,1.72-2,0C66,57.11,66,59.84,67.94,60s1.75-2.09,1.75-2.09S69.79,57.76,69.2,57.56Z"/><path class="cls-10" d="M68.64,59.88h0a1,1,0,0,0,.53-1.31h0c-.16-.35-.37-.06-.6.24a.93.93,0,0,1-.69.35c-.24,0-.52.05-.61.2h0A1.07,1.07,0,0,0,68.64,59.88Z"/><path class="cls-16" d="M68.8,61.55s-1.3,1.46-1.71,0c-1-.37-1,2,.64,2.06s1.5-1.79,1.5-1.79S69.32,61.72,68.8,61.55Z"/><path class="cls-10" d="M68.32,63.53h0a.84.84,0,0,0,.46-1.12h0c-.14-.3-.32,0-.52.21a.72.72,0,0,1-.58.29c-.21,0-.45.05-.53.18h0A.92.92,0,0,0,68.32,63.53Z"/><circle class="cls-10" cx="48.85" cy="37.04" r="0.63"/><circle class="cls-10" cx="48.97" cy="39.63" r="0.63"/><circle class="cls-10" cx="49.29" cy="41.91" r="0.63"/><circle class="cls-10" cx="49.62" cy="44.2" r="0.63"/><circle class="cls-10" cx="49.95" cy="46.49" r="0.63"/><circle class="cls-10" cx="50.28" cy="48.78" r="0.63"/><circle class="cls-10" cx="50.6" cy="51.07" r="0.63"/><circle class="cls-10" cx="50.93" cy="53.35" r="0.63"/><circle class="cls-10" cx="51.26" cy="55.64" r="0.63"/><circle class="cls-10" cx="51.58" cy="57.93" r="0.63"/><circle class="cls-10" cx="69.31" cy="35.92" r="0.63"/><circle class="cls-10" cx="69.29" cy="38.51" r="0.63"/><circle class="cls-10" cx="69.04" cy="40.81" r="0.63"/><circle class="cls-10" cx="68.68" cy="43.14" r="0.63"/><circle class="cls-10" cx="68.55" cy="45.4" r="0.63"/><circle class="cls-10" cx="68.3" cy="47.7" r="0.63"/><circle class="cls-10" cx="68.06" cy="50" r="0.63"/><circle class="cls-10" cx="67.81" cy="52.3" r="0.63"/><circle class="cls-10" cx="67.56" cy="54.59" r="0.63"/><circle class="cls-10" cx="67.32" cy="56.89" r="0.63"/><path class="cls-10" d="M72.56,145l-.08,9.94c-12,6.81-21-.18-21-.18l.07-8.71h0a1.57,1.57,0,0,0-2.07,1.49l-.1,11.24s10.37,7,24.23.19l-2.19-13.61a.73.73,0,0,0-1.07-.67Z"/><path class="cls-10" d="M72.48,154.89c0-4.25-1.11-7.94-1.09-10.32-2.79,1.37-9.49,4.75-19.88,1.43l-.07,8.71S60.44,161.7,72.48,154.89Z"/><path class="cls-15" d="M49.68,124.53l0-4.11s-4.1,2.21-1.7-23.06c1.92-3.66,4.36-2.21,4.36-2.21-1.95-1.82-1.24-2.88,0-3.06,0,0,4.87-3.27,16.06.13,1.37,1.19,1.46,3,.69,3.58,2.55-.08,4.73,1.36,4.25,4,0,3.47,1.55,22.19-2.16,20.58-1.67,4.53.69,5.73,1.36,6.31a4.23,4.23,0,0,1,1.34,3c.34,6.74-.63,23.31-12.3,23.66,0,0-15.46,1.92-14.29-23.89a2.39,2.39,0,0,1,.78-1.67,5.7,5.7,0,0,0,.55-.55A4.13,4.13,0,0,0,49.68,124.53Z"/><ellipse class="cls-15" cx="51.81" cy="138.81" rx="4.78" ry="11.15" transform="translate(-12.1 5.14) rotate(-5.08)"/><ellipse class="cls-15" cx="69.85" cy="137.33" rx="11.94" ry="4.12" transform="translate(-68.05 206.05) rotate(-89.53)"/><path class="cls-15" d="M49.45,148.2s-1.12,6.33-.06,7.26,1-3.62,1-3.62-.07,4.39,1.32,4.4,0-4.74,0-4.74,1,5.06,2.58,4.77,0-4.9,0-4.9,1.79,5.22,3,4.31-1.17-5.82-1.17-5.82,1.54-3.56.19-6.37S41.64,130.32,49.45,148.2Z"/><path class="cls-15" d="M72.34,147.05s2.18,6,1.29,7.15-1.55-3.41-1.55-3.41.81,4.32-.56,4.56-.84-4.66-.84-4.66-.17,5.16-1.73,5.13-.87-4.82-.87-4.82-.89,5.45-2.25,4.76.17-5.94.17-5.94-2.12-3.24-1.28-6.24S77,128.1,72.34,147.05Z"/><path class="cls-23" d="M57.57,102.86a2.27,2.27,0,0,1-2.31,2.58c-2.61.14-4.44.43-5.42,7.15s-1.9,7.58-.07,8.62,4.75-1.24,5.84-3.07c.13,3.12-.57,14.07.47,17.14.28,3.83,1.15,10.18,1.15,10.18s-1.15,8.33,3,7.9a18.51,18.51,0,0,0,4.13-.69s2.75.44.83-7.15c.95-4.35,3.26-6.16-.14-20.26,0,0,.59,2.45,1.11-5.2,4.13.19,8.38,4,5.44-11.12-3-6-5.93-4-5.93-4a1.35,1.35,0,0,1-.9-2C65.54,101.4,58.83,98.28,57.57,102.86Z"/><ellipse class="cls-10" cx="61.43" cy="100.47" rx="5.58" ry="5.36" transform="translate(-39.54 161.07) rotate(-89.53)"/><path class="cls-15" d="M61.31,137.54l-.08,9.94s-3.35,1.93-3.9-2.13a36.81,36.81,0,0,1,.07-8.57S60.32,135.06,61.31,137.54Z"/><path class="cls-15" d="M61.74,137.54l-.08,10s3.32,2,3.93-2.08a36.49,36.49,0,0,0,.07-8.56S62.77,135.08,61.74,137.54Z"/><path class="cls-24" d="M55.91,127.2s-.59-2.37,1.45-2.47a2.81,2.81,0,0,1,3,2.51c0,.92,2.17,8.76-.07,8.88S56.65,137.15,55.91,127.2Z"/><path class="cls-25" d="M61,127.22s-.54-2.38,1.39-2.46a2.72,2.72,0,0,1,2.86,2.53c0,.92,2,8.78-.15,8.89S61.59,137.17,61,127.22Z"/><rect class="cls-26" x="55.23" y="124.41" width="10.71" height="1.8" rx="0.9" ry="0.9" transform="translate(1.03 -0.49) rotate(0.47)"/><path class="cls-27" d="M55.51,109.72c-.16,0-.3-.24-.3-.54l0-3.51c0-.3.14-.54.31-.54s.31.25.3.54l0,3.51C55.82,109.48,55.68,109.72,55.51,109.72Z"/><path class="cls-27" d="M65.67,109.8c-.17,0-.31-.28-.3-.62l0-4c0-.34.14-.61.31-.61s.3.28.3.62l0,4C66,109.53,65.84,109.8,65.67,109.8Z"/><circle class="cls-28" cx="60.34" cy="120.57" r="0.95"/><path class="cls-27" d="M51.58,114s3.09-5.47,6.28-5.24,0,2.2,0,2.2,1.86-1.16,2.16-.17-2.93,1.9-2.93,1.9,2.1-1.16,2.41-.29-1.28,1.73-1.75,1.66,1.82-.94,2,0-2.69,1.44-2.69,1.44,2.41-.88,2.59,0-8.29,7-9.7,5.86-3.58-4.76-.61-6S51.58,114,51.58,114Z"/><path class="cls-15" d="M51.58,114s3.09-5.47,6.28-5.24,0,2.2,0,2.2,1.86-1.16,2.16-.17-2.93,1.9-2.93,1.9,2.1-1.16,2.41-.29-1.28,1.73-1.75,1.66,1.82-.94,2,0-2.69,1.44-2.69,1.44,2.41-.88,2.59,0-5.82,3.37-7.22,2.26S51.58,114,51.58,114Z"/><path class="cls-27" d="M52.73,113.4s2.75-4.89,5.6-4.69,0,2,0,2,1.67-1,1.94-.16-2.62,1.7-2.62,1.7,1.87-1,2.15-.26-1.14,1.55-1.56,1.49,1.62-.84,1.79,0-2.4,1.3-2.4,1.3,2.15-.79,2.32,0-5.2,3-6.46,2S52.73,113.4,52.73,113.4Z"/><path class="cls-27" d="M69.3,113.76s-3-5.53-6.17-5.37,0,2.21,0,2.21-1.84-1.2-2.17-.22,2.9,2,2.9,2-2.08-1.2-2.4-.34,1.24,1.76,1.72,1.7-1.81-1-2,0,2.66,1.5,2.66,1.5-2.39-.93-2.6,0,8.17,7.13,9.6,6,3.67-4.7.72-5.94S69.3,113.76,69.3,113.76Z"/><path class="cls-15" d="M69.3,113.76s-3-5.53-6.17-5.37,0,2.21,0,2.21-1.84-1.2-2.17-.22,2.9,2,2.9,2-2.08-1.2-2.4-.34,1.24,1.76,1.72,1.7-1.81-1-2,0,2.66,1.5,2.66,1.5-2.39-.93-2.6,0,5.76,3.48,7.19,2.39S69.3,113.76,69.3,113.76Z"/><rect class="cls-26" x="48.65" y="113.94" width="3.26" height="2.31" rx="1.16" ry="1.16" transform="translate(1.06 -0.46) rotate(0.53)"/><rect class="cls-26" x="69.08" y="113.73" width="3.26" height="2.31" rx="1.16" ry="1.16" transform="translate(1.06 -0.65) rotate(0.53)"/><circle class="cls-29" cx="59.27" cy="135.57" r="1.92"/><circle class="cls-30" cx="63.84" cy="135.61" r="1.92"/><path class="cls-31" d="M58.78,145.85a1.15,1.15,0,0,1,.91,0c.64.32,1.64,1.17,1.72,3.44.13,3.36-.64,4.43-2.31,2A6.87,6.87,0,0,1,58,146.83a1.17,1.17,0,0,1,.74-1Z"/><path class="cls-32" d="M63.93,145.89a1.19,1.19,0,0,0-.91,0c-.65.31-1.66,1.14-1.78,3.41-.18,3.36.57,4.44,2.27,2.08a6.79,6.79,0,0,0,1.14-4.53,1.16,1.16,0,0,0-.72-1Z"/><path class="cls-27" d="M68.38,113.17s-2.67-4.94-5.53-4.78,0,2,0,2-1.65-1.07-1.93-.19,2.59,1.74,2.59,1.74-1.86-1.07-2.15-.29,1.12,1.56,1.54,1.51-1.61-.87-1.79,0,2.38,1.33,2.38,1.33-2.14-.83-2.32,0,5.15,3.1,6.42,2.12S68.38,113.17,68.38,113.17Z"/><ellipse class="cls-33" cx="61.14" cy="99.91" rx="5.58" ry="5.36" transform="translate(-39.27 160.22) rotate(-89.53)"/><path class="cls-10" d="M58.69,100.87a2.26,2.26,0,0,1-2.55-2.36c0-1,.47-2.13,2.59-2.12a3.13,3.13,0,0,1,2.4,1.6h0a1.21,1.21,0,0,1,0,1.14A3.06,3.06,0,0,1,58.69,100.87Zm0-3.82c-1.72,0-1.94.78-1.95,1.46,0,1.39,1,1.69,1.92,1.7a2.45,2.45,0,0,0,1.89-1.38.56.56,0,0,0,0-.52A2.51,2.51,0,0,0,58.73,97.05Z"/><path class="cls-10" d="M63.56,100.91a3.08,3.08,0,0,1-2.43-1.78,1.21,1.21,0,0,1,0-1.14h0a3.14,3.14,0,0,1,2.43-1.56c2.12,0,2.56,1.19,2.55,2.16A2.27,2.27,0,0,1,63.56,100.91Zm0-3.82a2.54,2.54,0,0,0-1.87,1.23h0a.56.56,0,0,0,0,.52,2.45,2.45,0,0,0,1.87,1.41c.88,0,1.93-.27,1.94-1.67C65.52,97.9,65.3,97.1,63.59,97.09Z"/><path class="cls-34" d="M61,98.64a.78.78,0,0,1,0,.77,2.63,2.63,0,0,1-2.08,1.46c-1.38,0-2.14-.71-2.13-1.89s.78-1.68,2.16-1.67A2.7,2.7,0,0,1,61,98.64Z"/><path class="cls-10" d="M58.93,101.18c-1.54,0-2.45-.84-2.44-2.2,0-.91.44-2,2.48-2a3,3,0,0,1,2.29,1.48h0a1.11,1.11,0,0,1,0,1.06A3,3,0,0,1,58.93,101.18Zm0-3.56c-1.64,0-1.85.72-1.86,1.36,0,1.3,1,1.58,1.84,1.58a2.34,2.34,0,0,0,1.8-1.29.51.51,0,0,0,0-.48A2.4,2.4,0,0,0,59,97.62Z"/><path class="cls-34" d="M61.56,98.65a.81.81,0,0,0,0,.77,2.67,2.67,0,0,0,2.06,1.49c1.38,0,2.16-.68,2.17-1.86s-.76-1.69-2.14-1.7A2.72,2.72,0,0,0,61.56,98.65Z"/><path class="cls-10" d="M63.58,101.21a2.9,2.9,0,0,1-2.32-1.66,1.11,1.11,0,0,1,0-1.06h0a3,3,0,0,1,2.32-1.44c2,0,2.45,1.1,2.44,2C66.05,100.42,65.12,101.23,63.58,101.21Zm0-3.55a2.38,2.38,0,0,0-1.78,1.14h0a.48.48,0,0,0,0,.48,2.31,2.31,0,0,0,1.78,1.32c.84,0,1.85-.25,1.86-1.55C65.45,98.41,65.25,97.67,63.61,97.66Z"/><path class="cls-27" d="M61.19,102.5a1.83,1.83,0,0,1-1.32-.81.31.31,0,0,1,.08-.42.31.31,0,0,1,.43.08c.1.15.43.56.83.54s.68-.4.88-.72a.3.3,0,0,1,.42-.1.31.31,0,0,1,.1.42,1.77,1.77,0,0,1-1.39,1Z"/><rect class="cls-15" x="58.75" y="103.18" width="4.93" height="1.34" rx="0.67" ry="0.67" transform="matrix(1, 0.01, -0.01, 1, 0.85, -0.5)"/><path class="cls-35" d="M48.8,65.42c0-.76.82-1.08,1.2-.47,1.22,2,3,4.7,3.5,4.73.69,0-3.75,0-4.6,0a.16.16,0,0,1-.14-.17Z"/><path class="cls-35" d="M70.19,65.52c0-.74-.77-1.06-1.15-.48-1.25,1.94-3.13,4.72-3.62,4.73-.66,0,3.35,0,4.46.06a.31.31,0,0,0,.28-.33Z"/><path class="cls-36" d="M51.26,59.46l4.67,0s-.08,9.77-2.42,10.18S51.26,59.46,51.26,59.46Z"/><path class="cls-37" d="M51,59.42l4.09,0S54,69.08,52.93,69.63C51.07,70.58,51,59.42,51,59.42Z"/><path class="cls-36" d="M62.78,59.58l4.67,0s1,10.21-2.42,10.17C62.66,69.76,62.78,59.58,62.78,59.58Z"/><path class="cls-37" d="M62.49,59.54l4.09,0s-.08,9.76-2.13,10.17S62.49,59.54,62.49,59.54Z"/><path class="cls-38" d="M53.21,53.44s-.42,3.88,1.67,4,1.35-4.62,1.35-4.62"/><path class="cls-39" d="M57.92,53.2s-.41,2.24,1.69,2.3,1.33-2.66,1.33-2.66"/><path class="cls-39" d="M58.05,56.5s-.41,2.23,1.69,2.3,1.33-2.66,1.33-2.66"/><path class="cls-40" d="M54.22,57.52s-.32,2.9,1.25,3,1-3.46,1-3.46"/><path class="cls-38" d="M65.76,53.84s.36,3.89-1.74,3.95-1.27-4.64-1.27-4.64"/><path class="cls-40" d="M64.68,57.9s.27,2.91-1.3,3-1-3.48-1-3.48"/><path class="cls-10" d="M49.17,74.81s-.8-6.23,1.49-6.15c1.42,0,3,1.24,4,2.13a2.79,2.79,0,0,0,3.14.45,1.41,1.41,0,0,0,.7-.68c.4-1,1.82,2.31.7,3.48s-3.86-3.12-7-1.76S49.17,74.81,49.17,74.81Z"/><path class="cls-10" d="M70.91,75s.9-6.21-1.39-6.16c-1.42,0-3,1.18-4,2.06a2.8,2.8,0,0,1-3.14.4,1.42,1.42,0,0,1-.7-.69c-.38-1.06-1.85,2.27-.74,3.46s3.9-3,7-1.64S70.91,75,70.91,75Z"/><path class="cls-41" d="M50.3,81.42a10.78,10.78,0,0,1,3.85-1.57,2,2,0,0,0,.93-.43c1.1-.86,3.94-3,5.09-2.69a4.72,4.72,0,0,1,4.44,1.06c.78.5,2,2.45,3.13,2.1a1.77,1.77,0,0,1,2.41,2,5.25,5.25,0,0,1-2,3.84c-1.41.81-2.15.82-4.46.83-3.7,0-7.45-1.72-8.93.24-.55.72-1-.14-1.9.31-1.55.76-3.18-3.23-3-4.94C50,81.5,50.3,81.42,50.3,81.42Z"/><ellipse class="cls-2" cx="51.96" cy="83.49" rx="1.54" ry="0.95" transform="translate(-31.95 134.76) rotate(-89.53)"/><ellipse class="cls-2" cx="54.76" cy="82.57" rx="1.54" ry="0.95" transform="translate(-28.26 136.65) rotate(-89.53)"/><ellipse class="cls-2" cx="68.32" cy="83.15" rx="1.54" ry="0.95" transform="translate(-15.38 150.79) rotate(-89.53)"/><ellipse class="cls-2" cx="65.54" cy="82.19" rx="1.54" ry="0.95" transform="translate(-17.18 147.06) rotate(-89.53)"/><path class="cls-42" d="M59.81,75.42a16.69,16.69,0,0,1-2.33-.94c-3-1.45-7.69-3.1-7.54,1.18.21,6.23,2.83,6.19,8.63,1.84A3.17,3.17,0,0,1,62,78.82s2.32,3,5.11,1.49a4.1,4.1,0,0,0,2-4.47c-.81-4-4-3.19-6.79-1.25A3.51,3.51,0,0,1,59.81,75.42Z"/><circle class="cls-43" cx="53.53" cy="76.56" r="2.19"/><circle class="cls-10" cx="53.53" cy="76.56" r="1.23"/><circle class="cls-43" cx="65.65" cy="76.2" r="2.19"/><circle class="cls-10" cx="65.65" cy="76.2" r="1.23"/><path class="cls-44" d="M54.75,86.39s1.79-2.21,1.87-3.71.81-2.88,1.72-2.71S60,81.48,59.43,83.2s-3,3.08-4.68,3.59"/><path class="cls-44" d="M65.21,86.63s-1.75-2.24-1.8-3.75-.77-2.89-1.68-2.73-1.65,1.48-1.14,3.21,3,3.13,4.62,3.66"/><path class="cls-45" d="M51.77,93.25,68.08,93l0-5s-1-2.46-8.13-2.27-8.17,2.14-8.17,2.14Z"/><path class="cls-46" d="M52.24,92.2c.37,0,15.39-.11,15.39-.11l0-3.1s-1-1.52-7.69-1.43-7.7,1.3-7.7,1.3Z"/></g></g></svg>