<svg xmlns="http://www.w3.org/2000/svg" xmlns:xlink="http://www.w3.org/1999/xlink" viewBox="0 0 100.36 66.33"><defs><style>.cls-1{fill:none;}.cls-2{fill:#bc9d6c;}.cls-3{fill:#fff;}.cls-4{fill:#d67d41;}.cls-5{clip-path:url(#clip-path);}</style><clipPath id="clip-path"><polygon class="cls-1" points="94.71 5.38 95.51 63 7.49 61.4 7.49 2.18 94.71 5.38"/></clipPath></defs><title>towel</title><g id="Layer_2" data-name="Layer 2"><g id="Layer_1-2" data-name="Layer 1"><g id="Layer_2-2" data-name="Layer 2"><g id="OBJECTS"><polygon class="cls-2" points="51.93 65.58 61.77 65.76 64.36 65.81 79.9 66.09 83.08 66.15 93.14 66.33 93.09 63 97.72 62.81 97.72 61.21 93.07 61.21 93.02 57.6 97.72 57.21 97.72 55.34 92.99 55.54 92.93 51.34 97.99 51.34 97.72 49.21 92.9 49.21 92.84 44.81 97.72 44.41 97.72 42.54 92.81 42.74 92.75 37.94 97.72 37.74 97.72 36.14 92.72 36.14 92.66 31.54 97.19 31.34 97.19 29.74 92.63 29.93 92.58 26 97.99 26 97.72 23.87 92.55 23.87 92.48 18.7 97.72 18.26 97.72 16.4 92.45 16.62 92.39 12.88 97.72 12.66 97.72 11.06 92.37 11.06 92.34 8.71 84.09 8.41 81.38 8.31 65.09 7.71 62.42 7.62 52.63 7.26 44.08 6.94 35.41 6.62 32.73 6.53 17.28 5.96 14.6 5.86 5.11 5.51 5.11 8.91 0.27 9.11 0.27 10.71 5.11 10.71 5.11 14.31 0.27 14.71 0.27 16.58 5.11 16.37 5.11 20.57 0 20.57 0.27 22.71 5.11 22.71 5.11 27.11 0.27 27.51 0.27 29.38 5.11 29.18 5.11 33.99 0.27 34.18 0.27 35.78 5.11 35.78 5.11 40.39 0.8 40.58 0.8 42.18 5.11 42 5.11 45.92 0 45.92 0.27 48.05 5.11 48.05 5.11 53.25 0.27 53.66 0.27 55.52 5.11 55.32 5.11 59.06 0.27 59.26 0.27 60.85 5.11 60.85 5.11 64.73 13.95 64.89 16.52 64.94 32.08 65.22 34.66 65.27 43.69 65.43 51.93 65.58"/><polygon class="cls-3" points="93.69 7.73 100.09 7.73 100.09 9.33 93.42 9.6 93.69 7.73"/><polygon class="cls-3" points="93.69 57.88 100.09 57.88 100.09 59.48 93.42 59.75 93.69 57.88"/><polygon class="cls-3" points="93.69 32.81 100.09 32.81 100.09 34.41 93.42 34.67 93.69 32.81"/><polygon class="cls-3" points="93.69 13.33 100.09 13.07 100.09 14.94 93.69 15.47 93.69 13.33"/><polygon class="cls-3" points="93.69 52.28 100.09 52.01 100.09 53.88 93.69 54.42 93.69 52.28"/><polygon class="cls-3" points="93.69 39.47 100.09 39.21 100.09 41.08 93.69 41.61 93.69 39.47"/><polygon class="cls-3" points="93.42 20.54 100.09 20.54 100.36 22.67 93.42 22.67 93.42 20.54"/><polygon class="cls-3" points="93.42 45.88 100.09 45.88 100.36 48.01 93.42 48.01 93.42 45.88"/><polygon class="cls-3" points="93.16 26.67 99.56 26.41 99.56 28 93.42 28.27 93.16 26.67"/><polygon class="cls-3" points="9.04 57.52 2.64 57.52 2.64 55.93 9.31 55.66 9.04 57.52"/><polygon class="cls-3" points="9.04 7.38 2.64 7.38 2.64 5.78 9.31 5.51 9.04 7.38"/><polygon class="cls-3" points="9.04 32.45 2.64 32.45 2.64 30.85 9.31 30.58 9.04 32.45"/><polygon class="cls-3" points="9.04 51.92 2.64 52.19 2.64 50.33 9.04 49.79 9.04 51.92"/><polygon class="cls-3" points="9.04 12.98 2.64 13.25 2.64 11.38 9.04 10.85 9.04 12.98"/><polygon class="cls-3" points="9.04 25.79 2.64 26.05 2.64 24.18 9.04 23.65 9.04 25.79"/><polygon class="cls-3" points="9.31 44.72 2.64 44.72 2.37 42.59 9.31 42.59 9.31 44.72"/><polygon class="cls-3" points="9.31 19.38 2.64 19.38 2.37 17.25 9.31 17.25 9.31 19.38"/><polygon class="cls-3" points="9.57 38.59 3.17 38.85 3.17 37.25 9.31 36.99 9.57 38.59"/><polygon class="cls-4" points="94.71 5.38 95.51 63 7.49 61.4 7.49 2.18 94.71 5.38"/><g class="cls-5"><polygon class="cls-3" points="86.49 3.46 85.42 64.55 82.22 64.82 83.82 2.4 86.49 3.46"/><polygon class="cls-3" points="19.67 1.09 18.87 64.09 16.29 64.03 17 0 19.67 1.09"/><polygon class="cls-3" points="37.81 1.09 37.01 64.09 34.43 64.03 35.14 0 37.81 1.09"/><polygon class="cls-3" points="67.5 1.09 66.7 64.09 64.12 64.03 64.84 0 67.5 1.09"/><polygon class="cls-3" points="55.04 0.88 54.28 63.97 46.05 64.23 46.48 0.14 55.04 0.88"/><path class="cls-3" d="M75.23,15.32a4,4,0,1,1,0-8h0c2.23,0,3.92,1.27,3.92,3.5S77.46,15.32,75.23,15.32Z"/><path class="cls-4" d="M72.55,11a2.64,2.64,0,1,1,5.27.44,1.64,1.64,0,0,1,0,.22,2.32,2.32,0,0,1-2.61,2.27A2.91,2.91,0,0,1,72.55,11Z"/><path class="cls-3" d="M74.67,12.2a1,1,0,0,1-.39-1.41,1,1,0,0,1,1.42-.39.91.91,0,0,1,.47,1.2l0,.08A1.14,1.14,0,0,1,74.67,12.2Z"/><path class="cls-3" d="M74.83,20.3a4,4,0,0,1,0,8.06c-2.22,0-3.93-1.25-3.94-3.48S72.61,20.31,74.83,20.3Z"/><path class="cls-4" d="M77.53,24.61a2.65,2.65,0,0,1-5.27-.47c0-.05,0-.11,0-.16a2.3,2.3,0,0,1,2.57-2.28C76.28,21.88,77.71,23.16,77.53,24.61Z"/><path class="cls-3" d="M75.4,23.42a1,1,0,1,1-1,1.8A.9.9,0,0,1,73.89,24a.41.41,0,0,1,0-.09A1.13,1.13,0,0,1,75.4,23.42Z"/><path class="cls-3" d="M77.06,42a4,4,0,0,1-4.84-6.45l.21-.15c1.82-1.28,3.94-1.21,5.22.59S78.88,40.7,77.06,42Z"/><path class="cls-4" d="M72.38,40a2.64,2.64,0,1,1,4.67-2.46h0a2.32,2.32,0,0,1-.83,3.35A2.89,2.89,0,0,1,72.38,40Z"/><path class="cls-3" d="M74.81,39.74a1,1,0,1,1-.2-2.05.9.9,0,0,1,1.07.7s0,.06,0,.09A1.14,1.14,0,0,1,74.81,39.74Z"/><path class="cls-3" d="M70.64,54a4,4,0,1,1,7.77-2.12c.58,2.15-.2,4.11-2.34,4.71S71.22,56.16,70.64,54Z"/><path class="cls-4" d="M74.11,50.3a2.64,2.64,0,0,1,.73,5.23A2.32,2.32,0,0,1,72,53.62,2.9,2.9,0,0,1,74.11,50.3Z"/><path class="cls-3" d="M73.5,52.66a1,1,0,0,1,2,.52.9.9,0,0,1-1,.79l-.11,0A1.14,1.14,0,0,1,73.5,52.66Z"/><path class="cls-3" d="M26.37,15.05A4,4,0,0,1,26.32,7c2.23,0,3.94,1.26,3.95,3.48S28.59,15,26.37,15.05Z"/><path class="cls-4" d="M23.66,10.74a2.64,2.64,0,1,1,5.25.64,2.3,2.3,0,0,1-2.57,2.27C24.91,13.47,23.49,12.19,23.66,10.74Z"/><path class="cls-3" d="M25.8,11.93a1,1,0,0,1,1-1.8h0a.91.91,0,0,1,.49,1.18s0,.07,0,.1A1.13,1.13,0,0,1,25.8,11.93Z"/><path class="cls-3" d="M26,20a4,4,0,0,1,.08,8.06c-2.22,0-3.93-1.24-3.95-3.46S23.76,20,26,20Z"/><path class="cls-4" d="M28.71,24.33a2.64,2.64,0,1,1-5.25-.61A2.31,2.31,0,0,1,26,21.43,2.91,2.91,0,0,1,28.71,24.33Z"/><path class="cls-3" d="M26.58,23.15a1,1,0,0,1-1,1.81.91.91,0,0,1-.49-1.18.42.42,0,0,1,0-.1A1.14,1.14,0,0,1,26.58,23.15Z"/><path class="cls-3" d="M28.32,41.69a4,4,0,0,1-4.66-6.56c1.82-1.29,3.93-1.24,5.22.58S30.14,40.41,28.32,41.69Z"/><path class="cls-4" d="M23.63,39.72a2.64,2.64,0,0,1,4.66-2.5,2.31,2.31,0,0,1-.81,3.36A2.9,2.9,0,0,1,23.63,39.72Z"/><path class="cls-3" d="M26.06,39.47a1,1,0,0,1-1.13-.93,1,1,0,0,1,.93-1.13.9.9,0,0,1,1.07.69.43.43,0,0,1,0,.11A1.13,1.13,0,0,1,26.06,39.47Z"/><path class="cls-3" d="M22,53.77a4,4,0,0,1,7.76-2.16c.59,2.14-.18,4.11-2.32,4.72S22.56,55.91,22,53.77Z"/><path class="cls-4" d="M25.42,50a2.64,2.64,0,0,1,.76,5.23,2.32,2.32,0,0,1-2.88-1.9A2.9,2.9,0,0,1,25.42,50Z"/><path class="cls-3" d="M24.82,52.41a1,1,0,0,1,1.27-.74,1,1,0,0,1,.74,1.26.91.91,0,0,1-1,.78l-.1,0A1.16,1.16,0,0,1,24.82,52.41Z"/><polygon class="cls-3" points="94.71 5.38 95.51 63 91.02 59.08 93.82 56.15 91.02 53.35 93.42 50.01 90.76 46.95 93.16 43.74 90.62 40.68 93.02 37.07 90.89 33.87 93.42 30.54 90.89 27.47 93.02 24.4 90.62 21.2 92.76 18.27 90.89 14.4 92.63 11.6 90.49 8.13 94.71 5.38"/><polygon class="cls-3" points="7.49 2.18 7.49 61.4 12.42 56.55 9.4 53.7 12.06 50.5 9.75 47.13 12.95 43.39 9.75 40.37 13.13 37.17 10.29 34.49 12.6 31.65 10.46 28.27 12.24 25.07 9.75 21.7 12.42 18.31 9.93 14.76 12.6 11.91 10.29 8.71 12.77 6.04 7.49 2.18"/><polygon class="cls-3" points="57.77 7.29 57.77 12.09 61.86 9.42 57.77 7.29"/><polygon class="cls-3" points="57.06 54.42 57.06 59.22 61.15 56.55 57.06 54.42"/><polygon class="cls-3" points="57.41 19.38 57.41 24.18 61.5 21.52 57.41 19.38"/><polygon class="cls-3" points="61.32 13.33 57.59 15.83 61.15 18.31 61.32 13.33"/><polygon class="cls-3" points="61.32 24.9 57.59 27.38 61.15 29.88 61.32 24.9"/><polygon class="cls-3" points="57.23 30.94 57.23 35.74 61.32 33.07 57.23 30.94"/><polygon class="cls-3" points="56.88 43.03 56.88 47.83 60.97 45.17 56.88 43.03"/><polygon class="cls-3" points="60.79 36.99 57.06 39.47 60.61 41.97 60.79 36.99"/><polygon class="cls-3" points="60.79 48.54 57.06 51.04 60.61 53.53 60.79 48.54"/><polygon class="cls-3" points="43.36 58.68 43.36 53.88 39.27 56.55 43.36 58.68"/><polygon class="cls-3" points="44.07 11.56 44.07 6.75 39.98 9.42 44.07 11.56"/><polygon class="cls-3" points="43.72 46.59 43.72 41.79 39.63 44.46 43.72 46.59"/><polygon class="cls-3" points="39.81 52.64 43.54 50.15 39.98 47.66 39.81 52.64"/><polygon class="cls-3" points="39.81 41.08 43.54 38.59 39.98 36.1 39.81 41.08"/><polygon class="cls-3" points="43.9 35.03 43.9 30.23 39.81 32.9 43.9 35.03"/><polygon class="cls-3" points="44.25 22.94 44.25 18.13 40.16 20.8 44.25 22.94"/><polygon class="cls-3" points="40.34 28.99 44.07 26.49 40.52 24.01 40.34 28.99"/><polygon class="cls-3" points="40.34 17.43 44.07 14.93 40.52 12.45 40.34 17.43"/><path class="cls-4" d="M51,8a1,1,0,0,1-1,1.79.91.91,0,0,1-.49-1.18.93.93,0,0,0,.05-.1A1.15,1.15,0,0,1,51,8Z"/><path class="cls-3" d="M89.09,10.84a.79.79,0,1,1-.77,1.37.69.69,0,0,1-.38-.89l0-.08A.86.86,0,0,1,89.09,10.84Z"/><path class="cls-3" d="M14.06,7.84a.79.79,0,1,1-.66,1.43l-.11-.06a.68.68,0,0,1-.37-.9l0-.07A.86.86,0,0,1,14.06,7.84Z"/><path class="cls-3" d="M14.06,14.19a.79.79,0,0,1-.66,1.44l-.11-.06a.69.69,0,0,1-.37-.91l0-.07A.88.88,0,0,1,14.06,14.19Z"/><path class="cls-3" d="M14.2,21.13a.79.79,0,0,1,.38,1.05.78.78,0,0,1-1.05.38.31.31,0,0,1-.1,0,.7.7,0,0,1-.38-.91l0-.07A.87.87,0,0,1,14.2,21.13Z"/><path class="cls-3" d="M14.11,27.84a.79.79,0,0,1-.78,1.38A.7.7,0,0,1,13,28.3l0,0A.86.86,0,0,1,14.11,27.84Z"/><path class="cls-3" d="M14.33,33.8a.79.79,0,0,1,.3,1.07.78.78,0,0,1-1.07.3h0a.68.68,0,0,1-.37-.9l0-.07A.87.87,0,0,1,14.33,33.8Z"/><path class="cls-3" d="M14.29,39.71a.8.8,0,0,1-.77,1.4.69.69,0,0,1-.37-.9.3.3,0,0,1,0-.08A.85.85,0,0,1,14.29,39.71Z"/><path class="cls-3" d="M13.93,46.43a.77.77,0,0,1,.4,1,.78.78,0,0,1-1,.4l-.13-.07a.68.68,0,0,1-.37-.89.2.2,0,0,1,0-.08A.85.85,0,0,1,13.93,46.43Z"/><path class="cls-3" d="M14,52.74a.79.79,0,0,1,.31,1.07h0a.8.8,0,0,1-1.07.3h0a.69.69,0,0,1-.37-.9.25.25,0,0,1,0-.07A.86.86,0,0,1,14,52.74Z"/><path class="cls-3" d="M89.35,17a.78.78,0,0,1,.31,1.06h0a.8.8,0,0,1-1.08.31.7.7,0,0,1-.37-.9.2.2,0,0,1,0-.08A.86.86,0,0,1,89.35,17Z"/><path class="cls-3" d="M89.35,23.71a.78.78,0,0,1,.3,1.07.79.79,0,0,1-1.07.3h0a.68.68,0,0,1-.37-.89l0-.08A.86.86,0,0,1,89.35,23.71Z"/><path class="cls-3" d="M89.35,29.91a.79.79,0,1,1-.66,1.43l-.11-.06a.68.68,0,0,1-.37-.89l0-.08A.86.86,0,0,1,89.35,29.91Z"/><path class="cls-3" d="M89.35,36.51a.79.79,0,1,1-.66,1.43l-.11,0a.7.7,0,0,1-.37-.9l0-.08A.86.86,0,0,1,89.35,36.51Z"/><path class="cls-3" d="M89.42,43.45a.77.77,0,0,1,.31,1.06h0a.79.79,0,0,1-1.07.3.68.68,0,0,1-.37-.9.25.25,0,0,1,0-.07A.84.84,0,0,1,89.42,43.45Z"/><path class="cls-3" d="M89.49,49.18a.79.79,0,0,1-.77,1.38.7.7,0,0,1-.38-.9.3.3,0,0,0,0-.08A.87.87,0,0,1,89.49,49.18Z"/><path class="cls-3" d="M89.49,55.12a.79.79,0,1,1-.67,1.43l-.1-.06a.7.7,0,0,1-.38-.9.25.25,0,0,0,0-.07A.86.86,0,0,1,89.49,55.12Z"/><path class="cls-4" d="M51,14.73a1,1,0,1,1-1,1.81h0a.92.92,0,0,1-.49-1.19l.05-.09A1.14,1.14,0,0,1,51,14.73Z"/><path class="cls-4" d="M51.18,22.2a1,1,0,1,1-1,1.81h0a.91.91,0,0,1-.48-1.19l0-.09A1.14,1.14,0,0,1,51.18,22.2Z"/><path class="cls-4" d="M51.18,29.49a1,1,0,1,1-1,1.81h0a.9.9,0,0,1-.48-1.19l0-.09A1.14,1.14,0,0,1,51.18,29.49Z"/><path class="cls-4" d="M51.18,36.07a1,1,0,1,1-1,1.81.91.91,0,0,1-.48-1.19l0-.09A1.14,1.14,0,0,1,51.18,36.07Z"/><path class="cls-4" d="M51.18,43.16a1,1,0,1,1-1,1.81.91.91,0,0,1-.48-1.19l0-.09A1.14,1.14,0,0,1,51.18,43.16Z"/><path class="cls-4" d="M51.18,49.76a1,1,0,1,1-1,1.81.89.89,0,0,1-.48-1.18,1,1,0,0,1,0-.1A1.16,1.16,0,0,1,51.18,49.76Z"/><path class="cls-4" d="M51.35,56.52a1,1,0,0,1-1,1.81.91.91,0,0,1-.49-1.19l0-.09A1.14,1.14,0,0,1,51.35,56.52Z"/></g></g></g></g></g></svg>