<svg xmlns="http://www.w3.org/2000/svg" xmlns:xlink="http://www.w3.org/1999/xlink" viewBox="0 0 2343.4 189.91"><defs><style>.cls-1{fill:none;}.cls-2{clip-path:url(#clip-path);}.cls-3{fill:#eff4f3;}.cls-4{fill:#c3e7ea;}.cls-5{fill:#a7d2d8;}.cls-6{clip-path:url(#clip-path-2);}.cls-7{clip-path:url(#clip-path-3);}.cls-8{clip-path:url(#clip-path-4);}</style><clipPath id="clip-path"><rect class="cls-1" x="40.7" y="65.7" width="565.5" height="565.5"/></clipPath><clipPath id="clip-path-2"><rect class="cls-1" x="606.2" y="65.7" width="565.5" height="419.6"/></clipPath><clipPath id="clip-path-3"><rect class="cls-1" x="1737.2" y="65.7" width="565.5" height="565.5"/></clipPath><clipPath id="clip-path-4"><rect class="cls-1" x="1171.7" y="65.7" width="565.5" height="419.6"/></clipPath></defs><title>water</title><g id="Layer_2" data-name="Layer 2"><g id="Layer_1-2" data-name="Layer 1"><g id="BACKGROUND"><g class="cls-2"><path class="cls-3" d="M26.67,145c39,8.49,71.26,39,115.37,33.93,20.35-1.69,39-13.57,59.37-13.57,39,0,78,33.93,118.76,22.06,42.41-11.88,62.77-49.19,110.27-49.19,17,0,35.62,6.78,54.29,6.78,28.84,0,45.8-10.17,71.25-17,22.06-6.79,59.38,6.79,71.25-13.57,6.79-11.88,5.09-52.59,1.7-64.47-5.09-17,1.7-10.18-13.57-18.66-25.45-13.57-83.13-11.88-110.27-15.27C411.79,4.17,318.47-6,225.19,4.17,164.11,11,104.74,22.84,43.66,22.84c-45.79,0-47.5,0-40.71,45.8C8,92.39,9.73,116.14,18.2,138.2"/><path class="cls-4" d="M25,106c44.11,50.9,91.61,56,151,37.33,20.35-5.09,30.53-8.48,50.89,1.69,22,10.18,33.93,33.93,64.47,33.93,35.62-1.69,59.37-40.71,98.39-49.18,35.63-8.49,97.51,13.08,122.15-13.57,16.31-17.65,47.5-22.06,59.38-20.36,23.75,3.39,49.2,5.09,49.2-20.36,1.69-32.23-22.06-23.75-47.5-23.75-57.68,0-117.05-1.7-174.73,1.69-76.34,3.4-335.91-6.78-376.62,3.4,1.69,13.57,1.69,27.14,1.69,40.71"/><path class="cls-5" d="M2.93,70.34C55.51,112.75,89.44,112.75,155.62,106c50.89-5.08,84.82,27.15,132.33,32.24,49.19,5.09,86.52-25.45,135.72-28.84,22.05-1.7,44.1,1.69,64.46-5.09,22.05-6.79,39-17,59.37-22.06,25.45-5.09,56-8.48,50.89-42.41C500,24.53,388,27.93,286.24,31.32,221.77,33,157.3,43.19,92.84,43.19c-25.45,0-52.58-1.69-78,0C13.1,50,11.4,58.46,11.4,63.55"/><path class="cls-3" d="M135.14,136.39c0,4.84-10.64,8.76-23.75,8.76s-23.76-3.92-23.76-8.76,3.28-9.9,16.4-9.9S135.14,131.55,135.14,136.39Z"/><path class="cls-3" d="M296.3,166c-.39,3.28-5.21,5.39-10.75,4.73s-9.74-3.86-9.34-7.14,5.07-4.23,10.62-3.57S296.68,162.73,296.3,166Z"/><path class="cls-4" d="M569.76,110c.63,3.73-7.06,8.16-17.18,9.88s-18.86.1-19.49-3.63,1.23-8.08,11.31-9.81S569.11,106.2,569.76,110Z"/><path class="cls-4" d="M592.63,111.22a5.41,5.41,0,0,1-10.75,0c0-2.65,1.56-4.8,4.53-4.8S592.63,108.58,592.63,111.22Z"/><path class="cls-4" d="M162.56,160.71a5.1,5.1,0,0,1-5.37,4.8c-3,0-6.36-2.16-6.36-4.8s2.55-4.81,5.51-4.81S162.56,158.05,162.56,160.71Z"/></g></g><g id="BACKGROUND-2" data-name="BACKGROUND"><g class="cls-6"><path class="cls-3" d="M592.17,124.52c40,0,71.26,29,115.37,25.18,20.35-1.26,39-10.07,59.37-10.07,39,0,78,25.17,118.76,16.36,42.41-8.81,62.77-36.5,110.27-36.5,17,0,35.62,5,54.29,5,28.84,0,45.8-7.55,71.25-12.59,22.06-5,59.38,5,71.25-10.07,6.79-8.81,5.09-39,1.7-47.83-5.09-12.59,1.7-7.56-13.57-13.85-25.45-10.07-83.13-8.81-110.27-11.33C977.29,20.05,884,12.5,790.69,20.05c-61.08,5-120.45,13.85-181.53,13.85-45.79,0-47.5,0-40.71,34,5.07,17.63,6.78,35.25,15.25,51.61"/><path class="cls-4" d="M603.94,96.24c62.09-7.26,78.15,40.87,137.53,27,20.35-3.78,30.53-6.29,50.89,1.26,22,7.55,33.93,25.18,64.47,25.18,35.62-1.26,59.37-30.22,98.39-36.5,35.63-6.3,97.51,9.71,122.15-10.07,16.31-13.09,47.5-16.37,59.38-15.11,23.75,2.52,49.2,3.78,49.2-15.1,1.69-23.92-22.06-17.63-47.5-17.63-57.68,0-117.05-1.26-174.73,1.26-76.34,2.52-335.91-5-376.62,2.52,1.69,10.07,1.69,20.14,1.69,30.21"/><path class="cls-5" d="M568.43,69.14c89.79-20.4,86.51,31.47,152.69,26.44,50.89-3.78,84.82,20.14,132.33,23.91,49.19,3.78,86.52-18.88,135.72-21.4,22.05-1.25,44.1,1.26,64.46-3.77,22-5,39-12.59,59.37-16.37,25.45-3.77,56-6.29,50.89-31.47-98.39-11.33-210.36-8.81-312.15-6.29C787.27,41.45,722.8,49,658.34,49c-25.45,0-52.58-1.26-78,0-1.7,5-3.4,11.33-3.4,15.11"/><path class="cls-3" d="M700.64,118.15c0,3.59-10.64,6.51-23.75,6.51s-23.76-2.92-23.76-6.51,3.28-7.34,16.4-7.34S700.64,114.56,700.64,118.15Z"/><path class="cls-3" d="M861.8,140.12c-.39,2.44-5.21,4-10.75,3.51s-9.74-2.86-9.34-5.3,5.07-3.13,10.62-2.65S862.18,137.7,861.8,140.12Z"/><path class="cls-4" d="M1135.26,98.53c.63,2.77-7.06,6.06-17.18,7.34s-18.86.07-19.49-2.7,1.23-6,11.31-7.27S1134.61,95.75,1135.26,98.53Z"/><path class="cls-4" d="M1158.13,99.48c-.34,2.2-3,3.78-6,3.54-2.51-.21-4.49-1.68-4.77-3.54,0-2,1.56-3.57,4.53-3.57S1158.13,97.52,1158.13,99.48Z"/><path class="cls-4" d="M728.06,136.19c-.16,2.09-2.56,3.68-5.37,3.57-3,0-6.36-1.6-6.36-3.57s2.55-3.56,5.51-3.56S728.06,134.22,728.06,136.19Z"/></g></g><g id="BACKGROUND-3" data-name="BACKGROUND"><g class="cls-7"><path class="cls-3" d="M2325.19,138.2c8.47-22.06,10.18-45.81,15.26-69.56,6.79-45.8,5.08-45.8-40.72-45.8-61.07,0-120.45-11.88-181.52-18.67-93.29-10.17-186.6,0-279.9,11.88-27.14,3.39-84.83,1.7-110.27,15.27-15.27,8.48-8.49,1.7-13.58,18.66-3.39,11.88-5.08,52.59,1.7,64.47,11.88,20.36,49.2,6.78,71.25,13.57,25.45,6.79,42.42,17,71.26,17,18.67,0,37.32-6.78,54.29-6.78,47.5,0,67.86,37.31,110.27,49.19,40.71,11.87,79.74-22.06,118.75-22.06,20.36,0,39,11.88,59.38,13.57,44.11,5.09,76.34-25.44,115.36-33.93"/><path class="cls-4" d="M2320.1,97.49c0-13.57,0-27.14,1.7-40.71-40.72-10.18-300.28,0-376.62-3.4-57.68-3.39-117-1.69-174.73-1.69-25.45,0-49.2-8.48-47.5,23.75,0,25.45,25.44,23.75,49.2,20.36,11.87-1.7,43.06,2.71,59.37,20.36,24.65,26.65,86.52,5.08,122.15,13.57,39,8.47,62.77,47.49,98.4,49.18,30.54,0,42.42-23.75,64.47-33.93,20.35-10.17,30.53-6.78,50.89-1.69,59.38,18.65,106.88,13.57,151-37.33"/><path class="cls-5" d="M2332,63.55c0-5.09-1.7-13.57-3.39-20.36-25.46-1.69-52.59,0-78,0-64.47,0-128.94-10.17-193.4-11.87C1955.37,27.93,1843.4,24.53,1745,39.8c-5.09,33.93,25.45,37.32,50.9,42.41,20.35,5.09,37.32,15.27,59.36,22.06,20.36,6.78,42.42,3.39,64.47,5.09,49.2,3.39,86.52,33.93,135.72,28.84,47.5-5.09,81.43-37.32,132.33-32.24,66.17,6.79,100.1,6.79,152.68-35.62"/><path class="cls-3" d="M2239.36,126.49c13.12,0,16.4,5.06,16.4,9.9s-10.63,8.76-23.75,8.76-23.75-3.92-23.75-8.76S2226.24,126.49,2239.36,126.49Z"/><path class="cls-3" d="M2056.57,160c5.54-.66,10.22.29,10.62,3.57s-3.8,6.47-9.34,7.14-10.36-1.45-10.76-4.73S2051,160.67,2056.57,160Z"/><path class="cls-4" d="M1799,106.39c10.07,1.73,11.94,6.08,11.31,9.81s-9.37,5.35-19.49,3.63-17.81-6.15-17.18-9.88S1788.92,104.66,1799,106.39Z"/><path class="cls-4" d="M1757,106.42c3,0,4.52,2.15,4.52,4.8a5.4,5.4,0,0,1-10.74,0C1750.77,108.58,1754,106.42,1757,106.42Z"/><path class="cls-4" d="M2187.05,155.9c3,0,5.51,2.16,5.51,4.81s-3.39,4.8-6.36,4.8a5.12,5.12,0,0,1-5.37-4.8C2180.83,158.05,2184.09,155.9,2187.05,155.9Z"/></g></g><g id="BACKGROUND-4" data-name="BACKGROUND"><g class="cls-8"><path class="cls-3" d="M1759.69,119.49c8.47-16.36,10.18-34,15.26-51.61,6.79-34,5.08-34-40.72-34-61.07,0-120.45-8.82-181.52-13.85-93.29-7.55-186.6,0-279.9,8.81-27.14,2.52-84.83,1.26-110.27,11.33-15.27,6.29-8.49,1.26-13.58,13.85-3.39,8.81-5.08,39,1.7,47.83,11.88,15.11,49.2,5,71.25,10.07,25.45,5,42.42,12.59,71.26,12.59,18.67,0,37.32-5,54.29-5,47.5,0,67.86,27.69,110.27,36.5,40.71,8.81,79.74-16.36,118.75-16.36,20.36,0,39,8.81,59.38,10.07,44.11,3.77,75.32-25.19,115.36-25.18"/><path class="cls-4" d="M1754.6,89.29c0-10.07,0-20.14,1.7-30.21-40.72-7.55-300.28,0-376.62-2.52C1322,54,1262.63,55.3,1205,55.3c-25.45,0-49.2-6.29-47.5,17.63,0,18.88,25.44,17.62,49.2,15.1,11.87-1.26,43.06,2,59.37,15.11,24.65,19.78,86.52,3.77,122.15,10.07,39,6.28,62.77,35.24,98.4,36.5,30.54,0,42.42-17.63,64.47-25.18,20.35-7.55,30.53-5,50.89-1.26,59.38,13.84,75.44-34.29,137.53-27"/><path class="cls-5" d="M1766.49,64.11c0-3.78-1.7-10.07-3.39-15.11-25.46-1.26-52.59,0-78,0-64.47,0-128.94-7.55-193.4-8.81-101.79-2.52-213.76-5-312.16,6.29-5.09,25.18,25.45,27.7,50.9,31.47,20.35,3.78,37.32,11.33,59.36,16.37,20.36,5,42.42,2.52,64.47,3.77,49.2,2.52,86.52,25.18,135.72,21.4,47.5-3.77,81.43-27.69,132.33-23.91,66.17,5,62.89-46.84,152.68-26.44"/><path class="cls-3" d="M1673.86,110.81c13.12,0,16.4,3.75,16.4,7.34s-10.63,6.51-23.75,6.51-23.75-2.92-23.75-6.51S1660.74,110.81,1673.86,110.81Z"/><path class="cls-3" d="M1491.07,135.68c5.54-.48,10.22.22,10.62,2.65s-3.8,4.8-9.34,5.3-10.36-1.07-10.76-3.51S1485.53,136.17,1491.07,135.68Z"/><path class="cls-4" d="M1233.5,95.9c10.07,1.28,11.94,4.5,11.31,7.27s-9.37,4-19.49,2.7-17.81-4.57-17.18-7.34S1223.42,94.61,1233.5,95.9Z"/><path class="cls-4" d="M1191.49,95.91c3,0,4.52,1.6,4.52,3.57-.28,1.86-2.26,3.33-4.76,3.54-3,.24-5.65-1.34-6-3.54C1185.27,97.52,1188.53,95.91,1191.49,95.91Z"/><path class="cls-4" d="M1621.55,132.63c3,0,5.51,1.6,5.51,3.56s-3.39,3.57-6.36,3.57c-2.8.11-5.2-1.48-5.37-3.57C1615.33,134.22,1618.59,132.63,1621.55,132.63Z"/></g></g></g></g></svg>